<?xml version="1.0" encoding="utf-8"?>
<!-- Generator: Adobe Illustrator 27.2.0, SVG Export Plug-In . SVG Version: 6.00 Build 0)  -->
<svg version="1.1" id="Icons" xmlns="http://www.w3.org/2000/svg" xmlns:xlink="http://www.w3.org/1999/xlink" x="0px" y="0px"
	 viewBox="0 0 576 576" style="enable-background:new 0 0 576 576;" xml:space="preserve">
<style type="text/css">
	.st0{fill-rule:evenodd;clip-rule:evenodd;fill:#011520;}
</style>
<g>
	<path class="st0" d="M304.4,263.64c-0.28-2.66-1.4-4.97-3.36-6.93c-2.28-2.28-5.04-3.42-8.26-3.42c-0.92,0-1.8,0.09-2.64,0.27
		l-3.97-11.8v0c-0.08-0.24-0.22-0.44-0.43-0.59h0c-0.21-0.15-0.44-0.22-0.69-0.22h-1.79c-0.08-0.21-0.19-0.41-0.33-0.6
		c-0.37-0.5-0.87-0.79-1.48-0.88l-7.62-1.08h0l-4.04-3.82c-2.32-1.78-4.3-1.38-5.92,1.21l-5.03,9.35c-1.03,2.07-0.51,3.69,1.57,4.86
		l8.09,4.36l0.71,10.33c0.06,0.79,0.38,1.45,0.98,1.97c0.6,0.52,1.29,0.76,2.08,0.7h0.01c0.79-0.06,1.45-0.38,1.97-0.98
		c0.52-0.6,0.76-1.29,0.7-2.08l-0.8-11.58c-0.12-1.27-0.73-2.22-1.82-2.84l-5.74-3.08l3.21-5.98l1.27,1.19
		c0.5,0.42,1.07,0.68,1.72,0.8l8.02,1.13c0.62,0.09,1.18-0.06,1.68-0.43c0.08-0.06,0.15-0.12,0.22-0.18h1.5l1.2,3.58h-10.87
		c-0.33,0-0.61,0.12-0.84,0.35h-0.01c-0.23,0.23-0.35,0.51-0.35,0.84c0,0.33,0.12,0.61,0.35,0.84l0.01,0.01
		c0.23,0.23,0.51,0.34,0.84,0.34h11.77l0,0l-9.72,9.46c-0.23,0.23-0.35,0.51-0.35,0.83c-0.01,0.33,0.11,0.61,0.34,0.85
		c0.23,0.23,0.5,0.35,0.83,0.36h0.01c0.33,0.01,0.61-0.1,0.85-0.33l8.82-8.59v0l0.82,2.45c-1.22,0.57-2.34,1.36-3.37,2.39
		c-2.22,2.23-3.36,4.9-3.42,8.02c0,0.08,0,0.17,0,0.25c0,3.23,1.14,5.98,3.42,8.26c2.29,2.29,5.05,3.43,8.28,3.43
		c3.23,0,5.98-1.14,8.26-3.43c2.28-2.28,3.43-5.04,3.42-8.26C304.47,264.52,304.44,264.07,304.4,263.64z M299.05,271.26
		c-1.73,1.74-3.82,2.61-6.28,2.61c-2.46,0-4.55-0.87-6.29-2.61c-1.73-1.73-2.6-3.83-2.6-6.28c0-0.13,0-0.26,0.01-0.39
		c0.09-2.29,0.95-4.26,2.59-5.91c0.7-0.7,1.47-1.26,2.29-1.68l2.86,8.51h0.01c0.11,0.31,0.31,0.54,0.6,0.68h-0.01
		c0.3,0.15,0.6,0.17,0.91,0.07l0.01-0.01c0.31-0.1,0.53-0.3,0.68-0.6v0c0.15-0.3,0.17-0.6,0.07-0.91l-2.86-8.51
		c0.56-0.1,1.14-0.15,1.74-0.15c2.45,0,4.54,0.87,6.28,2.6c1.45,1.45,2.29,3.14,2.53,5.09c0.05,0.39,0.07,0.79,0.07,1.21
		C301.66,267.43,300.79,269.53,299.05,271.26z"/>
	<path class="st0" d="M256.06,253.28c-3.23,0-5.99,1.14-8.27,3.42c-2.28,2.28-3.42,5.04-3.42,8.27c0,0.49,0.03,0.98,0.08,1.45
		c0.29,2.61,1.41,4.88,3.34,6.82c2.29,2.29,5.04,3.43,8.27,3.43c3.23,0,5.98-1.14,8.27-3.43c2.2-2.19,3.34-4.83,3.43-7.9
		c0-0.12,0-0.24,0-0.36c0-3.23-1.14-5.99-3.43-8.27C262.05,254.42,259.29,253.28,256.06,253.28z M262.34,271.26
		c-1.73,1.74-3.83,2.61-6.28,2.61c-2.46,0-4.55-0.87-6.29-2.61c-1.42-1.42-2.26-3.07-2.52-4.97c-0.06-0.42-0.09-0.86-0.08-1.31
		c0-2.46,0.87-4.55,2.6-6.29c1.74-1.73,3.83-2.6,6.29-2.6c2.06,0,3.87,0.62,5.43,1.84l-4.63,4.5c-0.25-0.08-0.52-0.12-0.81-0.12
		c-0.74,0-1.36,0.26-1.88,0.78c-0.52,0.52-0.78,1.15-0.78,1.89c0,0.37,0.06,0.71,0.19,1.02c0.13,0.31,0.33,0.6,0.59,0.86
		c0.52,0.52,1.15,0.78,1.88,0.78c0.74,0,1.37-0.26,1.89-0.78c0.21-0.21,0.37-0.43,0.5-0.68h6.43
		C264.63,268.13,263.79,269.82,262.34,271.26z M258.87,263.81l4.29-4.18c0.95,1.24,1.52,2.63,1.71,4.18H258.87z"/>
	<path class="st0" d="M275.43,268.96h-3.9c-0.31,0.01-0.58,0.12-0.81,0.35c-0.23,0.23-0.35,0.51-0.35,0.84
		c0,0.33,0.12,0.61,0.35,0.84c0.22,0.22,0.49,0.34,0.81,0.35h3.9c0.32-0.01,0.59-0.12,0.81-0.35c0.23-0.23,0.35-0.51,0.35-0.84
		c0-0.33-0.12-0.61-0.35-0.84C276.01,269.08,275.74,268.96,275.43,268.96z"/>
	<path class="st0" d="M267.19,228.29c0,1.3,0.46,2.4,1.38,3.32c0.92,0.92,2.02,1.38,3.32,1.38c1.3,0,2.41-0.46,3.33-1.38
		c0.92-0.92,1.37-2.02,1.37-3.32c0-0.09-0.02-0.17-0.02-0.26l1.33,0.22c0.58-3.42-1.57-6.63-4.79-7.18
		c-3.22-0.54-6.3,1.79-6.88,5.21l1.3,0.22C267.3,227.05,267.19,227.65,267.19,228.29z"/>
</g>
</svg>
