<?xml version="1.0" encoding="utf-8"?>
<!-- Generator: Adobe Illustrator 27.2.0, SVG Export Plug-In . SVG Version: 6.00 Build 0)  -->
<svg version="1.1" xmlns="http://www.w3.org/2000/svg" xmlns:xlink="http://www.w3.org/1999/xlink" x="0px" y="0px"
	 viewBox="0 0 3000 2000" style="enable-background:new 0 0 3000 2000;" xml:space="preserve">
<style type="text/css">
	.st0{fill:#FFEED2;}
	.st1{fill:#EADAC1;}
	.st2{fill:#D3C4AE;}
	.st3{fill:#D4C2A7;}
	.st4{fill:#B5A68F;}
	.st5{fill:#353029;}
	.st6{fill:#F1F2F2;}
	.st7{fill:url(#SVGID_1_);}
	.st8{fill:url(#SVGID_00000121276342286575464050000011377479338514681240_);}
	.st9{fill:url(#SVGID_00000124141857995264128190000009008654584149880503_);}
	.st10{fill:url(#SVGID_00000031889995473750895430000003250764767566062722_);}
	.st11{fill:url(#SVGID_00000113335580635048817280000013618116240958459781_);}
	.st12{fill:url(#SVGID_00000144298232751590027990000011009866868684002493_);}
	.st13{fill:url(#SVGID_00000176739270335117942000000002921389711769060779_);}
	.st14{fill:url(#SVGID_00000153671504677586199940000017256817745538398633_);}
	.st15{fill:url(#SVGID_00000011013836910803248870000013578945568538618270_);}
	.st16{fill:url(#SVGID_00000022559519066832521990000001511746894538088326_);}
	.st17{fill:url(#SVGID_00000030481581841655542730000007254428340752064944_);}
	.st18{fill:url(#SVGID_00000104697546429249867940000006658112888552515249_);}
	.st19{fill:url(#SVGID_00000034087793746746666800000013095187428932981421_);}
	.st20{fill:url(#SVGID_00000101808547600032371050000016959178832378149561_);}
	.st21{fill:url(#SVGID_00000111893208500550988540000000931891704553212858_);}
	.st22{fill:url(#SVGID_00000087388989565852904270000018204554874355372424_);}
	.st23{fill:url(#SVGID_00000085935383722917197600000011661334096474610861_);}
	.st24{fill:url(#SVGID_00000018198544720591682650000014867464479850652820_);}
	.st25{fill:url(#SVGID_00000087402151221769171300000014097256393617815210_);}
	.st26{fill:url(#SVGID_00000039837523572360512240000000633948719753319841_);}
	.st27{fill:url(#SVGID_00000057859824565219292460000001829165419847927683_);}
	.st28{fill:url(#SVGID_00000146489958841544496330000005544954467863575204_);}
	.st29{fill:url(#SVGID_00000071538045386910501420000016985085858711453849_);}
	.st30{fill:url(#SVGID_00000166668425979970134430000000435444875956076443_);}
	.st31{fill:url(#SVGID_00000067951366677870935090000003149170841505376432_);}
	.st32{fill:url(#SVGID_00000017475700313839324580000014004961688785089926_);}
	.st33{fill:url(#SVGID_00000011011475181875319110000005342890960052611007_);}
	.st34{fill:url(#SVGID_00000012456029432100103250000017269464298315353232_);}
	.st35{fill:url(#SVGID_00000146493202093019213820000000851364449808833189_);}
	.st36{fill:url(#SVGID_00000082362656813447251120000014733736099032711592_);}
	.st37{fill:url(#SVGID_00000120544866957514369780000006156661187174246807_);}
	.st38{fill:url(#SVGID_00000078763531852533131600000004329004289151156646_);}
	.st39{fill:url(#SVGID_00000006696164860139027400000014633179550166968216_);}
	.st40{fill:url(#SVGID_00000054965126694001251140000009714943585515200401_);}
	.st41{fill:url(#SVGID_00000116952180195357718410000005171038205952900494_);}
	.st42{fill:url(#SVGID_00000029760351114125816540000016545946420153065380_);}
	.st43{fill:url(#SVGID_00000060730165978293518510000008257470291509721995_);}
	.st44{fill:url(#SVGID_00000106832761134464908910000012671279366559038096_);}
	.st45{fill:url(#SVGID_00000137131724620446404830000009574909214074178212_);}
	.st46{fill:url(#SVGID_00000023239242424217431300000018205919777362322585_);}
	.st47{fill:url(#SVGID_00000134238249157902366820000017553664949766364567_);}
	.st48{fill:url(#SVGID_00000182516524944669005460000008950770214333500073_);}
	.st49{fill:url(#SVGID_00000011033086432295860300000005610448776265869201_);}
	.st50{fill:url(#SVGID_00000027595703455570311750000015806789096830838441_);}
	.st51{fill:url(#SVGID_00000155846055071971838850000014163702513117694103_);}
	.st52{fill:url(#SVGID_00000052098293468887435870000003743733989708935860_);}
	.st53{fill:url(#SVGID_00000138573026062371609320000014749055341882386623_);}
	.st54{fill:url(#SVGID_00000178206864141232099200000018280520530198536636_);}
	.st55{fill:url(#SVGID_00000008842821400852213870000009459688415720829337_);}
	.st56{fill:url(#SVGID_00000162337186850041145850000007405313046315257998_);}
	.st57{fill:url(#SVGID_00000058556685644423404960000001801523118275627679_);}
	.st58{fill:url(#SVGID_00000008856033984865828870000009738545178629135548_);}
	.st59{fill:url(#SVGID_00000034067930395659134180000010580984461352708532_);}
	.st60{fill:url(#SVGID_00000023964103637850976060000009052438516376291261_);}
	.st61{fill:url(#SVGID_00000083790539540701538740000001580114921361406614_);}
	.st62{fill:url(#SVGID_00000005953706619811608110000010917297824045133478_);}
	.st63{fill:url(#SVGID_00000090279109170064515370000006263236129413601175_);}
	.st64{fill:url(#SVGID_00000015338114329007263320000003558623907118148256_);}
	.st65{fill:url(#SVGID_00000137100892288509967750000001152012842631718069_);}
	.st66{fill:url(#SVGID_00000151544138506264114820000011364130471197785260_);}
	.st67{fill:url(#SVGID_00000079487556068531474290000017085065336532565643_);}
	.st68{fill:url(#SVGID_00000079447537777615105780000011101748271382603958_);}
	.st69{fill:url(#SVGID_00000000943844841720043310000006176186206694348723_);}
	.st70{fill:url(#SVGID_00000137828270960112530760000013484523353451011753_);}
	.st71{fill:url(#SVGID_00000149345806645291085070000006523516035939700141_);}
	.st72{fill:url(#SVGID_00000040573834107807589980000018372736887809358253_);}
	.st73{fill:url(#SVGID_00000042717060893002825250000015709992317558499761_);}
	.st74{fill:url(#SVGID_00000110433950639158768450000011411285683790604187_);}
	.st75{fill:url(#SVGID_00000089560439385277098650000018294414493336329867_);}
	.st76{fill:url(#SVGID_00000179626149441578670390000007528959048333116094_);}
	.st77{fill:url(#SVGID_00000138567284604751436930000017827363687191990939_);}
	.st78{fill:url(#SVGID_00000040569758719238165960000001511860479117784462_);}
	.st79{fill:url(#SVGID_00000044180165115459643530000005205330160271559095_);}
	.st80{fill:url(#SVGID_00000161592604402739743860000016949318436715569548_);}
	.st81{fill:url(#SVGID_00000052097784702548732100000008928832021196514957_);}
	.st82{fill:url(#SVGID_00000150081030845537711970000003004387195113423016_);}
	.st83{fill:url(#SVGID_00000106856626443976516750000018204525815997009833_);}
	.st84{fill:#DECCAF;}
	.st85{fill:#FFF2DE;}
	.st86{fill:#C7B69D;}
	.st87{fill:#E8DCCA;}
	.st88{opacity:0.1;}
	.st89{fill:#231F20;}
	.st90{fill:#FFF3E0;}
	.st91{fill:#E3D3BB;}
</style>
<g id="_8">
</g>
<g id="_14">
	<g>
		<g>
			<polygon class="st0" points="1572.65,797 1345.91,927.33 1654.95,1105.76 1881.69,975.43 			"/>
			<g>
				<polygon class="st1" points="1654.95,1174.61 1345.5,995.95 1345.5,927.08 1654.95,1105.74 				"/>
			</g>
			<g>
				<polygon class="st2" points="1654.95,1174.61 1882.1,1044.04 1882.1,975.18 1654.95,1105.74 				"/>
			</g>
		</g>
		<g>
			<polygon class="st0" points="1579.28,788 1371.32,907.53 1654.76,1071.18 1862.72,951.64 			"/>
			<g>
				<polygon class="st1" points="1654.76,1094.11 1370.94,930.25 1370.94,907.3 1654.76,1071.16 				"/>
			</g>
			<g>
				<polygon class="st2" points="1654.76,1094.11 1863.1,974.36 1863.1,951.41 1654.76,1071.16 				"/>
			</g>
		</g>
		<g>
			<polygon class="st3" points="1654.76,1009.08 1444.98,887.96 1444.98,730.57 1654.76,851.68 			"/>
			<polygon class="st4" points="1654.76,1009.08 1789.06,932.07 1789.06,774.67 1654.76,851.68 			"/>
		</g>
		<polygon class="st5" points="1496.83,917.94 1496.83,820.38 1602.91,881.62 1602.91,979.19 		"/>
		<g>
			<g>
				<path class="st6" d="M1450.37,921.17c-5.79,3.34-15.18,3.34-20.97,0c-5.79-3.34-5.79-8.76,0-12.11c5.79-3.34,15.18-3.34,20.97,0
					C1456.16,912.4,1456.16,917.83,1450.37,921.17z"/>
				<linearGradient id="SVGID_1_" gradientUnits="userSpaceOnUse" x1="1425.059" y1="921.1274" x2="1454.7158" y2="921.1274">
					<stop  offset="0" style="stop-color:#D1D2D2"/>
					<stop  offset="1" style="stop-color:#929496"/>
				</linearGradient>
				<path class="st7" d="M1450.37,921.17c-5.79,3.34-15.18,3.34-20.97,0c-2.9-1.67-4.34-3.86-4.34-6.05v3.46
					c0,2.19,1.45,4.38,4.34,6.05c5.79,3.34,15.18,3.34,20.97,0c2.9-1.67,4.34-3.86,4.34-6.05v-3.46
					C1454.72,917.31,1453.27,919.5,1450.37,921.17z"/>
				
					<linearGradient id="SVGID_00000173849553565089039400000010868436418055507336_" gradientUnits="userSpaceOnUse" x1="1426.8774" y1="817.8882" x2="1452.8973" y2="817.8882">
					<stop  offset="0" style="stop-color:#FFEED2"/>
					<stop  offset="1" style="stop-color:#D1C4AD"/>
				</linearGradient>
				<path style="fill:url(#SVGID_00000173849553565089039400000010868436418055507336_);" d="M1449.09,719.93
					c-5.08,2.93-13.32,2.93-18.4,0c-2.54-1.47-3.81-3.39-3.81-5.31v199.03c0,1.92,1.27,3.84,3.81,5.31c5.08,2.93,13.32,2.93,18.4,0
					c2.54-1.47,3.81-3.39,3.81-5.31V714.62C1452.9,716.54,1451.63,718.46,1449.09,719.93z"/>
				<path class="st6" d="M1450.37,718.47c-5.79,3.34-15.18,3.34-20.97,0c-5.79-3.34-5.79-8.76,0-12.11c5.79-3.34,15.18-3.34,20.97,0
					C1456.16,709.71,1456.16,715.13,1450.37,718.47z"/>
				<g>
					<g>
						
							<linearGradient id="SVGID_00000026870270780793562480000013649898790545699255_" gradientUnits="userSpaceOnUse" x1="1450.5782" y1="818.8878" x2="1427.468" y2="818.8878">
							<stop  offset="0" style="stop-color:#AA9F8D"/>
							<stop  offset="1" style="stop-color:#D8C9B2"/>
						</linearGradient>
						
							<rect x="1429.38" y="719.37" style="fill:url(#SVGID_00000026870270780793562480000013649898790545699255_);" width="0.41" height="199.03"/>
					</g>
					<g>
						
							<linearGradient id="SVGID_00000005252740352786063690000015693659656701978509_" gradientUnits="userSpaceOnUse" x1="1450.5771" y1="820.4169" x2="1427.4669" y2="820.4169">
							<stop  offset="0" style="stop-color:#AA9F8D"/>
							<stop  offset="1" style="stop-color:#D8C9B2"/>
						</linearGradient>
						
							<rect x="1432.32" y="720.91" style="fill:url(#SVGID_00000005252740352786063690000015693659656701978509_);" width="0.41" height="199.02"/>
					</g>
					<g>
						
							<linearGradient id="SVGID_00000020360195054570896410000016769145394926225335_" gradientUnits="userSpaceOnUse" x1="1450.5763" y1="821.2476" x2="1427.4661" y2="821.2476">
							<stop  offset="0" style="stop-color:#AA9F8D"/>
							<stop  offset="1" style="stop-color:#D8C9B2"/>
						</linearGradient>
						
							<rect x="1435.27" y="721.74" style="fill:url(#SVGID_00000020360195054570896410000016769145394926225335_);" width="0.41" height="199.02"/>
					</g>
					<g>
						
							<linearGradient id="SVGID_00000017511278665341826220000006229515104886475196_" gradientUnits="userSpaceOnUse" x1="1450.5656" y1="821.6122" x2="1427.4739" y2="821.6122">
							<stop  offset="0" style="stop-color:#AA9F8D"/>
							<stop  offset="1" style="stop-color:#D8C9B2"/>
						</linearGradient>
						
							<rect x="1438.21" y="722.1" style="fill:url(#SVGID_00000017511278665341826220000006229515104886475196_);" width="0.41" height="199.03"/>
					</g>
					<g>
						
							<linearGradient id="SVGID_00000013172838092071536710000001651891555448264380_" gradientUnits="userSpaceOnUse" x1="1450.5669" y1="821.5798" x2="1427.4751" y2="821.5798">
							<stop  offset="0" style="stop-color:#AA9F8D"/>
							<stop  offset="1" style="stop-color:#D8C9B2"/>
						</linearGradient>
						
							<rect x="1441.15" y="722.07" style="fill:url(#SVGID_00000013172838092071536710000001651891555448264380_);" width="0.41" height="199.03"/>
					</g>
					<g>
						
							<linearGradient id="SVGID_00000026879939404591580320000000366212768041129361_" gradientUnits="userSpaceOnUse" x1="1450.5732" y1="821.1481" x2="1427.463" y2="821.1481">
							<stop  offset="0" style="stop-color:#AA9F8D"/>
							<stop  offset="1" style="stop-color:#D8C9B2"/>
						</linearGradient>
						
							<rect x="1444.1" y="721.63" style="fill:url(#SVGID_00000026879939404591580320000000366212768041129361_);" width="0.41" height="199.03"/>
					</g>
					<g>
						
							<linearGradient id="SVGID_00000104663985349120845140000002280054137660983714_" gradientUnits="userSpaceOnUse" x1="1450.5687" y1="820.2339" x2="1427.4813" y2="820.2339">
							<stop  offset="0" style="stop-color:#AA9F8D"/>
							<stop  offset="1" style="stop-color:#D8C9B2"/>
						</linearGradient>
						
							<rect x="1447.04" y="720.72" style="fill:url(#SVGID_00000104663985349120845140000002280054137660983714_);" width="0.41" height="199.02"/>
					</g>
					<g>
						
							<linearGradient id="SVGID_00000108304173136093587830000006947234542906712510_" gradientUnits="userSpaceOnUse" x1="1450.5707" y1="818.5357" x2="1427.4974" y2="818.5357">
							<stop  offset="0" style="stop-color:#AA9F8D"/>
							<stop  offset="1" style="stop-color:#D8C9B2"/>
						</linearGradient>
						
							<rect x="1449.99" y="719.02" style="fill:url(#SVGID_00000108304173136093587830000006947234542906712510_);" width="0.41" height="199.02"/>
					</g>
				</g>
				
					<linearGradient id="SVGID_00000128448268292910121300000002204293779560721069_" gradientUnits="userSpaceOnUse" x1="1425.059" y1="718.4297" x2="1454.7158" y2="718.4297">
					<stop  offset="0" style="stop-color:#D1D2D2"/>
					<stop  offset="1" style="stop-color:#929496"/>
				</linearGradient>
				<path style="fill:url(#SVGID_00000128448268292910121300000002204293779560721069_);" d="M1450.37,718.47
					c-5.79,3.34-15.18,3.34-20.97,0c-2.9-1.67-4.34-3.86-4.34-6.05v3.46c0,2.19,1.45,4.38,4.34,6.05c5.79,3.34,15.18,3.34,20.97,0
					c2.9-1.67,4.34-3.86,4.34-6.05v-3.46C1454.72,714.61,1453.27,716.8,1450.37,718.47z"/>
			</g>
			<g>
				<path class="st6" d="M1501.26,950.24c-5.79,3.34-15.18,3.34-20.97,0c-5.79-3.34-5.79-8.76,0-12.11c5.79-3.34,15.18-3.34,20.97,0
					C1507.05,941.48,1507.05,946.9,1501.26,950.24z"/>
				
					<linearGradient id="SVGID_00000073696998236158206360000010371386443267191984_" gradientUnits="userSpaceOnUse" x1="1475.9454" y1="950.2028" x2="1505.6021" y2="950.2028">
					<stop  offset="0" style="stop-color:#D1D2D2"/>
					<stop  offset="1" style="stop-color:#929496"/>
				</linearGradient>
				<path style="fill:url(#SVGID_00000073696998236158206360000010371386443267191984_);" d="M1501.26,950.24
					c-5.79,3.34-15.18,3.34-20.97,0c-2.9-1.67-4.34-3.86-4.34-6.05v3.46c0,2.19,1.45,4.38,4.34,6.05c5.79,3.34,15.18,3.34,20.97,0
					c2.9-1.67,4.34-3.86,4.34-6.05v-3.46C1505.6,946.38,1504.15,948.57,1501.26,950.24z"/>
				
					<linearGradient id="SVGID_00000110473215602152683290000001877778780356589471_" gradientUnits="userSpaceOnUse" x1="1477.7637" y1="846.9637" x2="1503.7836" y2="846.9637">
					<stop  offset="0" style="stop-color:#FFEED2"/>
					<stop  offset="1" style="stop-color:#D1C4AD"/>
				</linearGradient>
				<path style="fill:url(#SVGID_00000110473215602152683290000001877778780356589471_);" d="M1499.97,749.01
					c-5.08,2.93-13.32,2.93-18.4,0c-2.54-1.47-3.81-3.39-3.81-5.31v199.03c0,1.92,1.27,3.84,3.81,5.31c5.08,2.93,13.32,2.93,18.4,0
					c2.54-1.47,3.81-3.39,3.81-5.31V743.7C1503.78,745.62,1502.51,747.54,1499.97,749.01z"/>
				<path class="st6" d="M1501.26,747.55c-5.79,3.34-15.18,3.34-20.97,0c-5.79-3.34-5.79-8.76,0-12.11c5.79-3.34,15.18-3.34,20.97,0
					C1507.05,738.78,1507.05,744.2,1501.26,747.55z"/>
				<g>
					<g>
						
							<linearGradient id="SVGID_00000141436318733189935510000003181174617428032155_" gradientUnits="userSpaceOnUse" x1="1501.4647" y1="847.9634" x2="1478.3545" y2="847.9634">
							<stop  offset="0" style="stop-color:#AA9F8D"/>
							<stop  offset="1" style="stop-color:#D8C9B2"/>
						</linearGradient>
						
							<rect x="1480.27" y="748.45" style="fill:url(#SVGID_00000141436318733189935510000003181174617428032155_);" width="0.41" height="199.03"/>
					</g>
					<g>
						
							<linearGradient id="SVGID_00000042017967401262339730000017458411870729209782_" gradientUnits="userSpaceOnUse" x1="1501.4633" y1="849.4926" x2="1478.353" y2="849.4926">
							<stop  offset="0" style="stop-color:#AA9F8D"/>
							<stop  offset="1" style="stop-color:#D8C9B2"/>
						</linearGradient>
						
							<rect x="1483.21" y="749.98" style="fill:url(#SVGID_00000042017967401262339730000017458411870729209782_);" width="0.41" height="199.02"/>
					</g>
					<g>
						
							<linearGradient id="SVGID_00000098192698222462449210000012109182279284559282_" gradientUnits="userSpaceOnUse" x1="1501.4628" y1="850.3231" x2="1478.3525" y2="850.3231">
							<stop  offset="0" style="stop-color:#AA9F8D"/>
							<stop  offset="1" style="stop-color:#D8C9B2"/>
						</linearGradient>
						
							<rect x="1486.16" y="750.81" style="fill:url(#SVGID_00000098192698222462449210000012109182279284559282_);" width="0.41" height="199.02"/>
					</g>
					<g>
						
							<linearGradient id="SVGID_00000098211851173111057050000014376931637574979733_" gradientUnits="userSpaceOnUse" x1="1501.4617" y1="850.6877" x2="1478.3514" y2="850.6877">
							<stop  offset="0" style="stop-color:#AA9F8D"/>
							<stop  offset="1" style="stop-color:#D8C9B2"/>
						</linearGradient>
						
							<rect x="1489.1" y="751.17" style="fill:url(#SVGID_00000098211851173111057050000014376931637574979733_);" width="0.41" height="199.03"/>
					</g>
					<g>
						
							<linearGradient id="SVGID_00000065047908389007572870000009510979270753899940_" gradientUnits="userSpaceOnUse" x1="1501.4606" y1="850.6553" x2="1478.3503" y2="850.6553">
							<stop  offset="0" style="stop-color:#AA9F8D"/>
							<stop  offset="1" style="stop-color:#D8C9B2"/>
						</linearGradient>
						
							<rect x="1492.04" y="751.14" style="fill:url(#SVGID_00000065047908389007572870000009510979270753899940_);" width="0.41" height="199.03"/>
					</g>
					<g>
						
							<linearGradient id="SVGID_00000036222300055308892770000006448991015426210987_" gradientUnits="userSpaceOnUse" x1="1501.4594" y1="850.2236" x2="1478.3491" y2="850.2236">
							<stop  offset="0" style="stop-color:#AA9F8D"/>
							<stop  offset="1" style="stop-color:#D8C9B2"/>
						</linearGradient>
						
							<rect x="1494.98" y="750.71" style="fill:url(#SVGID_00000036222300055308892770000006448991015426210987_);" width="0.41" height="199.03"/>
					</g>
					<g>
						
							<linearGradient id="SVGID_00000094603282704440487350000007947463513591058579_" gradientUnits="userSpaceOnUse" x1="1501.4558" y1="849.3096" x2="1478.364" y2="849.3096">
							<stop  offset="0" style="stop-color:#AA9F8D"/>
							<stop  offset="1" style="stop-color:#D8C9B2"/>
						</linearGradient>
						
							<rect x="1497.93" y="749.8" style="fill:url(#SVGID_00000094603282704440487350000007947463513591058579_);" width="0.41" height="199.02"/>
					</g>
					<g>
						
							<linearGradient id="SVGID_00000080186623627406548400000017693160477656418476_" gradientUnits="userSpaceOnUse" x1="1501.4573" y1="847.6112" x2="1478.3656" y2="847.6112">
							<stop  offset="0" style="stop-color:#AA9F8D"/>
							<stop  offset="1" style="stop-color:#D8C9B2"/>
						</linearGradient>
						
							<rect x="1500.87" y="748.1" style="fill:url(#SVGID_00000080186623627406548400000017693160477656418476_);" width="0.41" height="199.02"/>
					</g>
				</g>
				
					<linearGradient id="SVGID_00000160904894183589565690000015743465778680011684_" gradientUnits="userSpaceOnUse" x1="1475.9454" y1="747.5052" x2="1505.6021" y2="747.5052">
					<stop  offset="0" style="stop-color:#D1D2D2"/>
					<stop  offset="1" style="stop-color:#929496"/>
				</linearGradient>
				<path style="fill:url(#SVGID_00000160904894183589565690000015743465778680011684_);" d="M1501.26,747.55
					c-5.79,3.34-15.18,3.34-20.97,0c-2.9-1.67-4.34-3.86-4.34-6.05v3.46c0,2.19,1.45,4.38,4.34,6.05c5.79,3.34,15.18,3.34,20.97,0
					c2.9-1.67,4.34-3.86,4.34-6.05v-3.46C1505.6,743.68,1504.15,745.88,1501.26,747.55z"/>
			</g>
			<g>
				<path class="st6" d="M1552.15,979.67c-5.79,3.34-15.18,3.34-20.97,0c-5.79-3.34-5.79-8.76,0-12.11c5.79-3.34,15.18-3.34,20.97,0
					C1557.94,970.9,1557.94,976.32,1552.15,979.67z"/>
				
					<linearGradient id="SVGID_00000101800175083043655130000015064494663054007681_" gradientUnits="userSpaceOnUse" x1="1526.8317" y1="979.6244" x2="1556.4882" y2="979.6244">
					<stop  offset="0" style="stop-color:#D1D2D2"/>
					<stop  offset="1" style="stop-color:#929496"/>
				</linearGradient>
				<path style="fill:url(#SVGID_00000101800175083043655130000015064494663054007681_);" d="M1552.15,979.67
					c-5.79,3.34-15.18,3.34-20.97,0c-2.9-1.67-4.34-3.86-4.34-6.05v3.46c0,2.19,1.45,4.38,4.34,6.05c5.79,3.34,15.18,3.34,20.97,0
					c2.9-1.67,4.34-3.86,4.34-6.05v-3.46C1556.49,975.8,1555.04,977.99,1552.15,979.67z"/>
				
					<linearGradient id="SVGID_00000043418143256452825450000017492004566794189483_" gradientUnits="userSpaceOnUse" x1="1528.6501" y1="876.3852" x2="1554.67" y2="876.3852">
					<stop  offset="0" style="stop-color:#FFEED2"/>
					<stop  offset="1" style="stop-color:#D1C4AD"/>
				</linearGradient>
				<path style="fill:url(#SVGID_00000043418143256452825450000017492004566794189483_);" d="M1550.86,778.43
					c-5.08,2.93-13.32,2.93-18.4,0c-2.54-1.47-3.81-3.39-3.81-5.31v199.03c0,1.92,1.27,3.84,3.81,5.31c5.08,2.93,13.32,2.93,18.4,0
					c2.54-1.47,3.81-3.39,3.81-5.31V773.12C1554.67,775.04,1553.4,776.96,1550.86,778.43z"/>
				<path class="st6" d="M1552.15,776.97c-5.79,3.34-15.18,3.34-20.97,0c-5.79-3.34-5.79-8.76,0-12.11c5.79-3.34,15.18-3.34,20.97,0
					C1557.94,768.2,1557.94,773.63,1552.15,776.97z"/>
				<g>
					<g>
						
							<linearGradient id="SVGID_00000151538441595858866010000012901070448990329264_" gradientUnits="userSpaceOnUse" x1="1552.3508" y1="877.3848" x2="1529.2406" y2="877.3848">
							<stop  offset="0" style="stop-color:#AA9F8D"/>
							<stop  offset="1" style="stop-color:#D8C9B2"/>
						</linearGradient>
						
							<rect x="1531.15" y="777.87" style="fill:url(#SVGID_00000151538441595858866010000012901070448990329264_);" width="0.41" height="199.03"/>
					</g>
					<g>
						
							<linearGradient id="SVGID_00000096025141766747824330000003199962048954189188_" gradientUnits="userSpaceOnUse" x1="1552.3497" y1="878.9139" x2="1529.2395" y2="878.9139">
							<stop  offset="0" style="stop-color:#AA9F8D"/>
							<stop  offset="1" style="stop-color:#D8C9B2"/>
						</linearGradient>
						
							<rect x="1534.1" y="779.4" style="fill:url(#SVGID_00000096025141766747824330000003199962048954189188_);" width="0.41" height="199.02"/>
					</g>
					<g>
						
							<linearGradient id="SVGID_00000145774497264840452950000004782533649946596519_" gradientUnits="userSpaceOnUse" x1="1552.3489" y1="879.7447" x2="1529.2386" y2="879.7447">
							<stop  offset="0" style="stop-color:#AA9F8D"/>
							<stop  offset="1" style="stop-color:#D8C9B2"/>
						</linearGradient>
						
							<rect x="1537.04" y="780.23" style="fill:url(#SVGID_00000145774497264840452950000004782533649946596519_);" width="0.41" height="199.02"/>
					</g>
					<g>
						
							<linearGradient id="SVGID_00000000912667596479046030000004915932962407295385_" gradientUnits="userSpaceOnUse" x1="1552.3383" y1="880.1093" x2="1529.2465" y2="880.1093">
							<stop  offset="0" style="stop-color:#AA9F8D"/>
							<stop  offset="1" style="stop-color:#D8C9B2"/>
						</linearGradient>
						
							<rect x="1539.99" y="780.6" style="fill:url(#SVGID_00000000912667596479046030000004915932962407295385_);" width="0.41" height="199.03"/>
					</g>
					<g>
						
							<linearGradient id="SVGID_00000028303802565197916010000011326406182355116706_" gradientUnits="userSpaceOnUse" x1="1552.3395" y1="880.0768" x2="1529.2478" y2="880.0768">
							<stop  offset="0" style="stop-color:#AA9F8D"/>
							<stop  offset="1" style="stop-color:#D8C9B2"/>
						</linearGradient>
						
							<rect x="1542.93" y="780.56" style="fill:url(#SVGID_00000028303802565197916010000011326406182355116706_);" width="0.41" height="199.03"/>
					</g>
					<g>
						
							<linearGradient id="SVGID_00000030454521821583847900000008690166638278678921_" gradientUnits="userSpaceOnUse" x1="1552.3407" y1="879.6451" x2="1529.249" y2="879.6451">
							<stop  offset="0" style="stop-color:#AA9F8D"/>
							<stop  offset="1" style="stop-color:#D8C9B2"/>
						</linearGradient>
						
							<rect x="1545.87" y="780.13" style="fill:url(#SVGID_00000030454521821583847900000008690166638278678921_);" width="0.41" height="199.03"/>
					</g>
					<g>
						
							<linearGradient id="SVGID_00000139997920360779796220000002967035784097953967_" gradientUnits="userSpaceOnUse" x1="1552.3419" y1="878.731" x2="1529.2502" y2="878.731">
							<stop  offset="0" style="stop-color:#AA9F8D"/>
							<stop  offset="1" style="stop-color:#D8C9B2"/>
						</linearGradient>
						
							<rect x="1548.81" y="779.22" style="fill:url(#SVGID_00000139997920360779796220000002967035784097953967_);" width="0.41" height="199.02"/>
					</g>
					<g>
						
							<linearGradient id="SVGID_00000052088435774800966940000004013589074028497553_" gradientUnits="userSpaceOnUse" x1="1552.3435" y1="877.0326" x2="1529.2517" y2="877.0326">
							<stop  offset="0" style="stop-color:#AA9F8D"/>
							<stop  offset="1" style="stop-color:#D8C9B2"/>
						</linearGradient>
						
							<rect x="1551.76" y="777.52" style="fill:url(#SVGID_00000052088435774800966940000004013589074028497553_);" width="0.41" height="199.02"/>
					</g>
				</g>
				
					<linearGradient id="SVGID_00000041986203596743360130000001236325006276095361_" gradientUnits="userSpaceOnUse" x1="1526.8317" y1="776.9268" x2="1556.4882" y2="776.9268">
					<stop  offset="0" style="stop-color:#D1D2D2"/>
					<stop  offset="1" style="stop-color:#929496"/>
				</linearGradient>
				<path style="fill:url(#SVGID_00000041986203596743360130000001236325006276095361_);" d="M1552.15,776.97
					c-5.79,3.34-15.18,3.34-20.97,0c-2.9-1.67-4.34-3.86-4.34-6.05v3.46c0,2.19,1.45,4.38,4.34,6.05c5.79,3.34,15.18,3.34,20.97,0
					c2.9-1.67,4.34-3.86,4.34-6.05v-3.46C1556.49,773.11,1555.04,775.3,1552.15,776.97z"/>
			</g>
			<g>
				<path class="st6" d="M1603.03,1008.8c-5.79,3.34-15.18,3.34-20.97,0c-5.79-3.34-5.79-8.76,0-12.11c5.79-3.34,15.18-3.34,20.97,0
					C1608.82,1000.03,1608.82,1005.46,1603.03,1008.8z"/>
				
					<linearGradient id="SVGID_00000118377360460193249950000009145448492149713561_" gradientUnits="userSpaceOnUse" x1="1577.7181" y1="1008.7568" x2="1607.3748" y2="1008.7568">
					<stop  offset="0" style="stop-color:#D1D2D2"/>
					<stop  offset="1" style="stop-color:#929496"/>
				</linearGradient>
				<path style="fill:url(#SVGID_00000118377360460193249950000009145448492149713561_);" d="M1603.03,1008.8
					c-5.79,3.34-15.18,3.34-20.97,0c-2.9-1.67-4.34-3.86-4.34-6.05v3.46c0,2.19,1.45,4.38,4.34,6.05c5.79,3.34,15.18,3.34,20.97,0
					c2.9-1.67,4.34-3.86,4.34-6.05v-3.46C1607.37,1004.94,1605.93,1007.13,1603.03,1008.8z"/>
				
					<linearGradient id="SVGID_00000038370749864656283160000001976969238496725675_" gradientUnits="userSpaceOnUse" x1="1579.5364" y1="905.5176" x2="1605.5562" y2="905.5176">
					<stop  offset="0" style="stop-color:#FFEED2"/>
					<stop  offset="1" style="stop-color:#D1C4AD"/>
				</linearGradient>
				<path style="fill:url(#SVGID_00000038370749864656283160000001976969238496725675_);" d="M1601.75,807.56
					c-5.08,2.93-13.32,2.93-18.4,0c-2.54-1.47-3.81-3.39-3.81-5.31v199.03c0,1.92,1.27,3.84,3.81,5.31c5.08,2.93,13.32,2.93,18.4,0
					c2.54-1.47,3.81-3.39,3.81-5.31V802.25C1605.56,804.17,1604.29,806.09,1601.75,807.56z"/>
				<path class="st6" d="M1603.03,806.1c-5.79,3.34-15.18,3.34-20.97,0c-5.79-3.34-5.79-8.76,0-12.11c5.79-3.34,15.18-3.34,20.97,0
					C1608.82,797.34,1608.82,802.76,1603.03,806.1z"/>
				<g>
					<g>
						
							<linearGradient id="SVGID_00000067231447261194400140000009507453572708970426_" gradientUnits="userSpaceOnUse" x1="1603.2205" y1="906.5173" x2="1580.1287" y2="906.5173">
							<stop  offset="0" style="stop-color:#AA9F8D"/>
							<stop  offset="1" style="stop-color:#D8C9B2"/>
						</linearGradient>
						
							<rect x="1582.04" y="807" style="fill:url(#SVGID_00000067231447261194400140000009507453572708970426_);" width="0.41" height="199.03"/>
					</g>
					<g>
						
							<linearGradient id="SVGID_00000091007953027500112420000015612169150543705501_" gradientUnits="userSpaceOnUse" x1="1603.236" y1="908.0463" x2="1580.1257" y2="908.0463">
							<stop  offset="0" style="stop-color:#AA9F8D"/>
							<stop  offset="1" style="stop-color:#D8C9B2"/>
						</linearGradient>
						
							<rect x="1584.98" y="808.54" style="fill:url(#SVGID_00000091007953027500112420000015612169150543705501_);" width="0.41" height="199.02"/>
					</g>
					<g>
						
							<linearGradient id="SVGID_00000046341631990736957820000015345989708320561293_" gradientUnits="userSpaceOnUse" x1="1603.2351" y1="908.877" x2="1580.1249" y2="908.877">
							<stop  offset="0" style="stop-color:#AA9F8D"/>
							<stop  offset="1" style="stop-color:#D8C9B2"/>
						</linearGradient>
						
							<rect x="1587.93" y="809.37" style="fill:url(#SVGID_00000046341631990736957820000015345989708320561293_);" width="0.41" height="199.02"/>
					</g>
					<g>
						
							<linearGradient id="SVGID_00000031169081837152195720000003993460339841244307_" gradientUnits="userSpaceOnUse" x1="1603.2343" y1="909.2416" x2="1580.124" y2="909.2416">
							<stop  offset="0" style="stop-color:#AA9F8D"/>
							<stop  offset="1" style="stop-color:#D8C9B2"/>
						</linearGradient>
						
							<rect x="1590.87" y="809.73" style="fill:url(#SVGID_00000031169081837152195720000003993460339841244307_);" width="0.41" height="199.03"/>
					</g>
					<g>
						
							<linearGradient id="SVGID_00000040576331422877698260000016446814492898186374_" gradientUnits="userSpaceOnUse" x1="1603.2257" y1="909.2092" x2="1580.134" y2="909.2092">
							<stop  offset="0" style="stop-color:#AA9F8D"/>
							<stop  offset="1" style="stop-color:#D8C9B2"/>
						</linearGradient>
						
							<rect x="1593.81" y="809.7" style="fill:url(#SVGID_00000040576331422877698260000016446814492898186374_);" width="0.41" height="199.03"/>
					</g>
					<g>
						
							<linearGradient id="SVGID_00000096766792980700523600000005375000312900515737_" gradientUnits="userSpaceOnUse" x1="1603.2333" y1="908.7775" x2="1580.1185" y2="908.7775">
							<stop  offset="0" style="stop-color:#AA9F8D"/>
							<stop  offset="1" style="stop-color:#D8C9B2"/>
						</linearGradient>
						
							<rect x="1596.76" y="809.26" style="fill:url(#SVGID_00000096766792980700523600000005375000312900515737_);" width="0.41" height="199.03"/>
					</g>
					<g>
						
							<linearGradient id="SVGID_00000101781599044492090550000004815884252269863826_" gradientUnits="userSpaceOnUse" x1="1603.2256" y1="907.8633" x2="1580.1525" y2="907.8633">
							<stop  offset="0" style="stop-color:#AA9F8D"/>
							<stop  offset="1" style="stop-color:#D8C9B2"/>
						</linearGradient>
						
							<rect x="1599.7" y="808.35" style="fill:url(#SVGID_00000101781599044492090550000004815884252269863826_);" width="0.41" height="199.02"/>
					</g>
					<g>
						
							<linearGradient id="SVGID_00000009585496401478918960000017138844285948272004_" gradientUnits="userSpaceOnUse" x1="1603.2301" y1="906.1651" x2="1580.1338" y2="906.1651">
							<stop  offset="0" style="stop-color:#AA9F8D"/>
							<stop  offset="1" style="stop-color:#D8C9B2"/>
						</linearGradient>
						
							<rect x="1602.65" y="806.65" style="fill:url(#SVGID_00000009585496401478918960000017138844285948272004_);" width="0.41" height="199.02"/>
					</g>
				</g>
				
					<linearGradient id="SVGID_00000092422774864837932590000002859350555012295592_" gradientUnits="userSpaceOnUse" x1="1577.7181" y1="806.0591" x2="1607.3748" y2="806.0591">
					<stop  offset="0" style="stop-color:#D1D2D2"/>
					<stop  offset="1" style="stop-color:#929496"/>
				</linearGradient>
				<path style="fill:url(#SVGID_00000092422774864837932590000002859350555012295592_);" d="M1603.03,806.1
					c-5.79,3.34-15.18,3.34-20.97,0c-2.9-1.67-4.34-3.86-4.34-6.05v3.46c0,2.19,1.45,4.38,4.34,6.05c5.79,3.34,15.18,3.34,20.97,0
					c2.9-1.67,4.34-3.86,4.34-6.05v-3.46C1607.37,802.24,1605.93,804.43,1603.03,806.1z"/>
			</g>
			<g>
				<path class="st6" d="M1789.26,962.43c5.79,3.34,15.18,3.34,20.97,0c5.79-3.34,5.79-8.76,0-12.11c-5.79-3.34-15.18-3.34-20.97,0
					C1783.47,953.67,1783.47,959.09,1789.26,962.43z"/>
				
					<linearGradient id="SVGID_00000114757986994744672750000015244873039800576141_" gradientUnits="userSpaceOnUse" x1="1864.8679" y1="962.3913" x2="1894.5244" y2="962.3913" gradientTransform="matrix(-1 0 0 1 3679.4407 0)">
					<stop  offset="0" style="stop-color:#D1D2D2"/>
					<stop  offset="1" style="stop-color:#929496"/>
				</linearGradient>
				<path style="fill:url(#SVGID_00000114757986994744672750000015244873039800576141_);" d="M1789.26,962.43
					c5.79,3.34,15.18,3.34,20.97,0c2.9-1.67,4.34-3.86,4.34-6.05v3.46c0,2.19-1.45,4.38-4.34,6.05c-5.79,3.34-15.18,3.34-20.97,0
					c-2.9-1.67-4.34-3.86-4.34-6.05v-3.46C1784.92,958.57,1786.36,960.76,1789.26,962.43z"/>
				
					<linearGradient id="SVGID_00000056402228161911442750000001428189578593769088_" gradientUnits="userSpaceOnUse" x1="1866.686" y1="859.1522" x2="1892.7059" y2="859.1522" gradientTransform="matrix(-1 0 0 1 3679.4407 0)">
					<stop  offset="0" style="stop-color:#FFEED2"/>
					<stop  offset="1" style="stop-color:#D1C4AD"/>
				</linearGradient>
				<path style="fill:url(#SVGID_00000056402228161911442750000001428189578593769088_);" d="M1790.55,761.19
					c5.08,2.93,13.32,2.93,18.4,0c2.54-1.47,3.81-3.39,3.81-5.31v199.03c0,1.92-1.27,3.84-3.81,5.31c-5.08,2.93-13.32,2.93-18.4,0
					c-2.54-1.47-3.81-3.39-3.81-5.31V755.88C1786.73,757.81,1788.01,759.73,1790.55,761.19z"/>
				<path class="st6" d="M1789.26,759.74c5.79,3.34,15.18,3.34,20.97,0c5.79-3.34,5.79-8.76,0-12.11c-5.79-3.34-15.18-3.34-20.97,0
					C1783.47,750.97,1783.47,756.39,1789.26,759.74z"/>
				<g>
					<g>
						
							<linearGradient id="SVGID_00000006694091681907129620000012413481828156791190_" gradientUnits="userSpaceOnUse" x1="1890.3701" y1="860.1518" x2="1867.2784" y2="860.1518" gradientTransform="matrix(-1 0 0 1 3679.4407 0)">
							<stop  offset="0" style="stop-color:#AA9F8D"/>
							<stop  offset="1" style="stop-color:#D8C9B2"/>
						</linearGradient>
						
							<rect x="1809.84" y="760.64" style="fill:url(#SVGID_00000006694091681907129620000012413481828156791190_);" width="0.41" height="199.03"/>
					</g>
					<g>
						
							<linearGradient id="SVGID_00000138564489036855023390000010576604270277558914_" gradientUnits="userSpaceOnUse" x1="1890.3857" y1="861.6809" x2="1867.2755" y2="861.6809" gradientTransform="matrix(-1 0 0 1 3679.4407 0)">
							<stop  offset="0" style="stop-color:#AA9F8D"/>
							<stop  offset="1" style="stop-color:#D8C9B2"/>
						</linearGradient>
						
							<rect x="1806.9" y="762.17" style="fill:url(#SVGID_00000138564489036855023390000010576604270277558914_);" width="0.41" height="199.02"/>
					</g>
					<g>
						
							<linearGradient id="SVGID_00000016760000491757904680000002184204896039133312_" gradientUnits="userSpaceOnUse" x1="1890.3849" y1="862.5115" x2="1867.2747" y2="862.5115" gradientTransform="matrix(-1 0 0 1 3679.4407 0)">
							<stop  offset="0" style="stop-color:#AA9F8D"/>
							<stop  offset="1" style="stop-color:#D8C9B2"/>
						</linearGradient>
						
							<rect x="1803.96" y="763" style="fill:url(#SVGID_00000016760000491757904680000002184204896039133312_);" width="0.41" height="199.02"/>
					</g>
					<g>
						
							<linearGradient id="SVGID_00000011028619759939407300000006864572040694875787_" gradientUnits="userSpaceOnUse" x1="1890.384" y1="862.8761" x2="1867.2738" y2="862.8761" gradientTransform="matrix(-1 0 0 1 3679.4407 0)">
							<stop  offset="0" style="stop-color:#AA9F8D"/>
							<stop  offset="1" style="stop-color:#D8C9B2"/>
						</linearGradient>
						
							<rect x="1801.01" y="763.36" style="fill:url(#SVGID_00000011028619759939407300000006864572040694875787_);" width="0.41" height="199.03"/>
					</g>
					<g>
						
							<linearGradient id="SVGID_00000092422034924765315090000001368956394558916252_" gradientUnits="userSpaceOnUse" x1="1890.3755" y1="862.8436" x2="1867.2837" y2="862.8436" gradientTransform="matrix(-1 0 0 1 3679.4407 0)">
							<stop  offset="0" style="stop-color:#AA9F8D"/>
							<stop  offset="1" style="stop-color:#D8C9B2"/>
						</linearGradient>
						
							<rect x="1798.07" y="763.33" style="fill:url(#SVGID_00000092422034924765315090000001368956394558916252_);" width="0.41" height="199.03"/>
					</g>
					<g>
						
							<linearGradient id="SVGID_00000040567259444542407070000002345137764099162796_" gradientUnits="userSpaceOnUse" x1="1890.3818" y1="862.4119" x2="1867.2716" y2="862.4119" gradientTransform="matrix(-1 0 0 1 3679.4407 0)">
							<stop  offset="0" style="stop-color:#AA9F8D"/>
							<stop  offset="1" style="stop-color:#D8C9B2"/>
						</linearGradient>
						
							<rect x="1795.13" y="762.9" style="fill:url(#SVGID_00000040567259444542407070000002345137764099162796_);" width="0.41" height="199.03"/>
					</g>
					<g>
						
							<linearGradient id="SVGID_00000065065015863854550940000005276754570826846593_" gradientUnits="userSpaceOnUse" x1="1890.3754" y1="861.4979" x2="1867.3021" y2="861.4979" gradientTransform="matrix(-1 0 0 1 3679.4407 0)">
							<stop  offset="0" style="stop-color:#AA9F8D"/>
							<stop  offset="1" style="stop-color:#D8C9B2"/>
						</linearGradient>
						
							<rect x="1792.18" y="761.99" style="fill:url(#SVGID_00000065065015863854550940000005276754570826846593_);" width="0.41" height="199.02"/>
					</g>
					<g>
						
							<linearGradient id="SVGID_00000159430741241135480620000005199002491955568805_" gradientUnits="userSpaceOnUse" x1="1890.3798" y1="859.7996" x2="1867.288" y2="859.7996" gradientTransform="matrix(-1 0 0 1 3679.4407 0)">
							<stop  offset="0" style="stop-color:#AA9F8D"/>
							<stop  offset="1" style="stop-color:#D8C9B2"/>
						</linearGradient>
						
							<rect x="1789.24" y="760.29" style="fill:url(#SVGID_00000159430741241135480620000005199002491955568805_);" width="0.41" height="199.02"/>
					</g>
				</g>
				
					<linearGradient id="SVGID_00000164516071984336596660000004420843005186527873_" gradientUnits="userSpaceOnUse" x1="1864.8679" y1="759.6935" x2="1894.5244" y2="759.6935" gradientTransform="matrix(-1 0 0 1 3679.4407 0)">
					<stop  offset="0" style="stop-color:#D1D2D2"/>
					<stop  offset="1" style="stop-color:#929496"/>
				</linearGradient>
				<path style="fill:url(#SVGID_00000164516071984336596660000004420843005186527873_);" d="M1789.26,759.74
					c5.79,3.34,15.18,3.34,20.97,0c2.9-1.67,4.34-3.86,4.34-6.05v3.46c0,2.19-1.45,4.38-4.34,6.05c-5.79,3.34-15.18,3.34-20.97,0
					c-2.9-1.67-4.34-3.86-4.34-6.05v-3.46C1784.92,755.87,1786.36,758.06,1789.26,759.74z"/>
			</g>
			<g>
				<path class="st6" d="M1719.88,1002.14c5.79,3.34,15.18,3.34,20.97,0c5.79-3.34,5.79-8.76,0-12.11c-5.79-3.34-15.18-3.34-20.97,0
					C1714.09,993.37,1714.09,998.8,1719.88,1002.14z"/>
				
					<linearGradient id="SVGID_00000101072680041770928710000006678539624734983101_" gradientUnits="userSpaceOnUse" x1="1934.2463" y1="1002.097" x2="1963.9032" y2="1002.097" gradientTransform="matrix(-1 0 0 1 3679.4407 0)">
					<stop  offset="0" style="stop-color:#D1D2D2"/>
					<stop  offset="1" style="stop-color:#929496"/>
				</linearGradient>
				<path style="fill:url(#SVGID_00000101072680041770928710000006678539624734983101_);" d="M1719.88,1002.14
					c5.79,3.34,15.18,3.34,20.97,0c2.9-1.67,4.34-3.86,4.34-6.05v3.46c0,2.19-1.45,4.38-4.34,6.05c-5.79,3.34-15.18,3.34-20.97,0
					c-2.9-1.67-4.34-3.86-4.34-6.05v-3.46C1715.54,998.28,1716.99,1000.47,1719.88,1002.14z"/>
				
					<linearGradient id="SVGID_00000138551641621413172460000014623471928658189974_" gradientUnits="userSpaceOnUse" x1="1936.0648" y1="898.8579" x2="1962.0847" y2="898.8579" gradientTransform="matrix(-1 0 0 1 3679.4407 0)">
					<stop  offset="0" style="stop-color:#FFEED2"/>
					<stop  offset="1" style="stop-color:#D1C4AD"/>
				</linearGradient>
				<path style="fill:url(#SVGID_00000138551641621413172460000014623471928658189974_);" d="M1721.17,800.9
					c5.08,2.93,13.32,2.93,18.4,0c2.54-1.47,3.81-3.39,3.81-5.31v199.03c0,1.92-1.27,3.84-3.81,5.31c-5.08,2.93-13.32,2.93-18.4,0
					c-2.54-1.47-3.81-3.39-3.81-5.31V795.59C1717.36,797.51,1718.63,799.43,1721.17,800.9z"/>
				<path class="st6" d="M1719.88,799.44c5.79,3.34,15.18,3.34,20.97,0c5.79-3.34,5.79-8.76,0-12.11c-5.79-3.34-15.18-3.34-20.97,0
					C1714.09,790.68,1714.09,796.1,1719.88,799.44z"/>
				<g>
					<g>
						
							<linearGradient id="SVGID_00000144334032789153417580000006396879996881261957_" gradientUnits="userSpaceOnUse" x1="1959.7489" y1="899.8576" x2="1936.6571" y2="899.8576" gradientTransform="matrix(-1 0 0 1 3679.4407 0)">
							<stop  offset="0" style="stop-color:#AA9F8D"/>
							<stop  offset="1" style="stop-color:#D8C9B2"/>
						</linearGradient>
						
							<rect x="1740.47" y="800.34" style="fill:url(#SVGID_00000144334032789153417580000006396879996881261957_);" width="0.41" height="199.03"/>
					</g>
					<g>
						
							<linearGradient id="SVGID_00000041291299735699174300000014891294843680358532_" gradientUnits="userSpaceOnUse" x1="1959.7644" y1="901.3866" x2="1936.6542" y2="901.3866" gradientTransform="matrix(-1 0 0 1 3679.4407 0)">
							<stop  offset="0" style="stop-color:#AA9F8D"/>
							<stop  offset="1" style="stop-color:#D8C9B2"/>
						</linearGradient>
						
							<rect x="1737.52" y="801.88" style="fill:url(#SVGID_00000041291299735699174300000014891294843680358532_);" width="0.41" height="199.02"/>
					</g>
					<g>
						
							<linearGradient id="SVGID_00000100364127106204053210000014698378462078498477_" gradientUnits="userSpaceOnUse" x1="1959.7635" y1="902.2173" x2="1936.6533" y2="902.2173" gradientTransform="matrix(-1 0 0 1 3679.4407 0)">
							<stop  offset="0" style="stop-color:#AA9F8D"/>
							<stop  offset="1" style="stop-color:#D8C9B2"/>
						</linearGradient>
						
							<rect x="1734.58" y="802.71" style="fill:url(#SVGID_00000100364127106204053210000014698378462078498477_);" width="0.41" height="199.02"/>
					</g>
					<g>
						
							<linearGradient id="SVGID_00000031885828702754962690000013194736699192080537_" gradientUnits="userSpaceOnUse" x1="1959.7628" y1="902.5819" x2="1936.6526" y2="902.5819" gradientTransform="matrix(-1 0 0 1 3679.4407 0)">
							<stop  offset="0" style="stop-color:#AA9F8D"/>
							<stop  offset="1" style="stop-color:#D8C9B2"/>
						</linearGradient>
						
							<rect x="1731.63" y="803.07" style="fill:url(#SVGID_00000031885828702754962690000013194736699192080537_);" width="0.41" height="199.03"/>
					</g>
					<g>
						
							<linearGradient id="SVGID_00000165235773417484800730000003898679333409841817_" gradientUnits="userSpaceOnUse" x1="1959.7542" y1="902.5494" x2="1936.6625" y2="902.5494" gradientTransform="matrix(-1 0 0 1 3679.4407 0)">
							<stop  offset="0" style="stop-color:#AA9F8D"/>
							<stop  offset="1" style="stop-color:#D8C9B2"/>
						</linearGradient>
						
							<rect x="1728.69" y="803.04" style="fill:url(#SVGID_00000165235773417484800730000003898679333409841817_);" width="0.41" height="199.03"/>
					</g>
					<g>
						
							<linearGradient id="SVGID_00000005977228419042504880000012287334470023119531_" gradientUnits="userSpaceOnUse" x1="1959.7605" y1="902.1177" x2="1936.6503" y2="902.1177" gradientTransform="matrix(-1 0 0 1 3679.4407 0)">
							<stop  offset="0" style="stop-color:#AA9F8D"/>
							<stop  offset="1" style="stop-color:#D8C9B2"/>
						</linearGradient>
						
							<rect x="1725.75" y="802.6" style="fill:url(#SVGID_00000005977228419042504880000012287334470023119531_);" width="0.41" height="199.03"/>
					</g>
					<g>
						
							<linearGradient id="SVGID_00000149370331711020578650000009847437155519092371_" gradientUnits="userSpaceOnUse" x1="1959.7566" y1="901.2036" x2="1936.6649" y2="901.2036" gradientTransform="matrix(-1 0 0 1 3679.4407 0)">
							<stop  offset="0" style="stop-color:#AA9F8D"/>
							<stop  offset="1" style="stop-color:#D8C9B2"/>
						</linearGradient>
						
							<rect x="1722.8" y="801.69" style="fill:url(#SVGID_00000149370331711020578650000009847437155519092371_);" width="0.41" height="199.02"/>
					</g>
					<g>
						
							<linearGradient id="SVGID_00000145036841534418203960000003509221297892649146_" gradientUnits="userSpaceOnUse" x1="1959.7584" y1="899.5054" x2="1936.6667" y2="899.5054" gradientTransform="matrix(-1 0 0 1 3679.4407 0)">
							<stop  offset="0" style="stop-color:#AA9F8D"/>
							<stop  offset="1" style="stop-color:#D8C9B2"/>
						</linearGradient>
						
							<rect x="1719.86" y="799.99" style="fill:url(#SVGID_00000145036841534418203960000003509221297892649146_);" width="0.41" height="199.02"/>
					</g>
				</g>
				
					<linearGradient id="SVGID_00000144318195833173413670000004019964381242357401_" gradientUnits="userSpaceOnUse" x1="1934.2463" y1="799.3994" x2="1963.9032" y2="799.3994" gradientTransform="matrix(-1 0 0 1 3679.4407 0)">
					<stop  offset="0" style="stop-color:#D1D2D2"/>
					<stop  offset="1" style="stop-color:#929496"/>
				</linearGradient>
				<path style="fill:url(#SVGID_00000144318195833173413670000004019964381242357401_);" d="M1719.88,799.44
					c5.79,3.34,15.18,3.34,20.97,0c2.9-1.67,4.34-3.86,4.34-6.05v3.46c0,2.19-1.45,4.38-4.34,6.05c-5.79,3.34-15.18,3.34-20.97,0
					c-2.9-1.67-4.34-3.86-4.34-6.05v-3.46C1715.54,795.58,1716.99,797.77,1719.88,799.44z"/>
			</g>
			<g>
				<path class="st6" d="M1666.46,1042.38c-5.79,3.34-15.18,3.34-20.97,0c-5.79-3.34-5.79-8.76,0-12.11
					c5.79-3.34,15.18-3.34,20.97,0C1672.25,1033.62,1672.25,1039.04,1666.46,1042.38z"/>
				
					<linearGradient id="SVGID_00000054949174906862035860000016555438434134403241_" gradientUnits="userSpaceOnUse" x1="1641.1442" y1="1042.3398" x2="1670.8011" y2="1042.3398">
					<stop  offset="0" style="stop-color:#D1D2D2"/>
					<stop  offset="1" style="stop-color:#929496"/>
				</linearGradient>
				<path style="fill:url(#SVGID_00000054949174906862035860000016555438434134403241_);" d="M1666.46,1042.38
					c-5.79,3.34-15.18,3.34-20.97,0c-2.9-1.67-4.34-3.86-4.34-6.05v3.46c0,2.19,1.45,4.38,4.34,6.05c5.79,3.34,15.18,3.34,20.97,0
					c2.9-1.67,4.34-3.86,4.34-6.05v-3.46C1670.8,1038.52,1669.35,1040.71,1666.46,1042.38z"/>
				
					<linearGradient id="SVGID_00000101098172637169149640000017308368833237970560_" gradientUnits="userSpaceOnUse" x1="1642.9626" y1="939.1005" x2="1668.9825" y2="939.1005">
					<stop  offset="0" style="stop-color:#FFEED2"/>
					<stop  offset="1" style="stop-color:#D1C4AD"/>
				</linearGradient>
				<path style="fill:url(#SVGID_00000101098172637169149640000017308368833237970560_);" d="M1665.17,841.14
					c-5.08,2.93-13.32,2.93-18.4,0c-2.54-1.47-3.81-3.39-3.81-5.31v199.03c0,1.92,1.27,3.84,3.81,5.31c5.08,2.93,13.32,2.93,18.4,0
					c2.54-1.47,3.81-3.39,3.81-5.31V835.83C1668.98,837.75,1667.71,839.68,1665.17,841.14z"/>
				<path class="st6" d="M1666.46,839.68c-5.79,3.34-15.18,3.34-20.97,0c-5.79-3.34-5.79-8.76,0-12.11c5.79-3.34,15.18-3.34,20.97,0
					C1672.25,830.92,1672.25,836.34,1666.46,839.68z"/>
				<g>
					<g>
						
							<linearGradient id="SVGID_00000083078157865976632440000007231409281786899853_" gradientUnits="userSpaceOnUse" x1="1666.6677" y1="940.1002" x2="1643.5529" y2="940.1002">
							<stop  offset="0" style="stop-color:#AA9F8D"/>
							<stop  offset="1" style="stop-color:#D8C9B2"/>
						</linearGradient>
						
							<rect x="1645.47" y="840.59" style="fill:url(#SVGID_00000083078157865976632440000007231409281786899853_);" width="0.41" height="199.03"/>
					</g>
					<g>
						
							<linearGradient id="SVGID_00000005238435122764158020000011319776676430682280_" gradientUnits="userSpaceOnUse" x1="1666.6477" y1="941.6292" x2="1643.556" y2="941.6292">
							<stop  offset="0" style="stop-color:#AA9F8D"/>
							<stop  offset="1" style="stop-color:#D8C9B2"/>
						</linearGradient>
						
							<rect x="1648.41" y="842.12" style="fill:url(#SVGID_00000005238435122764158020000011319776676430682280_);" width="0.41" height="199.02"/>
					</g>
					<g>
						
							<linearGradient id="SVGID_00000013915359428501698590000008667211215618891661_" gradientUnits="userSpaceOnUse" x1="1666.6646" y1="942.46" x2="1643.5497" y2="942.46">
							<stop  offset="0" style="stop-color:#AA9F8D"/>
							<stop  offset="1" style="stop-color:#D8C9B2"/>
						</linearGradient>
						
							<rect x="1651.35" y="842.95" style="fill:url(#SVGID_00000013915359428501698590000008667211215618891661_);" width="0.41" height="199.02"/>
					</g>
					<g>
						
							<linearGradient id="SVGID_00000018953605547901657680000016884601405919642527_" gradientUnits="userSpaceOnUse" x1="1666.6508" y1="942.8247" x2="1643.5591" y2="942.8247">
							<stop  offset="0" style="stop-color:#AA9F8D"/>
							<stop  offset="1" style="stop-color:#D8C9B2"/>
						</linearGradient>
						
							<rect x="1654.3" y="843.31" style="fill:url(#SVGID_00000018953605547901657680000016884601405919642527_);" width="0.41" height="199.03"/>
					</g>
					<g>
						
							<linearGradient id="SVGID_00000181081854943374550140000016429434339955319983_" gradientUnits="userSpaceOnUse" x1="1666.6593" y1="942.7922" x2="1643.5491" y2="942.7922">
							<stop  offset="0" style="stop-color:#AA9F8D"/>
							<stop  offset="1" style="stop-color:#D8C9B2"/>
						</linearGradient>
						
							<rect x="1657.24" y="843.28" style="fill:url(#SVGID_00000181081854943374550140000016429434339955319983_);" width="0.41" height="199.03"/>
					</g>
					<g>
						
							<linearGradient id="SVGID_00000131367863149272263530000002015833973071332490_" gradientUnits="userSpaceOnUse" x1="1666.6532" y1="942.3604" x2="1643.5615" y2="942.3604">
							<stop  offset="0" style="stop-color:#AA9F8D"/>
							<stop  offset="1" style="stop-color:#D8C9B2"/>
						</linearGradient>
						
							<rect x="1660.18" y="842.85" style="fill:url(#SVGID_00000131367863149272263530000002015833973071332490_);" width="0.41" height="199.03"/>
					</g>
					<g>
						
							<linearGradient id="SVGID_00000159460485738870065370000002349900260956172718_" gradientUnits="userSpaceOnUse" x1="1666.6545" y1="941.4462" x2="1643.5627" y2="941.4462">
							<stop  offset="0" style="stop-color:#AA9F8D"/>
							<stop  offset="1" style="stop-color:#D8C9B2"/>
						</linearGradient>
						
							<rect x="1663.13" y="841.94" style="fill:url(#SVGID_00000159460485738870065370000002349900260956172718_);" width="0.41" height="199.02"/>
					</g>
					<g>
						
							<linearGradient id="SVGID_00000127020157982631320620000017985980419383177388_" gradientUnits="userSpaceOnUse" x1="1666.656" y1="939.7479" x2="1643.5643" y2="939.7479">
							<stop  offset="0" style="stop-color:#AA9F8D"/>
							<stop  offset="1" style="stop-color:#D8C9B2"/>
						</linearGradient>
						
							<rect x="1666.07" y="840.24" style="fill:url(#SVGID_00000127020157982631320620000017985980419383177388_);" width="0.41" height="199.02"/>
					</g>
				</g>
				
					<linearGradient id="SVGID_00000064330082625832250200000010402477684443428505_" gradientUnits="userSpaceOnUse" x1="1641.1442" y1="839.6422" x2="1670.8011" y2="839.6422">
					<stop  offset="0" style="stop-color:#D1D2D2"/>
					<stop  offset="1" style="stop-color:#929496"/>
				</linearGradient>
				<path style="fill:url(#SVGID_00000064330082625832250200000010402477684443428505_);" d="M1666.46,839.68
					c-5.79,3.34-15.18,3.34-20.97,0c-2.9-1.67-4.34-3.86-4.34-6.05v3.46c0,2.19,1.45,4.38,4.34,6.05c5.79,3.34,15.18,3.34,20.97,0
					c2.9-1.67,4.34-3.86,4.34-6.05v-3.46C1670.8,835.82,1669.35,838.01,1666.46,839.68z"/>
			</g>
		</g>
		<polygon class="st0" points="1579.28,588.54 1400.84,691.04 1654.76,837.64 1833.21,735.15 		"/>
		<g>
			<polygon class="st84" points="1654.76,852.55 1413.99,713.54 1413.99,701.82 1654.76,840.83 			"/>
			<g>
				<path class="st85" d="M1422.83,712.78c0,1.66-1.16,2.33-2.6,1.5c-1.43-0.83-2.6-2.84-2.6-4.5s1.16-2.33,2.6-1.5
					C1421.66,709.11,1422.83,711.13,1422.83,712.78z"/>
				<path class="st85" d="M1434.18,719.34c0,1.66-1.16,2.33-2.6,1.5c-1.44-0.83-2.6-2.84-2.6-4.5s1.16-2.33,2.6-1.5
					C1433.02,715.67,1434.18,717.68,1434.18,719.34z"/>
				<path class="st85" d="M1445.53,725.89c0,1.66-1.16,2.33-2.6,1.5c-1.43-0.83-2.6-2.84-2.6-4.5s1.16-2.33,2.6-1.5
					C1444.37,722.22,1445.53,724.24,1445.53,725.89z"/>
				<path class="st85" d="M1456.88,732.45c0,1.66-1.16,2.33-2.6,1.5c-1.44-0.83-2.6-2.84-2.6-4.5s1.16-2.33,2.6-1.5
					C1455.72,728.78,1456.88,730.79,1456.88,732.45z"/>
				<path class="st85" d="M1468.23,739c0,1.66-1.16,2.33-2.6,1.5c-1.43-0.83-2.6-2.84-2.6-4.5c0-1.66,1.16-2.33,2.6-1.5
					C1467.07,735.33,1468.23,737.34,1468.23,739z"/>
				<path class="st85" d="M1479.59,745.55c0,1.66-1.16,2.33-2.6,1.5c-1.43-0.83-2.6-2.84-2.6-4.5c0-1.66,1.16-2.33,2.6-1.5
					C1478.42,741.88,1479.59,743.9,1479.59,745.55z"/>
				<path class="st85" d="M1490.94,752.11c0,1.66-1.16,2.33-2.6,1.5c-1.43-0.83-2.6-2.84-2.6-4.5s1.16-2.33,2.6-1.5
					C1489.78,748.44,1490.94,750.45,1490.94,752.11z"/>
				<path class="st85" d="M1502.29,758.66c0,1.66-1.16,2.33-2.6,1.5c-1.43-0.83-2.6-2.84-2.6-4.5c0-1.66,1.16-2.33,2.6-1.5
					C1501.13,754.99,1502.29,757.01,1502.29,758.66z"/>
				<path class="st85" d="M1513.64,765.22c0,1.66-1.16,2.33-2.6,1.5c-1.43-0.83-2.6-2.84-2.6-4.5c0-1.66,1.16-2.33,2.6-1.5
					C1512.48,761.55,1513.64,763.56,1513.64,765.22z"/>
				<path class="st85" d="M1524.99,771.77c0,1.66-1.16,2.33-2.6,1.5c-1.43-0.83-2.6-2.84-2.6-4.5c0-1.66,1.16-2.33,2.6-1.5
					C1523.83,768.1,1524.99,770.11,1524.99,771.77z"/>
				<path class="st85" d="M1536.35,778.32c0,1.66-1.16,2.33-2.6,1.5c-1.43-0.83-2.6-2.84-2.6-4.5c0-1.66,1.16-2.33,2.6-1.5
					C1535.18,774.65,1536.35,776.67,1536.35,778.32z"/>
				<path class="st85" d="M1547.7,784.88c0,1.66-1.16,2.33-2.6,1.5c-1.43-0.83-2.6-2.84-2.6-4.5c0-1.66,1.16-2.33,2.6-1.5
					C1546.54,781.21,1547.7,783.22,1547.7,784.88z"/>
				<path class="st85" d="M1559.05,791.43c0,1.66-1.16,2.33-2.6,1.5c-1.43-0.83-2.6-2.84-2.6-4.5s1.16-2.33,2.6-1.5
					C1557.89,787.76,1559.05,789.78,1559.05,791.43z"/>
				<path class="st85" d="M1570.4,797.99c0,1.66-1.16,2.33-2.6,1.5c-1.43-0.83-2.6-2.84-2.6-4.5s1.16-2.33,2.6-1.5
					C1569.24,794.32,1570.4,796.33,1570.4,797.99z"/>
				<path class="st85" d="M1581.76,804.54c0,1.66-1.16,2.33-2.6,1.5c-1.43-0.83-2.6-2.84-2.6-4.5c0-1.66,1.16-2.33,2.6-1.5
					C1580.59,800.87,1581.76,802.88,1581.76,804.54z"/>
				<path class="st85" d="M1593.11,811.1c0,1.66-1.16,2.33-2.6,1.5c-1.43-0.83-2.6-2.84-2.6-4.5c0-1.66,1.16-2.33,2.6-1.5
					C1591.94,807.42,1593.11,809.44,1593.11,811.1z"/>
				<path class="st85" d="M1604.46,817.65c0,1.66-1.16,2.33-2.6,1.5c-1.43-0.83-2.6-2.84-2.6-4.5c0-1.66,1.16-2.33,2.6-1.5
					C1603.3,813.98,1604.46,815.99,1604.46,817.65z"/>
				<path class="st85" d="M1615.81,824.2c0,1.66-1.16,2.33-2.6,1.5c-1.44-0.83-2.6-2.84-2.6-4.5c0-1.66,1.16-2.33,2.6-1.5
					C1614.65,820.53,1615.81,822.55,1615.81,824.2z"/>
				<path class="st85" d="M1627.16,830.76c0,1.66-1.16,2.33-2.6,1.5c-1.43-0.83-2.6-2.84-2.6-4.5s1.16-2.33,2.6-1.5
					C1626,827.09,1627.16,829.1,1627.16,830.76z"/>
				<path class="st85" d="M1638.52,837.31c0,1.66-1.16,2.33-2.6,1.5c-1.43-0.83-2.6-2.84-2.6-4.5s1.16-2.33,2.6-1.5
					C1637.35,833.64,1638.52,835.66,1638.52,837.31z"/>
				<path class="st85" d="M1649.87,843.87c0,1.66-1.16,2.33-2.6,1.5c-1.44-0.83-2.6-2.84-2.6-4.5c0-1.66,1.16-2.33,2.6-1.5
					C1648.7,840.2,1649.87,842.21,1649.87,843.87z"/>
			</g>
		</g>
		<g>
			<polygon class="st86" points="1654.76,852.55 1820.06,757.65 1820.06,745.93 1654.76,840.83 			"/>
			<g>
				<path class="st87" d="M1807.23,758.66c0,1.66,1.16,2.33,2.6,1.5c1.43-0.83,2.6-2.84,2.6-4.5c0-1.66-1.16-2.33-2.6-1.5
					C1808.4,754.99,1807.23,757.01,1807.23,758.66z"/>
				<path class="st87" d="M1795.88,765.22c0,1.66,1.16,2.33,2.6,1.5c1.43-0.83,2.6-2.84,2.6-4.5c0-1.66-1.16-2.33-2.6-1.5
					C1797.04,761.55,1795.88,763.56,1795.88,765.22z"/>
				<path class="st87" d="M1784.53,771.77c0,1.66,1.16,2.33,2.6,1.5c1.43-0.83,2.6-2.84,2.6-4.5c0-1.66-1.16-2.33-2.6-1.5
					C1785.69,768.1,1784.53,770.11,1784.53,771.77z"/>
				<path class="st87" d="M1773.18,778.32c0,1.66,1.16,2.33,2.6,1.5c1.43-0.83,2.6-2.84,2.6-4.5c0-1.66-1.16-2.33-2.6-1.5
					C1774.34,774.65,1773.18,776.67,1773.18,778.32z"/>
				<path class="st87" d="M1761.83,784.88c0,1.66,1.16,2.33,2.6,1.5c1.43-0.83,2.6-2.84,2.6-4.5c0-1.66-1.16-2.33-2.6-1.5
					C1762.99,781.21,1761.83,783.22,1761.83,784.88z"/>
				<path class="st87" d="M1750.47,791.43c0,1.66,1.16,2.33,2.6,1.5c1.43-0.83,2.6-2.84,2.6-4.5s-1.16-2.33-2.6-1.5
					C1751.64,787.76,1750.47,789.78,1750.47,791.43z"/>
				<path class="st87" d="M1739.12,797.99c0,1.66,1.16,2.33,2.6,1.5c1.43-0.83,2.6-2.84,2.6-4.5s-1.16-2.33-2.6-1.5
					C1740.28,794.32,1739.12,796.33,1739.12,797.99z"/>
				<path class="st87" d="M1727.77,804.54c0,1.66,1.16,2.33,2.6,1.5c1.43-0.83,2.6-2.84,2.6-4.5c0-1.66-1.16-2.33-2.6-1.5
					C1728.93,800.87,1727.77,802.88,1727.77,804.54z"/>
				<path class="st87" d="M1716.42,811.1c0,1.66,1.16,2.33,2.6,1.5c1.43-0.83,2.6-2.84,2.6-4.5c0-1.66-1.16-2.33-2.6-1.5
					C1717.58,807.42,1716.42,809.44,1716.42,811.1z"/>
				<path class="st87" d="M1705.06,817.65c0,1.66,1.16,2.33,2.6,1.5c1.43-0.83,2.6-2.84,2.6-4.5c0-1.66-1.16-2.33-2.6-1.5
					C1706.23,813.98,1705.06,815.99,1705.06,817.65z"/>
				<path class="st87" d="M1693.71,824.2c0,1.66,1.16,2.33,2.6,1.5c1.43-0.83,2.6-2.84,2.6-4.5c0-1.66-1.16-2.33-2.6-1.5
					C1694.88,820.53,1693.71,822.55,1693.71,824.2z"/>
				<path class="st87" d="M1682.36,830.76c0,1.66,1.16,2.33,2.6,1.5c1.43-0.83,2.6-2.84,2.6-4.5s-1.16-2.33-2.6-1.5
					C1683.52,827.09,1682.36,829.1,1682.36,830.76z"/>
				<path class="st87" d="M1671.01,837.31c0,1.66,1.16,2.33,2.6,1.5c1.43-0.83,2.6-2.84,2.6-4.5s-1.16-2.33-2.6-1.5
					C1672.17,833.64,1671.01,835.66,1671.01,837.31z"/>
				<path class="st87" d="M1659.66,843.87c0,1.66,1.16,2.33,2.6,1.5c1.44-0.83,2.6-2.84,2.6-4.5c0-1.66-1.16-2.33-2.6-1.5
					C1660.82,840.2,1659.66,842.21,1659.66,843.87z"/>
			</g>
		</g>
		<g class="st88">
			<polygon class="st89" points="1654.76,845.24 1413.99,706.22 1413.99,701.82 1654.76,840.83 			"/>
			<polygon class="st89" points="1654.76,845.24 1820.06,750.33 1820.06,745.93 1654.76,840.83 			"/>
		</g>
		<g>
			<polygon class="st1" points="1654.76,843.31 1400.5,696.51 1400.5,690.83 1654.76,837.63 			"/>
			<g>
				<path class="st85" d="M1410.34,699.35c0,0,0.03,0.23-0.05,0.53c-0.09,0.29-0.35,0.67-0.88,0.62c-0.26-0.02-0.56-0.09-0.88-0.25
					c-0.16-0.07-0.33-0.18-0.48-0.26c-0.16-0.1-0.36-0.23-0.53-0.38c-0.35-0.29-0.72-0.69-1.01-1.19c-0.29-0.5-0.5-1.02-0.57-1.58
					c-0.03-0.29-0.17-0.72-0.37-1.05c-0.2-0.34-0.46-0.66-0.74-0.91c-0.28-0.25-0.58-0.47-0.86-0.63c-0.31-0.18-0.53-0.27-0.77-0.34
					c-0.46-0.12-0.77,0.06-0.9,0.29c-0.14,0.22-0.16,0.42-0.16,0.42s-0.03-0.23,0.05-0.53c0.09-0.29,0.35-0.67,0.88-0.62
					c0.25,0.01,0.58,0.1,0.88,0.25c0.32,0.15,0.66,0.35,1.01,0.64c0.35,0.29,0.72,0.69,1.01,1.19c0.29,0.5,0.5,1.02,0.57,1.58
					c0.03,0.29,0.17,0.72,0.37,1.05c0.2,0.34,0.46,0.66,0.74,0.91c0.14,0.14,0.27,0.23,0.42,0.34l0.23,0.16
					c0.08,0.06,0.12,0.08,0.21,0.13c0.28,0.17,0.54,0.28,0.77,0.34c0.46,0.12,0.77-0.06,0.9-0.29
					C1410.32,699.55,1410.34,699.35,1410.34,699.35z"/>
				<path class="st85" d="M1414.04,701.49c0,0,0.02,0.22,0.16,0.6c0.13,0.38,0.43,0.91,0.9,1.33c0.23,0.21,0.49,0.4,0.77,0.55
					c0.08,0.04,0.12,0.08,0.21,0.11l0.23,0.11c0.15,0.05,0.28,0.11,0.42,0.14c0.28,0.07,0.54,0.05,0.74-0.06
					c0.2-0.1,0.34-0.37,0.37-0.62c0.07-0.48,0.27-0.77,0.57-0.93c0.29-0.16,0.66-0.13,1.01-0.01c0.35,0.11,0.69,0.3,1.01,0.52
					c0.29,0.19,0.63,0.48,0.88,0.76c0.54,0.57,0.8,1.25,0.88,1.64c0.08,0.41,0.05,0.59,0.05,0.59s-0.02-0.22-0.16-0.6
					c-0.13-0.38-0.44-0.91-0.9-1.33c-0.24-0.21-0.47-0.38-0.77-0.55c-0.28-0.16-0.58-0.29-0.86-0.36c-0.28-0.07-0.54-0.05-0.74,0.06
					c-0.2,0.1-0.34,0.37-0.37,0.62c-0.07,0.48-0.27,0.77-0.57,0.93c-0.29,0.16-0.66,0.13-1.01,0.01c-0.17-0.05-0.37-0.14-0.53-0.22
					c-0.15-0.09-0.32-0.18-0.48-0.3c-0.32-0.21-0.62-0.48-0.88-0.76c-0.54-0.57-0.8-1.25-0.88-1.64
					C1414.01,701.68,1414.04,701.49,1414.04,701.49z"/>
				<path class="st85" d="M1433.47,712.71c0,0,0.03,0.23-0.05,0.53c-0.09,0.29-0.35,0.67-0.88,0.62c-0.26-0.02-0.56-0.09-0.88-0.25
					c-0.16-0.07-0.34-0.18-0.48-0.26c-0.16-0.1-0.36-0.23-0.53-0.38c-0.35-0.29-0.72-0.69-1.01-1.19c-0.29-0.5-0.5-1.03-0.57-1.58
					c-0.03-0.31-0.17-0.73-0.37-1.06c-0.2-0.34-0.46-0.66-0.74-0.91c-0.28-0.25-0.58-0.47-0.86-0.63c-0.31-0.18-0.53-0.27-0.77-0.34
					c-0.46-0.12-0.77,0.06-0.9,0.29c-0.14,0.22-0.16,0.42-0.16,0.42s-0.03-0.23,0.05-0.53c0.09-0.29,0.35-0.67,0.88-0.62
					c0.25,0.01,0.58,0.1,0.88,0.25c0.32,0.15,0.66,0.35,1.01,0.64c0.35,0.29,0.72,0.69,1.01,1.19c0.29,0.5,0.5,1.03,0.57,1.58
					c0.03,0.31,0.17,0.73,0.37,1.06c0.2,0.34,0.46,0.66,0.74,0.91c0.14,0.14,0.27,0.23,0.42,0.34l0.23,0.16
					c0.08,0.06,0.12,0.08,0.21,0.13c0.28,0.17,0.54,0.28,0.77,0.34c0.46,0.12,0.77-0.06,0.9-0.29
					C1433.45,712.9,1433.47,712.71,1433.47,712.71z"/>
				<path class="st85" d="M1437.17,714.84c0,0,0.02,0.22,0.16,0.6c0.13,0.38,0.43,0.91,0.9,1.33c0.23,0.21,0.49,0.4,0.77,0.55
					c0.08,0.04,0.12,0.08,0.21,0.11l0.23,0.11c0.15,0.05,0.28,0.11,0.42,0.14c0.28,0.07,0.54,0.05,0.74-0.06
					c0.2-0.11,0.34-0.36,0.37-0.63c0.07-0.47,0.27-0.76,0.57-0.92c0.29-0.16,0.66-0.13,1.01-0.01c0.35,0.11,0.69,0.3,1.01,0.52
					c0.29,0.19,0.63,0.48,0.88,0.76c0.54,0.57,0.8,1.25,0.88,1.64c0.08,0.41,0.05,0.59,0.05,0.59s-0.02-0.22-0.16-0.6
					c-0.13-0.38-0.44-0.91-0.9-1.33c-0.24-0.21-0.47-0.38-0.77-0.55c-0.28-0.16-0.58-0.29-0.86-0.36c-0.28-0.07-0.54-0.05-0.74,0.06
					c-0.2,0.11-0.34,0.36-0.37,0.63c-0.07,0.46-0.27,0.76-0.56,0.92c-0.29,0.16-0.66,0.13-1.01,0.01c-0.17-0.05-0.37-0.14-0.53-0.22
					c-0.15-0.09-0.32-0.18-0.48-0.3c-0.32-0.2-0.62-0.48-0.88-0.76c-0.54-0.57-0.8-1.25-0.88-1.64
					C1437.14,715.03,1437.17,714.84,1437.17,714.84z"/>
				<path class="st85" d="M1456.6,726.06c0,0,0.03,0.23-0.05,0.53c-0.09,0.29-0.35,0.67-0.88,0.62c-0.26-0.02-0.56-0.09-0.88-0.25
					c-0.16-0.07-0.34-0.18-0.48-0.26c-0.16-0.1-0.36-0.23-0.53-0.38c-0.35-0.29-0.72-0.69-1.01-1.19c-0.29-0.5-0.5-1.03-0.57-1.58
					c-0.03-0.31-0.17-0.73-0.37-1.06c-0.2-0.34-0.46-0.66-0.74-0.91c-0.28-0.25-0.58-0.47-0.86-0.63c-0.31-0.18-0.53-0.27-0.77-0.34
					c-0.46-0.12-0.77,0.06-0.9,0.29c-0.14,0.23-0.16,0.42-0.16,0.42s-0.03-0.23,0.05-0.53c0.09-0.29,0.35-0.67,0.88-0.62
					c0.25,0.01,0.58,0.1,0.88,0.25c0.32,0.15,0.66,0.35,1.01,0.64c0.35,0.29,0.72,0.69,1.01,1.19c0.29,0.5,0.5,1.03,0.57,1.58
					c0.03,0.31,0.17,0.73,0.37,1.06c0.2,0.34,0.46,0.66,0.74,0.91c0.14,0.14,0.27,0.23,0.42,0.34l0.23,0.16
					c0.08,0.06,0.12,0.08,0.21,0.13c0.28,0.17,0.54,0.28,0.77,0.34c0.46,0.12,0.77-0.06,0.9-0.29
					C1456.58,726.26,1456.6,726.06,1456.6,726.06z"/>
				<path class="st85" d="M1460.3,728.2c0,0,0.02,0.22,0.16,0.6c0.13,0.38,0.43,0.91,0.9,1.33c0.23,0.21,0.49,0.4,0.77,0.55
					c0.08,0.04,0.12,0.08,0.21,0.11l0.23,0.11c0.15,0.05,0.28,0.11,0.42,0.14c0.28,0.07,0.54,0.05,0.74-0.06
					c0.2-0.1,0.34-0.37,0.37-0.62c0.07-0.48,0.27-0.77,0.57-0.93c0.29-0.16,0.66-0.13,1.01-0.01c0.35,0.11,0.69,0.3,1.01,0.52
					c0.29,0.19,0.63,0.48,0.88,0.76c0.54,0.57,0.8,1.25,0.88,1.64c0.08,0.41,0.05,0.59,0.05,0.59s-0.02-0.22-0.16-0.6
					c-0.13-0.38-0.44-0.91-0.9-1.33c-0.24-0.21-0.47-0.38-0.77-0.55c-0.28-0.16-0.58-0.29-0.86-0.36c-0.28-0.07-0.54-0.05-0.74,0.06
					c-0.2,0.1-0.34,0.37-0.37,0.62c-0.07,0.48-0.27,0.77-0.57,0.93c-0.29,0.16-0.66,0.13-1.01,0.01c-0.17-0.05-0.37-0.14-0.53-0.22
					c-0.15-0.09-0.32-0.18-0.48-0.3c-0.32-0.2-0.62-0.48-0.88-0.76c-0.54-0.57-0.8-1.25-0.88-1.64
					C1460.27,728.39,1460.3,728.2,1460.3,728.2z"/>
				<path class="st85" d="M1479.73,739.41c0,0,0.03,0.23-0.05,0.53c-0.09,0.29-0.35,0.67-0.88,0.62c-0.26-0.02-0.56-0.09-0.88-0.25
					c-0.16-0.07-0.33-0.18-0.48-0.26c-0.16-0.1-0.36-0.23-0.53-0.38c-0.35-0.29-0.72-0.69-1.01-1.19c-0.29-0.5-0.5-1.03-0.57-1.58
					c-0.03-0.31-0.18-0.73-0.37-1.06c-0.2-0.34-0.46-0.66-0.74-0.91c-0.28-0.25-0.58-0.47-0.86-0.63c-0.31-0.18-0.53-0.27-0.77-0.34
					c-0.46-0.12-0.77,0.06-0.9,0.29c-0.14,0.22-0.16,0.42-0.16,0.42s-0.03-0.23,0.05-0.53c0.09-0.29,0.35-0.67,0.88-0.62
					c0.25,0.01,0.58,0.1,0.88,0.25c0.32,0.15,0.66,0.35,1.01,0.64c0.35,0.29,0.72,0.69,1.01,1.19c0.29,0.5,0.5,1.03,0.57,1.58
					c0.03,0.31,0.17,0.73,0.37,1.06c0.2,0.34,0.46,0.66,0.74,0.91c0.14,0.14,0.27,0.22,0.42,0.34l0.23,0.16
					c0.08,0.06,0.12,0.08,0.21,0.13c0.28,0.17,0.54,0.28,0.77,0.34c0.46,0.12,0.77-0.06,0.9-0.29
					C1479.71,739.61,1479.73,739.41,1479.73,739.41z"/>
				<path class="st85" d="M1483.43,741.55c0,0,0.02,0.22,0.16,0.6c0.13,0.38,0.43,0.91,0.9,1.33c0.23,0.21,0.49,0.4,0.77,0.55
					c0.08,0.04,0.12,0.08,0.21,0.11l0.23,0.11c0.15,0.05,0.28,0.11,0.42,0.14c0.28,0.07,0.54,0.05,0.74-0.06
					c0.2-0.1,0.34-0.37,0.37-0.62c0.07-0.48,0.27-0.77,0.57-0.93c0.29-0.16,0.66-0.13,1.01-0.01c0.35,0.11,0.69,0.3,1.01,0.52
					c0.29,0.19,0.63,0.48,0.88,0.76c0.54,0.57,0.8,1.25,0.88,1.64c0.08,0.41,0.05,0.59,0.05,0.59s-0.02-0.22-0.16-0.6
					c-0.13-0.38-0.44-0.91-0.9-1.33c-0.24-0.21-0.47-0.38-0.77-0.55c-0.28-0.16-0.58-0.29-0.86-0.36c-0.28-0.07-0.54-0.05-0.74,0.06
					c-0.2,0.1-0.34,0.37-0.37,0.62c-0.07,0.48-0.27,0.77-0.57,0.93c-0.29,0.16-0.66,0.13-1.01,0.01c-0.17-0.05-0.37-0.14-0.53-0.22
					c-0.15-0.09-0.32-0.18-0.48-0.3c-0.32-0.21-0.62-0.48-0.88-0.76c-0.54-0.57-0.8-1.25-0.88-1.64
					C1483.4,741.74,1483.43,741.55,1483.43,741.55z"/>
				<path class="st85" d="M1502.86,752.77c0,0,0.03,0.23-0.05,0.53c-0.09,0.29-0.35,0.67-0.88,0.62c-0.26-0.02-0.56-0.09-0.88-0.25
					c-0.07-0.03-0.18-0.08-0.25-0.13l-0.23-0.13c-0.16-0.1-0.36-0.23-0.53-0.38c-0.35-0.29-0.72-0.69-1.01-1.19
					c-0.29-0.5-0.5-1.02-0.57-1.58c-0.03-0.29-0.17-0.72-0.37-1.05c-0.2-0.34-0.46-0.66-0.74-0.91c-0.28-0.25-0.58-0.47-0.86-0.63
					c-0.31-0.18-0.53-0.27-0.77-0.34c-0.46-0.12-0.77,0.06-0.9,0.29c-0.14,0.22-0.16,0.42-0.16,0.42s-0.03-0.23,0.05-0.53
					c0.09-0.29,0.35-0.67,0.88-0.62c0.25,0.01,0.58,0.1,0.88,0.25c0.32,0.15,0.66,0.35,1.01,0.64c0.35,0.29,0.72,0.69,1.01,1.19
					c0.29,0.5,0.5,1.02,0.57,1.58c0.03,0.29,0.17,0.72,0.37,1.05c0.2,0.34,0.46,0.66,0.74,0.91c0.14,0.14,0.27,0.22,0.42,0.34
					l0.23,0.16c0.49,0.3,0.75,0.41,0.98,0.47c0.46,0.12,0.77-0.06,0.9-0.29C1502.84,752.96,1502.86,752.77,1502.86,752.77z"/>
				<path class="st85" d="M1506.56,754.91c0,0,0.02,0.22,0.16,0.6c0.13,0.38,0.43,0.91,0.9,1.33c0.23,0.21,0.49,0.4,0.77,0.55
					c0.08,0.04,0.12,0.08,0.21,0.11l0.23,0.11c0.15,0.05,0.28,0.11,0.42,0.14c0.28,0.07,0.54,0.05,0.74-0.06
					c0.2-0.1,0.34-0.37,0.37-0.62c0.07-0.48,0.27-0.77,0.57-0.93c0.29-0.16,0.66-0.13,1.01-0.01c0.35,0.11,0.69,0.3,1.01,0.52
					c0.29,0.19,0.63,0.48,0.88,0.76c0.54,0.57,0.8,1.25,0.88,1.64c0.08,0.41,0.05,0.59,0.05,0.59s-0.02-0.22-0.16-0.6
					c-0.13-0.38-0.44-0.91-0.9-1.33c-0.24-0.21-0.47-0.38-0.77-0.55c-0.28-0.16-0.58-0.29-0.86-0.36c-0.28-0.07-0.54-0.05-0.74,0.06
					c-0.2,0.1-0.34,0.37-0.37,0.62c-0.07,0.48-0.27,0.77-0.57,0.93c-0.29,0.16-0.66,0.13-1.01,0.01c-0.17-0.05-0.37-0.14-0.53-0.22
					c-0.15-0.09-0.32-0.18-0.48-0.3c-0.32-0.2-0.62-0.48-0.88-0.76c-0.54-0.57-0.8-1.25-0.88-1.64
					C1506.53,755.09,1506.56,754.91,1506.56,754.91z"/>
				<path class="st85" d="M1525.99,766.12c0,0,0.03,0.23-0.05,0.53c-0.09,0.29-0.35,0.67-0.88,0.62c-0.26-0.02-0.56-0.09-0.88-0.25
					c-0.16-0.07-0.33-0.18-0.48-0.26c-0.16-0.1-0.36-0.23-0.53-0.38c-0.35-0.29-0.72-0.69-1.01-1.19c-0.29-0.5-0.5-1.02-0.57-1.58
					c-0.03-0.29-0.17-0.72-0.37-1.05c-0.2-0.34-0.46-0.66-0.74-0.91c-0.28-0.25-0.58-0.47-0.86-0.63c-0.31-0.18-0.53-0.27-0.77-0.34
					c-0.46-0.12-0.77,0.06-0.9,0.29c-0.14,0.22-0.16,0.42-0.16,0.42s-0.03-0.23,0.05-0.53c0.09-0.29,0.35-0.67,0.88-0.62
					c0.25,0.01,0.58,0.1,0.88,0.25c0.32,0.15,0.66,0.35,1.01,0.64c0.35,0.29,0.72,0.69,1.01,1.19c0.29,0.5,0.5,1.02,0.57,1.58
					c0.03,0.29,0.17,0.72,0.37,1.05c0.2,0.34,0.46,0.66,0.74,0.91c0.14,0.14,0.27,0.23,0.42,0.34l0.23,0.16
					c0.08,0.06,0.12,0.08,0.21,0.13c0.28,0.17,0.54,0.28,0.77,0.34c0.46,0.12,0.77-0.06,0.9-0.29
					C1525.97,766.32,1525.99,766.12,1525.99,766.12z"/>
				<path class="st85" d="M1529.69,768.26c0,0,0.02,0.22,0.16,0.6c0.13,0.38,0.44,0.91,0.9,1.33c0.23,0.21,0.49,0.4,0.77,0.55
					c0.21,0.11,0.44,0.22,0.44,0.22c0.15,0.05,0.28,0.11,0.42,0.14c0.28,0.07,0.54,0.05,0.74-0.06c0.2-0.1,0.34-0.37,0.37-0.62
					c0.07-0.48,0.27-0.77,0.57-0.93c0.29-0.16,0.66-0.13,1.01-0.02c0.35,0.11,0.69,0.3,1.01,0.52c0.29,0.19,0.63,0.48,0.88,0.76
					c0.54,0.57,0.8,1.25,0.88,1.64c0.08,0.41,0.05,0.59,0.05,0.59s-0.02-0.22-0.16-0.6c-0.13-0.38-0.44-0.91-0.9-1.33
					c-0.24-0.21-0.47-0.38-0.77-0.55c-0.28-0.16-0.58-0.29-0.86-0.36c-0.28-0.07-0.54-0.05-0.74,0.06c-0.2,0.1-0.34,0.37-0.37,0.62
					c-0.07,0.48-0.27,0.77-0.57,0.93c-0.29,0.16-0.66,0.13-1.01,0.01c-0.17-0.05-0.37-0.14-0.53-0.22l-0.23-0.14
					c-0.07-0.04-0.18-0.12-0.25-0.16c-0.32-0.21-0.62-0.48-0.88-0.76c-0.54-0.57-0.8-1.25-0.88-1.64
					C1529.66,768.45,1529.69,768.26,1529.69,768.26z"/>
				<path class="st85" d="M1549.12,779.48c0,0,0.03,0.23-0.05,0.53c-0.09,0.29-0.35,0.67-0.88,0.62c-0.26-0.02-0.56-0.09-0.88-0.25
					c-0.16-0.07-0.34-0.18-0.48-0.26c-0.16-0.1-0.36-0.23-0.53-0.38c-0.35-0.29-0.72-0.69-1.01-1.18c-0.29-0.5-0.5-1.02-0.57-1.58
					c-0.03-0.3-0.17-0.72-0.37-1.05c-0.2-0.34-0.46-0.66-0.74-0.91c-0.28-0.25-0.58-0.47-0.86-0.63c-0.31-0.18-0.53-0.27-0.77-0.34
					c-0.46-0.12-0.77,0.06-0.9,0.29c-0.14,0.22-0.16,0.42-0.16,0.42s-0.03-0.23,0.05-0.53c0.09-0.29,0.35-0.67,0.88-0.62
					c0.25,0.01,0.58,0.1,0.88,0.25c0.32,0.15,0.66,0.35,1.01,0.64c0.35,0.29,0.72,0.69,1.01,1.19c0.29,0.5,0.5,1.02,0.56,1.58
					c0.03,0.29,0.17,0.72,0.37,1.05c0.2,0.34,0.46,0.66,0.74,0.91c0.14,0.14,0.27,0.23,0.42,0.34l0.23,0.16
					c0.08,0.06,0.12,0.08,0.21,0.13c0.28,0.17,0.54,0.28,0.77,0.34c0.46,0.12,0.77-0.06,0.9-0.29
					C1549.1,779.67,1549.12,779.48,1549.12,779.48z"/>
				<path class="st85" d="M1552.82,781.62c0,0,0.02,0.22,0.16,0.6c0.13,0.38,0.43,0.91,0.9,1.33c0.23,0.21,0.49,0.4,0.77,0.55
					c0.08,0.04,0.12,0.08,0.21,0.11l0.23,0.11c0.15,0.05,0.28,0.11,0.42,0.14c0.28,0.07,0.54,0.05,0.74-0.06
					c0.2-0.1,0.34-0.37,0.37-0.62c0.07-0.48,0.27-0.77,0.57-0.93c0.29-0.16,0.66-0.13,1.01-0.01c0.35,0.11,0.69,0.3,1.01,0.52
					c0.29,0.19,0.63,0.48,0.88,0.76c0.54,0.57,0.8,1.25,0.88,1.64c0.08,0.41,0.05,0.59,0.05,0.59s-0.02-0.22-0.16-0.6
					c-0.13-0.38-0.44-0.91-0.9-1.33c-0.24-0.21-0.47-0.38-0.77-0.55c-0.28-0.16-0.58-0.29-0.86-0.36c-0.28-0.07-0.54-0.05-0.74,0.06
					c-0.2,0.1-0.34,0.37-0.37,0.62c-0.07,0.48-0.27,0.77-0.57,0.93c-0.29,0.16-0.66,0.13-1.01,0.01c-0.17-0.05-0.37-0.14-0.53-0.22
					l-0.23-0.14c-0.07-0.04-0.18-0.12-0.25-0.16c-0.32-0.21-0.62-0.48-0.88-0.76c-0.54-0.57-0.8-1.25-0.88-1.64
					C1552.79,781.8,1552.82,781.62,1552.82,781.62z"/>
				<path class="st85" d="M1572.25,792.83c0,0,0.03,0.23-0.05,0.53c-0.09,0.29-0.35,0.67-0.88,0.62c-0.26-0.02-0.56-0.09-0.88-0.25
					c-0.16-0.07-0.34-0.18-0.48-0.26c-0.16-0.1-0.36-0.23-0.53-0.38c-0.35-0.29-0.72-0.69-1.01-1.19c-0.29-0.5-0.5-1.02-0.57-1.58
					c-0.03-0.29-0.17-0.72-0.37-1.05c-0.2-0.34-0.46-0.66-0.74-0.91c-0.28-0.25-0.58-0.47-0.86-0.63c-0.31-0.18-0.53-0.27-0.77-0.34
					c-0.46-0.12-0.77,0.06-0.9,0.29c-0.14,0.22-0.16,0.42-0.16,0.42s-0.03-0.23,0.05-0.53c0.09-0.29,0.35-0.67,0.88-0.62
					c0.25,0.01,0.58,0.1,0.88,0.25c0.32,0.15,0.66,0.35,1.01,0.64c0.35,0.29,0.72,0.69,1.01,1.19c0.29,0.5,0.5,1.02,0.57,1.58
					c0.03,0.29,0.17,0.72,0.37,1.05c0.2,0.34,0.46,0.66,0.74,0.91c0.14,0.14,0.27,0.22,0.42,0.34l0.23,0.16
					c0.08,0.06,0.12,0.08,0.21,0.13c0.28,0.17,0.54,0.28,0.77,0.34c0.46,0.12,0.77-0.06,0.9-0.29
					C1572.23,793.03,1572.25,792.83,1572.25,792.83z"/>
				<path class="st85" d="M1575.95,794.97c0,0,0.02,0.22,0.16,0.6c0.13,0.38,0.43,0.91,0.9,1.33c0.23,0.21,0.49,0.4,0.77,0.55
					c0.08,0.04,0.12,0.08,0.21,0.11l0.23,0.11c0.15,0.05,0.28,0.11,0.42,0.14c0.28,0.07,0.54,0.05,0.74-0.06
					c0.2-0.11,0.34-0.36,0.37-0.63c0.07-0.47,0.27-0.76,0.57-0.92c0.29-0.16,0.66-0.13,1.01-0.01c0.35,0.11,0.69,0.3,1.01,0.52
					c0.29,0.19,0.63,0.48,0.88,0.76c0.54,0.57,0.8,1.25,0.88,1.64c0.08,0.41,0.05,0.59,0.05,0.59s-0.02-0.22-0.16-0.6
					c-0.13-0.38-0.44-0.91-0.9-1.33c-0.24-0.21-0.47-0.38-0.77-0.55c-0.28-0.16-0.58-0.29-0.86-0.36c-0.28-0.07-0.54-0.05-0.74,0.06
					c-0.2,0.11-0.34,0.36-0.37,0.63c-0.07,0.47-0.27,0.76-0.57,0.92c-0.29,0.16-0.66,0.13-1.01,0.01c-0.17-0.05-0.37-0.14-0.53-0.22
					c-0.15-0.09-0.32-0.18-0.48-0.3c-0.32-0.21-0.62-0.48-0.88-0.76c-0.54-0.57-0.8-1.25-0.88-1.64
					C1575.92,795.16,1575.95,794.97,1575.95,794.97z"/>
				<path class="st85" d="M1595.38,806.19c0,0,0.03,0.22-0.05,0.53c-0.09,0.29-0.35,0.67-0.88,0.62c-0.26-0.02-0.56-0.09-0.88-0.25
					c-0.16-0.07-0.34-0.18-0.48-0.26c-0.16-0.1-0.36-0.23-0.53-0.38c-0.35-0.29-0.72-0.69-1.01-1.19c-0.29-0.5-0.5-1.03-0.57-1.58
					c-0.03-0.31-0.17-0.73-0.37-1.06c-0.2-0.34-0.46-0.66-0.74-0.91c-0.28-0.25-0.58-0.47-0.86-0.63c-0.31-0.18-0.53-0.27-0.77-0.34
					c-0.46-0.12-0.77,0.06-0.9,0.29c-0.14,0.23-0.16,0.42-0.16,0.42s-0.03-0.22,0.05-0.53c0.09-0.29,0.35-0.67,0.88-0.62
					c0.25,0.01,0.58,0.1,0.88,0.25c0.32,0.15,0.66,0.35,1.01,0.64c0.35,0.29,0.72,0.69,1.01,1.19c0.29,0.5,0.5,1.03,0.57,1.58
					c0.03,0.31,0.17,0.73,0.37,1.06c0.2,0.34,0.46,0.66,0.74,0.91c0.14,0.14,0.27,0.23,0.42,0.34l0.23,0.16
					c0.08,0.06,0.12,0.08,0.21,0.13c0.28,0.17,0.54,0.28,0.77,0.34c0.46,0.12,0.77-0.06,0.9-0.29
					C1595.36,806.38,1595.38,806.19,1595.38,806.19z"/>
				<path class="st85" d="M1599.08,808.32c0,0,0.02,0.22,0.16,0.6c0.13,0.38,0.43,0.91,0.9,1.33c0.23,0.21,0.49,0.4,0.77,0.55
					c0.08,0.04,0.12,0.08,0.21,0.11l0.23,0.11c0.15,0.05,0.28,0.11,0.42,0.14c0.28,0.07,0.54,0.05,0.74-0.06
					c0.2-0.11,0.34-0.36,0.37-0.63c0.07-0.47,0.27-0.76,0.57-0.92c0.29-0.16,0.66-0.13,1.01-0.01c0.35,0.11,0.69,0.3,1.01,0.52
					c0.29,0.19,0.63,0.48,0.88,0.76c0.54,0.57,0.8,1.25,0.88,1.64c0.08,0.41,0.05,0.59,0.05,0.59s-0.02-0.22-0.16-0.6
					c-0.13-0.38-0.44-0.91-0.9-1.33c-0.24-0.21-0.47-0.38-0.77-0.55c-0.28-0.16-0.58-0.29-0.86-0.36c-0.28-0.07-0.54-0.05-0.74,0.06
					c-0.2,0.11-0.34,0.36-0.37,0.63c-0.07,0.46-0.27,0.76-0.57,0.92c-0.29,0.16-0.66,0.13-1.01,0.01c-0.17-0.05-0.37-0.14-0.53-0.22
					c-0.15-0.09-0.32-0.18-0.48-0.3c-0.32-0.2-0.62-0.48-0.88-0.76c-0.54-0.57-0.8-1.25-0.88-1.64
					C1599.05,808.51,1599.08,808.32,1599.08,808.32z"/>
				<path class="st85" d="M1618.51,819.54c0,0,0.03,0.22-0.05,0.53c-0.09,0.29-0.35,0.67-0.88,0.62c-0.26-0.02-0.56-0.09-0.88-0.25
					c-0.16-0.07-0.33-0.18-0.48-0.26c-0.16-0.1-0.36-0.23-0.53-0.38c-0.35-0.29-0.72-0.69-1.01-1.19c-0.29-0.5-0.5-1.03-0.56-1.58
					c-0.03-0.31-0.17-0.73-0.37-1.06c-0.2-0.34-0.46-0.66-0.74-0.91c-0.28-0.25-0.58-0.47-0.86-0.63c-0.31-0.18-0.53-0.27-0.77-0.34
					c-0.46-0.12-0.77,0.06-0.9,0.29c-0.14,0.23-0.16,0.42-0.16,0.42s-0.03-0.23,0.05-0.53c0.09-0.29,0.35-0.67,0.88-0.62
					c0.25,0.01,0.58,0.1,0.88,0.25c0.32,0.15,0.66,0.35,1.01,0.64c0.35,0.29,0.72,0.69,1.01,1.19c0.29,0.5,0.5,1.03,0.57,1.58
					c0.03,0.31,0.17,0.73,0.37,1.06c0.2,0.34,0.46,0.66,0.74,0.91c0.14,0.14,0.27,0.22,0.42,0.34l0.23,0.16
					c0.08,0.06,0.12,0.08,0.21,0.13c0.28,0.17,0.54,0.28,0.77,0.34c0.46,0.12,0.77-0.07,0.9-0.29
					C1618.49,819.74,1618.51,819.54,1618.51,819.54z"/>
				<path class="st85" d="M1622.22,821.68c0,0,0.02,0.22,0.16,0.6c0.13,0.38,0.43,0.91,0.9,1.33c0.23,0.21,0.49,0.4,0.77,0.55
					c0.08,0.04,0.12,0.08,0.21,0.11l0.23,0.11c0.15,0.05,0.28,0.11,0.42,0.14c0.28,0.07,0.54,0.05,0.74-0.06
					c0.2-0.11,0.34-0.36,0.37-0.63c0.07-0.47,0.27-0.76,0.56-0.92c0.29-0.16,0.66-0.13,1.01-0.01c0.35,0.11,0.69,0.3,1.01,0.52
					c0.29,0.19,0.63,0.48,0.88,0.76c0.54,0.57,0.8,1.25,0.88,1.64c0.08,0.41,0.05,0.59,0.05,0.59s-0.02-0.22-0.16-0.6
					c-0.13-0.38-0.44-0.91-0.9-1.33c-0.24-0.21-0.47-0.38-0.77-0.55c-0.28-0.16-0.58-0.29-0.86-0.36c-0.28-0.07-0.54-0.05-0.74,0.06
					c-0.2,0.11-0.34,0.36-0.37,0.63c-0.07,0.47-0.27,0.76-0.57,0.92c-0.29,0.16-0.66,0.13-1.01,0.01c-0.17-0.05-0.37-0.14-0.53-0.22
					c-0.15-0.09-0.32-0.18-0.48-0.3c-0.32-0.21-0.62-0.48-0.88-0.76c-0.54-0.57-0.8-1.25-0.88-1.64
					C1622.18,821.87,1622.22,821.68,1622.22,821.68z"/>
				<path class="st85" d="M1641.64,832.9c0,0,0.03,0.22-0.05,0.53c-0.09,0.29-0.35,0.67-0.88,0.62c-0.26-0.02-0.56-0.09-0.88-0.25
					c-0.16-0.07-0.34-0.18-0.48-0.26c-0.16-0.1-0.36-0.23-0.53-0.38c-0.35-0.29-0.72-0.69-1.01-1.19c-0.29-0.5-0.5-1.03-0.57-1.58
					c-0.03-0.31-0.18-0.73-0.37-1.06c-0.2-0.34-0.46-0.66-0.74-0.91c-0.28-0.25-0.58-0.47-0.86-0.63c-0.31-0.18-0.53-0.27-0.77-0.34
					c-0.46-0.12-0.77,0.06-0.9,0.29c-0.14,0.22-0.16,0.42-0.16,0.42s-0.03-0.23,0.05-0.53c0.09-0.29,0.35-0.67,0.88-0.62
					c0.25,0.01,0.58,0.1,0.88,0.25c0.32,0.15,0.66,0.35,1.01,0.64c0.35,0.29,0.72,0.69,1.01,1.19c0.29,0.5,0.5,1.03,0.56,1.58
					c0.03,0.31,0.17,0.73,0.37,1.06c0.2,0.34,0.46,0.66,0.74,0.91c0.14,0.14,0.27,0.22,0.42,0.34l0.23,0.16
					c0.08,0.06,0.12,0.08,0.21,0.13c0.28,0.17,0.54,0.28,0.77,0.34c0.46,0.12,0.77-0.06,0.9-0.29
					C1641.62,833.09,1641.64,832.9,1641.64,832.9z"/>
				<path class="st85" d="M1645.35,835.03c0,0,0.02,0.22,0.16,0.6c0.13,0.38,0.43,0.91,0.9,1.33c0.23,0.21,0.49,0.4,0.77,0.55
					c0.08,0.04,0.12,0.08,0.21,0.11l0.23,0.11c0.15,0.05,0.28,0.11,0.42,0.14c0.28,0.07,0.54,0.05,0.74-0.06
					c0.2-0.1,0.34-0.37,0.37-0.62c0.07-0.48,0.27-0.77,0.57-0.93c0.29-0.16,0.66-0.13,1.01-0.01c0.35,0.11,0.69,0.3,1.01,0.52
					c0.29,0.19,0.63,0.48,0.88,0.76c0.54,0.57,0.8,1.25,0.88,1.64c0.08,0.41,0.05,0.59,0.05,0.59s-0.02-0.22-0.16-0.6
					c-0.13-0.38-0.44-0.91-0.9-1.33c-0.24-0.21-0.47-0.38-0.77-0.55c-0.28-0.16-0.58-0.29-0.86-0.36c-0.28-0.07-0.54-0.05-0.74,0.06
					c-0.2,0.1-0.34,0.37-0.37,0.62c-0.07,0.48-0.27,0.77-0.57,0.93c-0.29,0.16-0.66,0.13-1.01,0.01c-0.17-0.05-0.37-0.14-0.53-0.22
					c-0.15-0.09-0.32-0.18-0.48-0.3c-0.32-0.2-0.62-0.48-0.88-0.76c-0.54-0.57-0.8-1.25-0.88-1.64
					C1645.31,835.22,1645.35,835.03,1645.35,835.03z"/>
			</g>
		</g>
		<g>
			<polygon class="st2" points="1654.76,843.31 1833.54,740.62 1833.54,734.94 1654.76,837.63 			"/>
			<g>
				<path class="st87" d="M1826.09,741.55c0,0-0.02,0.22-0.16,0.6c-0.13,0.38-0.43,0.91-0.9,1.33c-0.23,0.21-0.49,0.4-0.77,0.55
					c-0.08,0.04-0.12,0.08-0.21,0.11l-0.23,0.11c-0.15,0.05-0.28,0.11-0.42,0.14c-0.28,0.07-0.54,0.05-0.74-0.06
					c-0.2-0.1-0.34-0.37-0.37-0.62c-0.07-0.48-0.27-0.77-0.57-0.93c-0.29-0.16-0.66-0.13-1.01-0.01c-0.35,0.11-0.69,0.3-1.01,0.52
					c-0.29,0.19-0.63,0.48-0.88,0.76c-0.54,0.57-0.8,1.25-0.88,1.64c-0.08,0.41-0.05,0.59-0.05,0.59s0.02-0.22,0.16-0.6
					c0.13-0.38,0.44-0.91,0.9-1.33c0.24-0.21,0.47-0.38,0.77-0.55c0.28-0.16,0.58-0.29,0.86-0.36c0.28-0.07,0.54-0.05,0.74,0.06
					c0.2,0.1,0.34,0.37,0.37,0.62c0.07,0.48,0.27,0.77,0.57,0.93c0.29,0.16,0.66,0.13,1.01,0.01c0.17-0.05,0.37-0.14,0.53-0.22
					c0.15-0.09,0.32-0.18,0.48-0.3c0.32-0.21,0.62-0.48,0.88-0.76c0.54-0.57,0.8-1.25,0.88-1.64
					C1826.12,741.74,1826.09,741.55,1826.09,741.55z"/>
				<path class="st87" d="M1806.66,752.77c0,0-0.03,0.23,0.05,0.53c0.09,0.29,0.35,0.67,0.88,0.62c0.26-0.02,0.56-0.09,0.88-0.25
					c0.07-0.03,0.18-0.08,0.25-0.13l0.23-0.13c0.16-0.1,0.36-0.23,0.53-0.38c0.35-0.29,0.72-0.69,1.01-1.19
					c0.29-0.5,0.5-1.02,0.57-1.58c0.03-0.29,0.17-0.72,0.37-1.05c0.2-0.34,0.46-0.66,0.74-0.91c0.28-0.25,0.58-0.47,0.86-0.63
					c0.31-0.18,0.53-0.27,0.77-0.34c0.46-0.12,0.77,0.06,0.9,0.29c0.14,0.22,0.16,0.42,0.16,0.42s0.03-0.23-0.05-0.53
					c-0.09-0.29-0.35-0.67-0.88-0.62c-0.25,0.01-0.58,0.1-0.88,0.25c-0.32,0.15-0.66,0.35-1.01,0.64c-0.35,0.29-0.72,0.69-1.01,1.19
					c-0.29,0.5-0.5,1.02-0.57,1.58c-0.03,0.29-0.17,0.72-0.37,1.05c-0.2,0.34-0.46,0.66-0.74,0.91c-0.14,0.14-0.27,0.22-0.42,0.34
					l-0.23,0.16c-0.49,0.3-0.75,0.41-0.98,0.47c-0.46,0.12-0.77-0.06-0.9-0.29C1806.69,752.96,1806.66,752.77,1806.66,752.77z"/>
				<path class="st87" d="M1802.96,754.91c0,0-0.02,0.22-0.16,0.6c-0.13,0.38-0.43,0.91-0.9,1.33c-0.23,0.21-0.49,0.4-0.77,0.55
					c-0.08,0.04-0.12,0.08-0.2,0.11l-0.23,0.11c-0.15,0.05-0.28,0.11-0.42,0.14c-0.28,0.07-0.54,0.05-0.74-0.06
					c-0.2-0.1-0.34-0.37-0.37-0.62c-0.07-0.48-0.27-0.77-0.57-0.93c-0.29-0.16-0.66-0.13-1.01-0.01c-0.35,0.11-0.69,0.3-1.01,0.52
					c-0.29,0.19-0.63,0.48-0.88,0.76c-0.54,0.57-0.8,1.25-0.88,1.64c-0.08,0.41-0.05,0.59-0.05,0.59s0.02-0.22,0.16-0.6
					c0.13-0.38,0.44-0.91,0.9-1.33c0.24-0.21,0.47-0.38,0.77-0.55c0.28-0.16,0.58-0.29,0.86-0.36c0.28-0.07,0.54-0.05,0.74,0.06
					c0.2,0.1,0.34,0.37,0.37,0.62c0.07,0.48,0.27,0.77,0.57,0.93c0.29,0.16,0.66,0.13,1.01,0.01c0.17-0.05,0.37-0.14,0.53-0.22
					c0.15-0.09,0.32-0.18,0.48-0.3c0.32-0.2,0.62-0.48,0.88-0.76c0.54-0.57,0.8-1.25,0.88-1.64
					C1802.99,755.09,1802.96,754.91,1802.96,754.91z"/>
				<path class="st87" d="M1783.53,766.12c0,0-0.03,0.23,0.05,0.53c0.09,0.29,0.35,0.67,0.88,0.62c0.26-0.02,0.56-0.09,0.88-0.25
					c0.16-0.07,0.34-0.18,0.48-0.26c0.16-0.1,0.36-0.23,0.53-0.38c0.35-0.29,0.72-0.69,1.01-1.19c0.29-0.5,0.5-1.02,0.57-1.58
					c0.03-0.29,0.17-0.72,0.37-1.05c0.2-0.34,0.46-0.66,0.74-0.91c0.28-0.25,0.58-0.47,0.86-0.63c0.31-0.18,0.53-0.27,0.77-0.34
					c0.46-0.12,0.77,0.06,0.9,0.29c0.14,0.22,0.16,0.42,0.16,0.42s0.03-0.23-0.05-0.53c-0.09-0.29-0.35-0.67-0.88-0.62
					c-0.25,0.01-0.58,0.1-0.88,0.25c-0.32,0.15-0.66,0.35-1.01,0.64c-0.35,0.29-0.72,0.69-1.01,1.19c-0.29,0.5-0.5,1.02-0.57,1.58
					c-0.03,0.29-0.17,0.72-0.37,1.05c-0.2,0.34-0.46,0.66-0.74,0.91c-0.14,0.14-0.27,0.23-0.42,0.34l-0.23,0.16
					c-0.08,0.06-0.12,0.08-0.21,0.13c-0.28,0.17-0.54,0.28-0.77,0.34c-0.46,0.12-0.77-0.06-0.9-0.29
					C1783.56,766.32,1783.53,766.12,1783.53,766.12z"/>
				<path class="st87" d="M1779.83,768.26c0,0-0.02,0.22-0.16,0.6c-0.13,0.38-0.43,0.91-0.9,1.33c-0.23,0.21-0.49,0.4-0.77,0.55
					c-0.2,0.11-0.44,0.22-0.44,0.22c-0.15,0.05-0.28,0.11-0.42,0.14c-0.28,0.07-0.54,0.05-0.74-0.06c-0.2-0.1-0.34-0.37-0.37-0.62
					c-0.07-0.48-0.27-0.77-0.57-0.93c-0.29-0.16-0.66-0.13-1.01-0.02c-0.35,0.11-0.69,0.3-1.01,0.52c-0.29,0.19-0.63,0.48-0.88,0.76
					c-0.54,0.57-0.8,1.25-0.88,1.64c-0.08,0.41-0.05,0.59-0.05,0.59s0.02-0.22,0.16-0.6c0.13-0.38,0.44-0.91,0.9-1.33
					c0.24-0.21,0.47-0.38,0.77-0.55c0.28-0.16,0.58-0.29,0.86-0.36c0.28-0.07,0.54-0.05,0.74,0.06c0.2,0.1,0.34,0.37,0.37,0.62
					c0.07,0.48,0.27,0.77,0.57,0.93c0.29,0.16,0.66,0.13,1.01,0.01c0.17-0.05,0.37-0.14,0.53-0.22l0.23-0.14
					c0.07-0.04,0.18-0.12,0.25-0.16c0.32-0.21,0.62-0.48,0.88-0.76c0.54-0.57,0.8-1.25,0.88-1.64
					C1779.86,768.45,1779.83,768.26,1779.83,768.26z"/>
				<path class="st87" d="M1760.4,779.48c0,0-0.03,0.23,0.05,0.53c0.09,0.29,0.35,0.67,0.88,0.62c0.26-0.02,0.56-0.09,0.88-0.25
					c0.16-0.07,0.34-0.18,0.48-0.26c0.16-0.1,0.36-0.23,0.53-0.38c0.35-0.29,0.72-0.69,1.01-1.18c0.29-0.5,0.5-1.02,0.57-1.58
					c0.03-0.3,0.17-0.72,0.37-1.05c0.2-0.34,0.46-0.66,0.74-0.91c0.28-0.25,0.58-0.47,0.86-0.63c0.31-0.18,0.53-0.27,0.77-0.34
					c0.46-0.12,0.77,0.06,0.9,0.29c0.14,0.22,0.16,0.42,0.16,0.42s0.03-0.23-0.05-0.53c-0.09-0.29-0.35-0.67-0.88-0.62
					c-0.25,0.01-0.58,0.1-0.88,0.25c-0.32,0.15-0.66,0.35-1.01,0.64c-0.35,0.29-0.72,0.69-1.01,1.19c-0.29,0.5-0.5,1.02-0.57,1.58
					c-0.03,0.29-0.17,0.72-0.37,1.05c-0.2,0.34-0.46,0.66-0.74,0.91c-0.14,0.14-0.27,0.23-0.42,0.34l-0.23,0.16
					c-0.08,0.06-0.12,0.08-0.21,0.13c-0.28,0.17-0.54,0.28-0.77,0.34c-0.46,0.12-0.77-0.06-0.9-0.29
					C1760.43,779.67,1760.4,779.48,1760.4,779.48z"/>
				<path class="st87" d="M1756.7,781.62c0,0-0.02,0.22-0.16,0.6c-0.13,0.38-0.43,0.91-0.9,1.33c-0.23,0.21-0.49,0.4-0.77,0.55
					c-0.08,0.04-0.12,0.08-0.21,0.11l-0.23,0.11c-0.15,0.05-0.28,0.11-0.42,0.14c-0.28,0.07-0.54,0.05-0.74-0.06
					c-0.2-0.1-0.34-0.37-0.37-0.62c-0.07-0.48-0.27-0.77-0.57-0.93c-0.29-0.16-0.66-0.13-1.01-0.01c-0.35,0.11-0.69,0.3-1.01,0.52
					c-0.29,0.19-0.63,0.48-0.88,0.76c-0.54,0.57-0.8,1.25-0.88,1.64c-0.08,0.41-0.05,0.59-0.05,0.59s0.02-0.22,0.16-0.6
					c0.13-0.38,0.44-0.91,0.9-1.33c0.24-0.21,0.47-0.38,0.77-0.55c0.28-0.16,0.58-0.29,0.86-0.36c0.28-0.07,0.54-0.05,0.74,0.06
					c0.2,0.1,0.34,0.37,0.37,0.62c0.07,0.48,0.27,0.77,0.57,0.93c0.29,0.16,0.66,0.13,1.01,0.01c0.17-0.05,0.37-0.14,0.53-0.22
					l0.23-0.14c0.07-0.04,0.18-0.12,0.25-0.16c0.32-0.21,0.62-0.48,0.88-0.76c0.54-0.57,0.8-1.25,0.88-1.64
					C1756.73,781.8,1756.7,781.62,1756.7,781.62z"/>
				<path class="st87" d="M1737.27,792.83c0,0-0.03,0.23,0.05,0.53c0.09,0.29,0.35,0.67,0.88,0.62c0.26-0.02,0.56-0.09,0.88-0.25
					c0.16-0.07,0.34-0.18,0.48-0.26c0.16-0.1,0.36-0.23,0.53-0.38c0.35-0.29,0.72-0.69,1.01-1.19c0.29-0.5,0.5-1.02,0.57-1.58
					c0.03-0.29,0.17-0.72,0.37-1.05c0.2-0.34,0.46-0.66,0.74-0.91c0.28-0.25,0.58-0.47,0.86-0.63c0.31-0.18,0.53-0.27,0.77-0.34
					c0.46-0.12,0.77,0.06,0.9,0.29c0.14,0.22,0.16,0.42,0.16,0.42s0.03-0.23-0.05-0.53c-0.09-0.29-0.35-0.67-0.88-0.62
					c-0.25,0.01-0.58,0.1-0.88,0.25c-0.32,0.15-0.66,0.35-1.01,0.64c-0.35,0.29-0.72,0.69-1.01,1.19c-0.29,0.5-0.5,1.02-0.57,1.58
					c-0.03,0.29-0.17,0.72-0.37,1.05c-0.2,0.34-0.46,0.66-0.74,0.91c-0.14,0.14-0.27,0.22-0.42,0.34l-0.23,0.16
					c-0.08,0.06-0.12,0.08-0.21,0.13c-0.28,0.17-0.54,0.28-0.77,0.34c-0.46,0.12-0.77-0.06-0.9-0.29
					C1737.3,793.03,1737.27,792.83,1737.27,792.83z"/>
				<path class="st87" d="M1733.57,794.97c0,0-0.02,0.22-0.16,0.6c-0.13,0.38-0.43,0.91-0.9,1.33c-0.23,0.21-0.49,0.4-0.77,0.55
					c-0.08,0.04-0.12,0.08-0.21,0.11l-0.23,0.11c-0.15,0.05-0.28,0.11-0.42,0.14c-0.28,0.07-0.54,0.05-0.74-0.06
					c-0.2-0.11-0.34-0.36-0.37-0.63c-0.07-0.47-0.27-0.76-0.57-0.92c-0.29-0.16-0.66-0.13-1.01-0.01c-0.35,0.11-0.69,0.3-1.01,0.52
					c-0.29,0.19-0.63,0.48-0.88,0.76c-0.54,0.57-0.8,1.25-0.88,1.64c-0.08,0.41-0.05,0.59-0.05,0.59s0.02-0.22,0.16-0.6
					c0.13-0.38,0.44-0.91,0.9-1.33c0.24-0.21,0.47-0.38,0.77-0.55c0.28-0.16,0.58-0.29,0.86-0.36c0.28-0.07,0.54-0.05,0.74,0.06
					c0.2,0.11,0.34,0.36,0.37,0.63c0.07,0.47,0.27,0.76,0.57,0.92c0.29,0.16,0.66,0.13,1.01,0.01c0.17-0.05,0.37-0.14,0.53-0.22
					c0.15-0.09,0.32-0.18,0.48-0.3c0.32-0.21,0.62-0.48,0.88-0.76c0.54-0.57,0.8-1.25,0.88-1.64
					C1733.6,795.16,1733.57,794.97,1733.57,794.97z"/>
				<path class="st87" d="M1714.14,806.19c0,0-0.03,0.22,0.05,0.53c0.09,0.29,0.35,0.67,0.88,0.62c0.26-0.02,0.56-0.09,0.88-0.25
					c0.16-0.07,0.33-0.18,0.48-0.26c0.16-0.1,0.36-0.23,0.53-0.38c0.35-0.29,0.72-0.69,1.01-1.19c0.29-0.5,0.5-1.03,0.57-1.58
					c0.03-0.31,0.17-0.73,0.37-1.06c0.2-0.34,0.46-0.66,0.74-0.91c0.28-0.25,0.58-0.47,0.86-0.63c0.31-0.18,0.53-0.27,0.77-0.34
					c0.46-0.12,0.77,0.06,0.9,0.29c0.14,0.23,0.16,0.42,0.16,0.42s0.03-0.22-0.05-0.53c-0.09-0.29-0.35-0.67-0.88-0.62
					c-0.25,0.01-0.58,0.1-0.88,0.25c-0.32,0.15-0.66,0.35-1.01,0.64c-0.35,0.29-0.72,0.69-1.01,1.19c-0.29,0.5-0.5,1.03-0.57,1.58
					c-0.03,0.31-0.17,0.73-0.37,1.06c-0.2,0.34-0.46,0.66-0.74,0.91c-0.14,0.14-0.27,0.23-0.42,0.34l-0.23,0.16
					c-0.08,0.06-0.12,0.08-0.21,0.13c-0.28,0.17-0.54,0.28-0.77,0.34c-0.46,0.12-0.77-0.06-0.9-0.29
					C1714.17,806.38,1714.14,806.19,1714.14,806.19z"/>
				<path class="st87" d="M1710.44,808.32c0,0-0.02,0.22-0.16,0.6c-0.13,0.38-0.43,0.91-0.9,1.33c-0.23,0.21-0.49,0.4-0.77,0.55
					c-0.08,0.04-0.12,0.08-0.21,0.11l-0.23,0.11c-0.15,0.05-0.28,0.11-0.42,0.14c-0.28,0.07-0.54,0.05-0.74-0.06
					c-0.2-0.11-0.34-0.36-0.37-0.63c-0.07-0.47-0.27-0.76-0.57-0.92c-0.29-0.16-0.66-0.13-1.01-0.01c-0.35,0.11-0.69,0.3-1.01,0.52
					c-0.29,0.19-0.63,0.48-0.88,0.76c-0.54,0.57-0.8,1.25-0.88,1.64c-0.08,0.41-0.05,0.59-0.05,0.59s0.02-0.22,0.16-0.6
					c0.13-0.38,0.44-0.91,0.9-1.33c0.24-0.21,0.47-0.38,0.77-0.55c0.28-0.16,0.58-0.29,0.86-0.36c0.28-0.07,0.54-0.05,0.74,0.06
					c0.2,0.11,0.34,0.36,0.37,0.63c0.07,0.46,0.27,0.76,0.57,0.92c0.29,0.16,0.66,0.13,1.01,0.01c0.17-0.05,0.37-0.14,0.53-0.22
					c0.15-0.09,0.32-0.18,0.48-0.3c0.32-0.2,0.62-0.48,0.88-0.76c0.54-0.57,0.8-1.25,0.88-1.64
					C1710.47,808.51,1710.44,808.32,1710.44,808.32z"/>
				<path class="st87" d="M1691.01,819.54c0,0-0.03,0.22,0.05,0.53c0.09,0.29,0.35,0.67,0.88,0.62c0.26-0.02,0.56-0.09,0.88-0.25
					c0.16-0.07,0.33-0.18,0.48-0.26c0.16-0.1,0.36-0.23,0.53-0.38c0.35-0.29,0.72-0.69,1.01-1.19c0.29-0.5,0.5-1.03,0.57-1.58
					c0.03-0.31,0.17-0.73,0.37-1.06c0.2-0.34,0.46-0.66,0.74-0.91c0.28-0.25,0.58-0.47,0.86-0.63c0.31-0.18,0.53-0.27,0.77-0.34
					c0.46-0.12,0.77,0.06,0.9,0.29c0.14,0.23,0.16,0.42,0.16,0.42s0.03-0.23-0.05-0.53c-0.09-0.29-0.35-0.67-0.88-0.62
					c-0.25,0.01-0.58,0.1-0.88,0.25c-0.32,0.15-0.66,0.35-1.01,0.64c-0.35,0.29-0.72,0.69-1.01,1.19c-0.29,0.5-0.5,1.03-0.57,1.58
					c-0.03,0.31-0.17,0.73-0.37,1.06c-0.2,0.34-0.46,0.66-0.74,0.91c-0.14,0.14-0.27,0.22-0.42,0.34l-0.23,0.16
					c-0.08,0.06-0.12,0.08-0.21,0.13c-0.28,0.17-0.54,0.28-0.77,0.34c-0.46,0.12-0.77-0.07-0.9-0.29
					C1691.03,819.74,1691.01,819.54,1691.01,819.54z"/>
				<path class="st87" d="M1687.31,821.68c0,0-0.02,0.22-0.16,0.6c-0.13,0.38-0.43,0.91-0.9,1.33c-0.23,0.21-0.49,0.4-0.77,0.55
					c-0.08,0.04-0.12,0.08-0.21,0.11l-0.23,0.11c-0.15,0.05-0.28,0.11-0.42,0.14c-0.28,0.07-0.54,0.05-0.74-0.06
					c-0.2-0.11-0.34-0.36-0.37-0.63c-0.07-0.47-0.27-0.76-0.57-0.92c-0.29-0.16-0.66-0.13-1.01-0.01c-0.35,0.11-0.69,0.3-1.01,0.52
					c-0.29,0.19-0.63,0.48-0.88,0.76c-0.54,0.57-0.8,1.25-0.88,1.64c-0.08,0.41-0.05,0.59-0.05,0.59s0.02-0.22,0.16-0.6
					c0.13-0.38,0.44-0.91,0.9-1.33c0.24-0.21,0.47-0.38,0.77-0.55c0.28-0.16,0.58-0.29,0.86-0.36c0.28-0.07,0.54-0.05,0.74,0.06
					c0.2,0.11,0.34,0.36,0.37,0.63c0.07,0.47,0.27,0.76,0.57,0.92c0.29,0.16,0.66,0.13,1.01,0.01c0.17-0.05,0.37-0.14,0.53-0.22
					c0.15-0.09,0.32-0.18,0.48-0.3c0.32-0.21,0.62-0.48,0.88-0.76c0.54-0.57,0.8-1.25,0.88-1.64
					C1687.34,821.87,1687.31,821.68,1687.31,821.68z"/>
				<path class="st87" d="M1667.88,832.9c0,0-0.03,0.22,0.05,0.53c0.09,0.29,0.35,0.67,0.88,0.62c0.26-0.02,0.56-0.09,0.88-0.25
					c0.16-0.07,0.34-0.18,0.48-0.26c0.16-0.1,0.36-0.23,0.53-0.38c0.35-0.29,0.72-0.69,1.01-1.19c0.29-0.5,0.5-1.03,0.57-1.58
					c0.03-0.31,0.18-0.73,0.37-1.06c0.2-0.34,0.46-0.66,0.74-0.91c0.28-0.25,0.58-0.47,0.86-0.63c0.31-0.18,0.53-0.27,0.77-0.34
					c0.46-0.12,0.77,0.06,0.9,0.29c0.14,0.22,0.16,0.42,0.16,0.42s0.03-0.23-0.05-0.53c-0.09-0.29-0.35-0.67-0.88-0.62
					c-0.25,0.01-0.58,0.1-0.88,0.25c-0.32,0.15-0.66,0.35-1.01,0.64c-0.35,0.29-0.72,0.69-1.01,1.19c-0.29,0.5-0.5,1.03-0.57,1.58
					c-0.03,0.31-0.17,0.73-0.37,1.06c-0.2,0.34-0.46,0.66-0.74,0.91c-0.14,0.14-0.27,0.22-0.42,0.34l-0.23,0.16
					c-0.08,0.06-0.12,0.08-0.21,0.13c-0.28,0.17-0.54,0.28-0.77,0.34c-0.46,0.12-0.77-0.06-0.9-0.29
					C1667.9,833.09,1667.88,832.9,1667.88,832.9z"/>
				<path class="st87" d="M1664.18,835.03c0,0-0.02,0.22-0.16,0.6c-0.13,0.38-0.44,0.91-0.9,1.33c-0.23,0.21-0.49,0.4-0.77,0.55
					c-0.08,0.04-0.12,0.08-0.21,0.11l-0.23,0.11c-0.15,0.05-0.28,0.11-0.42,0.14c-0.28,0.07-0.54,0.05-0.74-0.06
					c-0.2-0.1-0.34-0.37-0.37-0.62c-0.07-0.48-0.27-0.77-0.57-0.93c-0.29-0.16-0.66-0.13-1.01-0.01c-0.35,0.11-0.69,0.3-1.01,0.52
					c-0.29,0.19-0.63,0.48-0.88,0.76c-0.54,0.57-0.8,1.25-0.88,1.64c-0.08,0.41-0.05,0.59-0.05,0.59s0.02-0.22,0.16-0.6
					c0.13-0.38,0.44-0.91,0.9-1.33c0.24-0.21,0.47-0.38,0.77-0.55c0.28-0.16,0.58-0.29,0.86-0.36c0.28-0.07,0.54-0.05,0.74,0.06
					c0.2,0.1,0.34,0.37,0.37,0.62c0.07,0.48,0.27,0.77,0.57,0.93c0.29,0.16,0.66,0.13,1.01,0.01c0.17-0.05,0.37-0.14,0.53-0.22
					c0.15-0.09,0.32-0.18,0.48-0.3c0.32-0.2,0.62-0.48,0.88-0.76c0.54-0.57,0.8-1.25,0.88-1.64
					C1664.21,835.22,1664.18,835.03,1664.18,835.03z"/>
			</g>
		</g>
		<g>
			<g>
				<polygon class="st1" points="1654.76,757.33 1654.76,796.76 1478.14,694.79 1478.14,655.36 				"/>
				<g>
					<polygon class="st85" points="1487.92,669.85 1479.65,665.07 1479.65,659.02 1487.92,663.79 					"/>
					<polygon class="st85" points="1499.66,676.62 1491.39,671.85 1491.39,665.8 1499.66,670.57 					"/>
					<polygon class="st85" points="1511.4,683.4 1503.13,678.63 1503.13,672.58 1511.4,677.35 					"/>
					<polygon class="st85" points="1523.15,690.18 1514.87,685.41 1514.87,679.36 1523.15,684.13 					"/>
					<polygon class="st85" points="1534.89,696.96 1526.61,692.18 1526.61,686.13 1534.89,690.91 					"/>
					<polygon class="st85" points="1546.63,703.74 1538.36,698.96 1538.36,692.91 1546.63,697.69 					"/>
					<polygon class="st85" points="1558.37,710.52 1550.1,705.74 1550.1,699.69 1558.37,704.47 					"/>
					<polygon class="st85" points="1570.11,717.3 1561.84,712.52 1561.84,706.47 1570.11,711.25 					"/>
					<polygon class="st85" points="1581.85,724.08 1573.58,719.3 1573.58,713.25 1581.85,718.03 					"/>
					<polygon class="st85" points="1593.59,730.86 1585.32,726.08 1585.32,720.03 1593.59,724.8 					"/>
					<polygon class="st85" points="1605.33,737.63 1597.06,732.86 1597.06,726.81 1605.33,731.58 					"/>
					<polygon class="st85" points="1617.08,744.41 1608.8,739.64 1608.8,733.59 1617.08,738.36 					"/>
					<polygon class="st85" points="1628.82,751.19 1620.55,746.42 1620.55,740.37 1628.82,745.14 					"/>
					<polygon class="st85" points="1640.56,757.97 1632.29,753.2 1632.29,747.14 1640.56,751.92 					"/>
					<polygon class="st85" points="1652.3,764.75 1644.03,759.97 1644.03,753.92 1652.3,758.7 					"/>
				</g>
			</g>
			<g>
				<polygon class="st2" points="1654.76,757.33 1654.76,796.76 1755.9,738.9 1756.01,699.68 				"/>
				<g>
					<polygon class="st87" points="1742.35,715.27 1750.62,710.5 1750.62,704.45 1742.35,709.22 					"/>
					<polygon class="st87" points="1730.6,722.05 1738.88,717.28 1738.88,711.23 1730.6,716 					"/>
					<polygon class="st87" points="1718.86,728.83 1727.14,724.06 1727.14,718.01 1718.86,722.78 					"/>
					<polygon class="st87" points="1707.12,735.61 1715.39,730.83 1715.39,724.78 1707.12,729.56 					"/>
					<polygon class="st87" points="1695.38,742.39 1703.65,737.61 1703.65,731.56 1695.38,736.34 					"/>
					<polygon class="st87" points="1683.64,749.17 1691.91,744.39 1691.91,738.34 1683.64,743.12 					"/>
					<polygon class="st87" points="1671.9,755.95 1680.17,751.17 1680.17,745.12 1671.9,749.9 					"/>
					<polygon class="st87" points="1660.16,762.73 1668.43,757.95 1668.43,751.9 1660.16,756.68 					"/>
				</g>
			</g>
			<polygon class="st90" points="1579.28,597.65 1478.03,655.57 1654.76,757.61 1756.01,699.68 			"/>
		</g>
		<g>
			<polygon class="st2" points="1567.59,1044.69 1567.59,1058.41 1556.23,1064.97 1556.23,1078.69 1544.87,1085.25 1544.87,1098.97 
				1533.51,1105.53 1533.51,1119.25 1522.15,1125.81 1522.15,1139.53 1510.79,1146.09 1510.79,1159.81 1499.43,1166.37 
				1499.43,1180.39 1583.06,1132.86 1583.06,1050.53 1583.06,1049.91 1583.06,1036.52 			"/>
			<polygon class="st0" points="1427.44,947.31 1583.06,1036.52 1567.59,1044.69 1411.97,955.49 			"/>
			<polygon class="st91" points="1411.97,955.49 1567.59,1044.69 1567.59,1058.41 1411.97,969.21 			"/>
			<polygon class="st0" points="1411.97,969.21 1567.59,1058.41 1556.23,1064.97 1400.61,975.77 			"/>
			<polygon class="st91" points="1400.62,975.77 1556.24,1064.97 1556.24,1078.69 1400.62,989.49 			"/>
			<polygon class="st0" points="1400.62,989.49 1556.24,1078.69 1544.88,1085.25 1389.26,996.05 			"/>
			<polygon class="st91" points="1389.27,996.05 1544.89,1085.25 1544.89,1098.97 1389.27,1009.77 			"/>
			<polygon class="st0" points="1389.27,1009.77 1544.89,1098.97 1533.53,1105.53 1377.91,1016.33 			"/>
			<polygon class="st91" points="1377.92,1016.33 1533.54,1105.53 1533.54,1119.25 1377.92,1030.05 			"/>
			<polygon class="st0" points="1377.92,1030.05 1533.54,1119.25 1522.18,1125.81 1366.56,1036.61 			"/>
			<polygon class="st91" points="1366.57,1036.61 1522.19,1125.81 1522.19,1139.53 1366.57,1050.33 			"/>
			<polygon class="st0" points="1366.57,1050.33 1522.19,1139.53 1510.83,1146.09 1355.21,1056.89 			"/>
			<polygon class="st91" points="1355.22,1056.89 1510.84,1146.09 1510.84,1159.81 1355.22,1070.61 			"/>
			<polygon class="st0" points="1355.22,1070.61 1510.84,1159.81 1499.48,1166.37 1343.86,1077.17 			"/>
			<polygon class="st91" points="1343.87,1077.16 1499.49,1166.37 1499.49,1180.09 1343.87,1090.89 			"/>
		</g>
	</g>
</g>
</svg>
