<?xml version="1.0" encoding="utf-8"?>
<!-- Generator: Adobe Illustrator 27.2.0, SVG Export Plug-In . SVG Version: 6.00 Build 0)  -->
<svg version="1.1" id="Icons" xmlns="http://www.w3.org/2000/svg" xmlns:xlink="http://www.w3.org/1999/xlink" x="0px" y="0px"
	 viewBox="0 0 576 576" style="enable-background:new 0 0 576 576;" xml:space="preserve">
<style type="text/css">
	.st0{fill:#011520;}
</style>
<g>
	<path class="st0" d="M301.4,281.85c-0.42-0.45-1.06-0.81-1.8-1.07l-2.56-5.36c-0.45-0.93-1.25-1.64-2.22-1.98l-8.36-2.84
		l-2.62-17.32c-0.09-1.68-1.43-3.02-3.06-3.02h-21.7c-1.69,0-3.06,1.43-3.06,3.19v7.92h-9.54c-2.27,0-3.11,1.14-3.11,3.37v17.55
		c0,0-0.09,1.08,0.36,2.07l2.49,3.58c0,0,0.3,0.77,1.14,0.77h2.03c-0.08,0.52-0.14,1.05-0.14,1.59c0,5.54,4.5,10.04,10.04,10.04
		c5.53,0,10.04-4.5,10.04-10.04c0-0.54-0.06-1.07-0.14-1.59h2.52c-0.08,0.52-0.14,1.05-0.14,1.59c0,5.54,4.5,10.04,10.04,10.04
		c5.53,0,10.04-4.5,10.04-10.04c0-4.75-3.17-9.15-9.38-10l-23.72-8.01l0.93-2.75l31.37,10.65l3.01,6.31v10.94
		c0,0.86,0.73,1.57,1.62,1.57h16.6c1.11,0,1.54-1,0.98-1.66C309.55,293.13,305.07,285.79,301.4,281.85z M248.89,284.62l-2.08-3.1
		c-0.14-0.2-0.21-0.45-0.21-0.7v-15.82h2.5v15.44l1.87,2.78L248.89,284.62z M281.59,285.73c2.52,0,4.57,2.05,4.57,4.57
		c0,2.52-2.05,4.57-4.57,4.57c-2.52,0-4.57-2.05-4.57-4.57C277.02,287.78,279.07,285.73,281.59,285.73z M259.27,285.73
		c2.52,0,4.57,2.05,4.57,4.57c0,2.52-2.05,4.57-4.57,4.57c-2.52,0-4.56-2.05-4.56-4.57C254.71,287.78,256.76,285.73,259.27,285.73z
		 M259.84,261.57v-7.47h20.24l2.31,15.13L259.84,261.57z"/>
</g>
</svg>
