<?xml version="1.0" encoding="utf-8"?>
<!-- Generator: Adobe Illustrator 27.2.0, SVG Export Plug-In . SVG Version: 6.00 Build 0)  -->
<svg version="1.1" id="Icons" xmlns="http://www.w3.org/2000/svg" xmlns:xlink="http://www.w3.org/1999/xlink" x="0px" y="0px"
	 viewBox="0 0 576 576" style="enable-background:new 0 0 576 576;" xml:space="preserve">
<style type="text/css">
	.st0{fill:#011520;}
</style>
<g>
	<path class="st0" d="M299.99,253.43l-5.45-12.6l-3.36,3.36l4.2,9.72h-36.31l4.22-9.77l-3.36-3.36l-5.47,12.65
		c-0.12,0.28-0.18,0.58-0.18,0.88v25.78c0,1.22,0.99,2.21,2.21,2.21h41.47c1.22,0,2.21-0.99,2.21-2.21v-25.78
		C300.17,254.01,300.11,253.71,299.99,253.43z M280.45,272.44c0.06,0.15,0.09,0.31,0.09,0.49c0,0.73-0.59,1.33-1.33,1.33
		c0,0,0,0,0,0h-3.98c-0.42,0-0.82-0.2-1.07-0.54c-0.25-0.34-0.32-0.78-0.19-1.18l1.23-3.88c-1.41-0.73-2.37-2.21-2.37-3.9
		c0-2.43,1.97-4.4,4.4-4.4c2.43,0,4.4,1.97,4.4,4.4c0,1.7-0.96,3.17-2.37,3.9L280.45,272.44z"/>
	<path class="st0" d="M269.24,246.34h-2.81c-0.28,0-0.54,0.06-0.77,0.18c-0.59,0.29-1,0.89-1,1.59c0,0.98,0.79,1.77,1.77,1.77h21.4
		c0.98,0,1.77-0.79,1.77-1.77c0-0.64-0.34-1.19-0.84-1.5c-0.27-0.17-0.59-0.27-0.93-0.27h-2.56l8.92-8.92
		c0.33-0.33,0.52-0.78,0.52-1.25c0-0.47-0.19-0.92-0.52-1.25l-12.93-12.93c-0.69-0.69-1.81-0.69-2.5,0l-15.69,15.69
		c-0.33,0.33-0.52,0.78-0.52,1.25c0,0.47,0.19,0.92,0.52,1.25L269.24,246.34z M280.02,225.74l10.43,10.43l-10.17,10.17h-6.03
		l-7.41-7.41L280.02,225.74z"/>
</g>
</svg>
