<?xml version="1.0" encoding="UTF-8"?>
<svg width="148px" height="147px" viewBox="0 0 148 147" version="1.1" xmlns="http://www.w3.org/2000/svg" xmlns:xlink="http://www.w3.org/1999/xlink">
    <title>Group 6</title>
    <defs>
        <polygon id="path-1" points="0 0.1984696 146.80204 0.1984696 146.80204 147 0 147"></polygon>
    </defs>
    <g id="Page-1" stroke="none" stroke-width="1" fill="none" fill-rule="evenodd">
        <g id="Take-Action" transform="translate(-115.000000, -1877.000000)">
            <g id="Group-6" transform="translate(115.000000, 1877.000000)">
                <g id="Group-3" transform="translate(0.804521, 0.000000)">
                    <mask id="mask-2" fill="white">
                        <use xlink:href="#path-1"></use>
                    </mask>
                    <g id="Clip-2"></g>
                    <path d="M73.408076,11.2360136 C73.255196,11.2360136 73.105452,11.2360136 72.95218,11.2379736 C38.565548,11.4853256 10.792348,39.6622856 11.039308,74.0485256 C11.285876,108.281102 39.21666,135.962574 73.394356,135.962574 C73.547236,135.962574 73.69698,135.962574 73.850252,135.960614 C108.236884,135.713262 136.010476,107.536302 135.76234,73.1496696 C135.515772,38.9170936 107.58538,11.2360136 73.408076,11.2360136 M73.39318,147.000118 C33.163004,147.000118 0.292236,114.422174 0.001764,74.1277096 C-0.2891,33.6556696 32.400564,0.4916856 72.872604,0.2000376 C73.050572,0.1984696 73.231676,0.1984696 73.409252,0.1984696 C113.639036,0.1984696 146.509804,32.7760216 146.800276,73.0700936 C147.091532,113.542526 114.40226,146.70651 73.929828,146.998158 C73.752252,147.000118 73.570756,147.000118 73.39318,147.000118" id="Fill-1" fill="#000000" mask="url(#mask-2)"></path>
                </g>
                <path d="M74.4321353,89.9828226 C81.7487998,89.9828226 87.8045213,96.1981798 87.8045213,103.554286 C87.8045213,110.784643 81.7487998,117 74.4321353,117 C67.1135224,117 61.0578009,110.784643 61.0578009,103.554286 C61.0578009,96.1981798 67.1135224,89.9828226 74.4321353,89.9828226 L74.4321353,89.9828226 Z M60.8045213,31 L87.8045213,31 L84.6509948,84.1474539 L64.211717,84.1474539 L60.8045213,31 Z" id="Fill-4" fill="#000000"></path>
            </g>
        </g>
    </g>
</svg>