<?xml version="1.0" encoding="UTF-8"?>
<svg width="148px" height="147px" viewBox="0 0 148 147" version="1.1" xmlns="http://www.w3.org/2000/svg" xmlns:xlink="http://www.w3.org/1999/xlink">
    <title>Group 6</title>
    <defs>
        <polygon id="path-1" points="7.79489782e-05 0.1984696 145.957123 0.1984696 145.957123 147 7.79489782e-05 147"></polygon>
    </defs>
    <g id="Page-1" stroke="none" stroke-width="1" fill="none" fill-rule="evenodd">
        <g id="Take-Action" transform="translate(-116.000000, -2072.000000)">
            <g id="Group-6" transform="translate(117.000000, 2072.000000)">
                <g id="Group-3" transform="translate(-0.097252, 0.000000)">
                    <mask id="mask-2" fill="white">
                        <use xlink:href="#path-1"></use>
                    </mask>
                    <g id="Clip-2"></g>
                    <path d="M72.9786395,11.2360136 C38.7890485,11.2360136 10.9741248,39.2118776 10.9741248,73.5992936 C10.9741248,107.986318 38.7890485,135.962574 72.9786395,135.962574 C107.167841,135.962574 134.982764,107.986318 134.982764,73.5992936 C134.982764,39.2118776 107.167841,11.2360136 72.9786395,11.2360136 M72.9786395,147.000118 C32.7378693,147.000118 7.79489782e-05,114.07251 7.79489782e-05,73.5992936 C7.79489782e-05,33.1260776 32.7378693,0.1984696 72.9786395,0.1984696 C113.21902,0.1984696 145.957201,33.1260776 145.957201,73.5992936 C145.957201,114.07251 113.21902,147.000118 72.9786395,147.000118" id="Fill-1" fill="#000000" mask="url(#mask-2)"></path>
                </g>
                <path d="M70.580203,49.3568324 L70.580203,54.6772883 L65.2670129,54.6772883 C64.5730404,54.6772883 64.0293054,55.2513877 64.0293054,55.9166883 L64.0293054,58.3350774 C64.0293054,59.0307783 64.6033993,59.5744774 65.2670129,59.5744774 L70.580203,59.5744774 L70.580203,64.8949333 C70.580203,65.589465 71.1531293,66.1343333 71.8179105,66.1343333 L74.2326077,66.1343333 C74.9273586,66.1343333 75.469926,65.5594544 75.469926,64.8949333 L75.469926,59.5744774 L80.7835054,59.5744774 C81.4782563,59.5744774 82.0212128,59.0003779 82.0212128,58.3350774 L82.0212128,55.9166883 C82.0212128,55.2213771 81.4478974,54.6772883 80.7835054,54.6772883 L75.469926,54.6772883 L75.469926,49.3568324 C75.469926,48.6615212 74.8969998,48.1174324 74.2326077,48.1174324 L71.8179105,48.1174324 C71.1231596,48.1174324 70.580203,48.6915318 70.580203,49.3568324 L70.580203,49.3568324 Z M91.5912605,38.5042872 C92.3755311,38.5042872 93.0399231,39.1695878 93.0399231,39.9561002 L93.0399231,75.7463092 L52.9802363,75.7463092 L52.9802363,39.9561002 C52.9802363,39.1695878 53.6450175,38.5042872 54.4300666,38.5042872 L91.5912605,38.5042872 Z M74.2326077,89.380489 C74.8969998,89.380489 75.469926,89.924188 75.469926,90.619889 L75.469926,106.12681 C75.469926,106.792111 74.9273586,107.36621 74.2326077,107.36621 L71.8179105,107.36621 C71.1531293,107.36621 70.580203,106.822121 70.580203,106.12681 L70.580203,90.619889 C70.580203,89.9545884 71.1231596,89.380489 71.8179105,89.380489 L74.2326077,89.380489 Z M61.4635923,25.5969883 L61.4635923,30.4937876 L54.4300666,30.4937876 C49.2071746,30.4937876 44.980676,34.7564663 44.980676,39.9561002 L44.980676,111.538077 L44.9503171,111.538077 C44.9503171,116.737711 49.2071746,121 54.4000969,121 L91.5609016,121 C96.782626,121 101.009514,116.737711 101.009514,111.538077 L101.009514,39.9561002 C101.009514,34.7260659 96.7526563,30.4937876 91.5609016,30.4937876 L84.5265974,30.4937876 L84.5265974,25.5969883 C84.5265974,23.6318767 82.9269189,22 80.9345213,22 L65.0556685,22 C63.0932405,22 61.4635923,23.6018661 61.4635923,25.5969883 L61.4635923,25.5969883 Z" id="Fill-4" fill="#000000"></path>
            </g>
        </g>
    </g>
</svg>