<?xml version="1.0" encoding="UTF-8"?>
<svg width="148px" height="147px" viewBox="0 0 148 147" version="1.1" xmlns="http://www.w3.org/2000/svg" xmlns:xlink="http://www.w3.org/1999/xlink">
    <title>Group 10</title>
    <defs>
        <polygon id="path-1" points="0 0.1984696 145.957006 0.1984696 145.957006 147 0 147"></polygon>
    </defs>
    <g id="Page-1" stroke="none" stroke-width="1" fill="none" fill-rule="evenodd">
        <g id="Take-Action" transform="translate(-116.000000, -1262.000000)">
            <g id="Group-10" transform="translate(117.000000, 1262.000000)">
                <g id="Group-3" transform="translate(-0.097252, 0.000000)">
                    <mask id="mask-2" fill="white">
                        <use xlink:href="#path-1"></use>
                    </mask>
                    <g id="Clip-2"></g>
                    <path d="M72.9784446,11.2360136 C38.7892433,11.2360136 10.9743197,39.2118776 10.9743197,73.5992936 C10.9743197,107.986318 38.7892433,135.962574 72.9784446,135.962574 C107.168036,135.962574 134.982959,107.986318 134.982959,73.5992936 C134.982959,39.2118776 107.168036,11.2360136 72.9784446,11.2360136 M72.9784446,147.000118 C32.7380642,147.000118 -0.000116923467,114.07251 -0.000116923467,73.5992936 C-0.000116923467,33.1260776 32.7380642,0.1984696 72.9784446,0.1984696 C113.219215,0.1984696 145.957006,33.1260776 145.957006,73.5992936 C145.957006,114.07251 113.219215,147.000118 72.9784446,147.000118" id="Fill-1" fill="#000000" mask="url(#mask-2)"></path>
                </g>
                <path d="M39.4899399,73.6006688 L48.8163934,73.6006688 L50.2282192,85.7597956 L42.00625,85.7597956 L39.4899399,73.6006688 Z M46.7840489,56.101124 L48.1958747,68.2602508 L38.3850666,68.2602508 L35.8683675,56.101124 L46.7840489,56.101124 Z M94.7336054,68.2602508 L84.9224082,68.2602508 L86.334623,56.101124 L97.2503045,56.101124 L94.7336054,68.2602508 Z M84.3022786,73.6006688 L93.6287321,73.6006688 L91.112422,85.7597956 L90.9968772,85.7597956 L82.8904528,85.7597956 L84.3022786,73.6006688 Z M63.8967469,68.2602508 L53.5572336,68.2602508 L52.1450187,56.101124 L63.8967469,56.101124 L63.8967469,68.2602508 Z M79.5614384,68.2602508 L69.221536,68.2602508 L69.221536,56.101124 L80.9736533,56.101124 L79.5614384,68.2602508 Z M63.8967469,85.7597956 L55.589189,85.7597956 L54.1769741,73.6006688 L63.8967469,73.6006688 L63.8967469,85.7597956 Z M77.529483,85.7597956 L69.221536,85.7597956 L69.221536,73.6006688 L78.9413088,73.6006688 L77.529483,85.7597956 Z M90.9968772,91.1002137 C91.9757016,91.1002137 92.7716772,91.8984673 92.7716772,92.8800929 C92.7716772,93.8617185 91.9757016,94.6599721 90.9968772,94.6599721 L41.8249574,94.6599721 C40.3547756,94.6599721 39.1623683,95.8554018 39.1623683,97.329791 C39.1623683,98.8045704 40.3547756,100 41.8249574,100 L90.9968772,100 C94.9117857,100 98.0964663,96.8062053 98.0964663,92.8800929 C98.0964663,90.9620994 97.33317,89.2227961 96.0995245,87.9415327 L105.536465,42.3400279 L113.362781,42.3400279 C114.832963,42.3400279 116.02537,41.1445982 116.02537,39.6698189 C116.02537,38.1954296 114.832963,37 113.362781,37 L103.369513,37 C102.107857,37 101.019323,37.888379 100.762946,39.1275058 L98.3551778,50.7610961 L32.5965419,50.7610961 C31.7958978,50.7610961 31.03727,51.1231584 30.5319072,51.745843 C30.0261553,52.3689178 29.827356,53.1874594 29.9899746,53.9736182 L37.2327304,88.9723177 C37.4894967,90.2114445 38.5780304,91.1002137 39.8396868,91.1002137 L90.9968772,91.1002137 Z" id="Fill-4" fill="#000000"></path>
                <path d="M82.4899577,114.631558 C80.7615394,114.631558 79.3550891,113.226593 79.3550891,111.5 C79.3550891,109.773015 80.7615394,108.368442 82.4899577,108.368442 C84.218376,108.368442 85.6248263,109.773015 85.6248263,111.5 C85.6248263,113.226593 84.218376,114.631558 82.4899577,114.631558 M82.4899577,103 C77.7982562,103 73.9809725,106.812861 73.9809725,111.5 C73.9809725,116.186747 77.7982562,120 82.4899577,120 C87.1816593,120 90.9989429,116.186747 90.9989429,111.5 C90.9989429,106.812861 87.1816593,103 82.4899577,103" id="Fill-6" fill="#000000"></path>
                <path d="M50.4561311,114.631558 C48.7277128,114.631558 47.3212625,113.226593 47.3212625,111.5 C47.3212625,109.773015 48.7277128,108.368442 50.4561311,108.368442 C52.1845494,108.368442 53.5909997,109.773015 53.5909997,111.5 C53.5909997,113.226593 52.1845494,114.631558 50.4561311,114.631558 M50.4561311,103 C45.7644295,103 41.9471459,106.812861 41.9471459,111.5 C41.9471459,116.186747 45.7644295,120 50.4561311,120 C55.1482253,120 58.9651163,116.186747 58.9651163,111.5 C58.9651163,106.812861 55.1482253,103 50.4561311,103" id="Fill-8" fill="#000000"></path>
            </g>
        </g>
    </g>
</svg>