<?xml version="1.0" encoding="UTF-8"?>
<svg width="144px" height="144px" viewBox="0 0 144 144" version="1.1" xmlns="http://www.w3.org/2000/svg" xmlns:xlink="http://www.w3.org/1999/xlink">
    <title>Group 6</title>
    <defs>
        <polygon id="path-1" points="0 0.1931072 142.806931 0.1931072 142.806931 143 0 143"></polygon>
    </defs>
    <g id="Page-1" stroke="none" stroke-width="1" fill="none" fill-rule="evenodd">
        <g id="Subcommittees" transform="translate(-120.000000, -1539.000000)">
            <g id="Group-6" transform="translate(120.000000, 1539.000000)">
                <g id="Group-3" transform="translate(0.746445, 0.000000)">
                    <mask id="mask-2" fill="white">
                        <use xlink:href="#path-1"></use>
                    </mask>
                    <g id="Clip-2"></g>
                    <path d="M71.4034083,10.9303099 C37.9520856,10.9303099 10.7374696,38.1449259 10.7374696,71.5966299 C10.7374696,105.047953 37.9520856,132.26295 71.4034083,132.26295 C104.855112,132.26295 132.069728,105.047953 132.069728,71.5966299 C132.069728,38.1449259 104.855112,10.9303099 71.4034083,10.9303099 M71.4034083,143.000153 C32.0315043,143.000153 -0.0001144,110.968534 -0.0001144,71.5966299 C-0.0001144,32.2243445 32.0315043,0.1931072 71.4034083,0.1931072 C110.775694,0.1931072 142.806931,32.2243445 142.806931,71.5966299 C142.806931,110.968534 110.775694,143.000153 71.4034083,143.000153" id="Fill-1" fill="#000000" mask="url(#mask-2)"></path>
                </g>
                <path d="M92.9546658,34.4717941 C90.9294876,34.6667875 90.0434721,37.1519981 91.4816367,38.6041258 L94.6948639,41.8486639 L94.734655,41.8891919 L78.1963311,58.5810134 C77.2568819,59.5292169 75.7334507,59.5295992 74.7936224,58.5813958 L64.4490697,48.1477169 C63.5096204,47.1998958 61.9861892,47.2002782 61.04674,48.1480993 L29.4510796,80.0287634 C28.5112514,80.9769668 28.5116303,82.5143563 29.4518375,83.4621774 L33.3229445,87.3651051 C34.2627727,88.3125439 35.785825,88.3121615 36.7248952,87.3643404 L61.04674,62.8242238 C61.9861892,61.8760204 63.5096204,61.875638 64.4490697,62.8234591 L74.7940014,73.2575203 C75.7334507,74.2053414 77.2568819,74.2053414 78.1963311,73.257138 L100.307306,50.9452994 C101.246755,49.9974783 102.770186,49.9974783 103.710014,50.9452994 L105.187212,52.4356611 C106.625756,53.8870241 109.089773,52.9938776 109.283423,50.9506522 L110.73523,35.6593424 C110.879236,34.1410699 109.616153,32.866348 108.111291,33.0112549 L92.9546658,34.4717941 Z M94.3716085,108 L99.8396654,108 C101.16831,108 102.245701,106.913007 102.245701,105.57214 L102.245701,61.9268716 C102.245701,59.7635913 99.6532157,58.6808042 98.1377427,60.2109292 L92.6696857,65.7319202 C92.2190987,66.1872873 91.9655724,66.8040018 91.9655724,67.4478626 L91.9655724,105.57214 C91.9655724,106.913007 93.0425853,108 94.3716085,108 L94.3716085,108 Z M77.8177471,81.7194713 L77.8177471,105.57214 C77.8177471,106.913007 78.8947599,108 80.2237831,108 L85.6982825,108 C87.0273057,108 88.1043185,106.913007 88.1043185,105.57214 L88.1043185,76.1950392 C88.1043185,74.031759 85.5118327,72.9489718 83.9963597,74.4790969 L80.040365,78.4734039 L78.5233762,80.0019996 C78.0716523,80.4573666 77.8177471,81.0752282 77.8177471,81.7194713 L77.8177471,81.7194713 Z M66.0812633,107.992736 L71.5568995,107.992736 C72.8855438,107.992736 73.9629356,106.906125 73.9629356,105.565258 L73.9629356,80.5074532 C73.9629356,79.8639748 73.7094093,79.2461132 73.2580644,78.7911285 L67.7828071,73.2670788 C66.2669552,71.7381008 63.6752273,72.8208879 63.6752273,74.9837858 L63.6752273,105.565258 C63.6752273,106.906125 64.7526191,107.992736 66.0812633,107.992736 L66.0812633,107.992736 Z M35.3924614,96.8012586 L35.3924614,105.571758 C35.3924614,106.912625 36.4694742,107.999235 37.7984974,107.999235 L43.2737547,107.999235 C44.6027779,107.999235 45.6797907,106.912625 45.6797907,105.571758 L45.6797907,91.2760619 C45.6797907,89.1135464 43.0876839,88.0303769 41.5722109,89.5601196 L38.5757505,92.5840474 L36.0969536,95.0849339 C35.6459876,95.540301 35.3924614,96.1577803 35.3924614,96.8012586 L35.3924614,96.8012586 Z M51.9406383,108 L57.4147587,108 C58.7437819,108 59.8207947,106.913007 59.8207947,105.57214 L59.8207947,77.0052179 C59.8207947,74.8419376 57.2283089,73.7587682 55.7128359,75.2892756 L50.2387155,80.8156193 C49.7881285,81.2709863 49.5349812,81.8880832 49.5349812,82.5315616 L49.5349812,105.57214 C49.5349812,106.913007 50.612373,108 51.9406383,108 L51.9406383,108 Z" id="Fill-4" fill="#231F20"></path>
            </g>
        </g>
    </g>
</svg>