<?xml version="1.0" encoding="UTF-8"?>
<svg width="147px" height="147px" viewBox="0 0 147 147" version="1.1" xmlns="http://www.w3.org/2000/svg" xmlns:xlink="http://www.w3.org/1999/xlink">
    <title>Group 8</title>
    <defs>
        <polygon id="path-1" points="0 0.198744 145.957006 0.198744 145.957006 147 0 147"></polygon>
    </defs>
    <g id="Page-1" stroke="none" stroke-width="1" fill="none" fill-rule="evenodd">
        <g id="Take-Action" transform="translate(-117.000000, -1870.000000)">
            <g id="Group-8" transform="translate(117.000000, 1870.000000)">
                <g id="Group-3" transform="translate(0.054968, 0.000000)">
                    <mask id="mask-2" fill="white">
                        <use xlink:href="#path-1"></use>
                    </mask>
                    <g id="Clip-2"></g>
                    <path d="M72.9784446,11.236092 C38.7892433,11.236092 10.9743197,39.211956 10.9743197,73.599372 C10.9743197,107.986396 38.7892433,135.96226 72.9784446,135.96226 C107.168036,135.96226 134.982959,107.986396 134.982959,73.599372 C134.982959,39.211956 107.168036,11.236092 72.9784446,11.236092 M72.9784446,147.000196 C32.7380642,147.000196 -0.000116923467,114.072588 -0.000116923467,73.599372 C-0.000116923467,33.126156 32.7380642,0.198548 72.9784446,0.198548 C113.219215,0.198548 145.957006,33.126156 145.957006,73.599372 C145.957006,114.072588 113.219215,147.000196 72.9784446,147.000196" id="Fill-1" fill="#000000" mask="url(#mask-2)"></path>
                </g>
                <path d="M92.2848757,51.2201461 L71.87394,74.8615668 L60.4771297,60.1743979 C58.0138219,56.1566504 48.6869887,63.439651 50.2924047,67.5542542 L65.1211734,89.0358318 C69.0666144,94.9734399 74.6072958,93.7123549 77.856874,88.7417355 C77.856874,88.7417355 113.523176,36.8266814 112.133798,35.7185266 C108.703014,32.9873523 104.28675,38.0183596 92.2848757,51.2201461" id="Fill-4" fill="#000000"></path>
                <path d="M89.8952431,113 L52.3651878,113 C42.2887091,113 34.0909091,104.700193 34.0909091,94.4987228 L34.0909091,56.5012772 C34.0909091,46.2994141 42.2887091,38 52.3651878,38 L81.2952854,38 C83.5547511,38 85.3864142,39.8540617 85.3864142,42.1420359 C85.3864142,44.4296167 83.5547511,46.2840718 81.2952854,46.2840718 L52.3651878,46.2840718 C49.6853022,46.2840718 47.1550115,47.3513472 45.2413625,49.2892016 C43.327325,51.2266626 42.2731668,53.788045 42.2731668,56.5012772 L42.2731668,94.4987228 C42.2731668,97.2115616 43.327325,99.7733374 45.2413625,101.711192 C47.1550115,103.648653 49.6853022,104.715535 52.3651878,104.715535 L89.8952431,104.715535 C92.5751287,104.715535 95.1050308,103.648653 97.0186798,101.711192 C98.9327172,99.7733374 99.9868755,97.2115616 99.9868755,94.4987228 L99.9868755,70.4191315 C99.9868755,68.1311573 101.818539,66.2767022 104.078004,66.2767022 C106.33747,66.2767022 108.169133,68.1311573 108.169133,70.4191315 L108.169133,94.4987228 C108.169133,104.700193 99.9717218,113 89.8952431,113" id="Fill-6" fill="#000000"></path>
            </g>
        </g>
    </g>
</svg>