<?xml version="1.0" encoding="UTF-8"?>
<svg width="149px" height="148px" viewBox="0 0 376 375" version="1.1" xmlns="http://www.w3.org/2000/svg" xmlns:xlink="http://www.w3.org/1999/xlink">
    <title>circles</title>
    <g id="Page-1" stroke="none" stroke-width="1" fill="none" fill-rule="evenodd">
        <g id="circles" transform="translate(0.905113, 0.390000)" fill-rule="nonzero">
            <path d="M187.224887,374.49 C84.5948872,374.49 0.744887212,291.38 0.00488721248,188.59 C-0.735112788,85.34 82.6548872,0.74 185.894887,0 C186.344887,0 186.814887,0 187.264887,0 C289.894887,0 373.744887,83.11 374.484887,185.9 C375.224887,289.15 291.834887,373.75 188.594887,374.49 C188.144887,374.49 187.684887,374.49 187.224887,374.49 Z M187.264887,28.15 C186.874887,28.15 186.494887,28.15 186.104887,28.15 C98.3848872,28.78 27.5348872,100.66 28.1648872,188.38 C28.7948872,275.71 100.044887,346.32 187.234887,346.32 C187.624887,346.32 188.004887,346.32 188.394887,346.32 C276.114887,345.69 346.964887,273.81 346.334887,186.09 C345.704887,98.77 274.454887,28.15 187.264887,28.15 Z" id="Shape" fill="#231F20"></path>
            <circle id="Oval" fill="#231F20" cx="233.424887" cy="187.24" r="73.56"></circle>
            <g id="Group" transform="translate(67.514887, 113.690000)">
                <circle id="Oval" fill="#FFFFFF" cx="73.56" cy="73.55" r="67.06"></circle>
                <path d="M73.56,13 C106.95,13 134.12,40.17 134.12,73.56 C134.12,106.95 106.95,134.12 73.56,134.12 C40.17,134.12 13,106.95 13,73.56 C13,40.17 40.16,13 73.56,13 M73.56,0 C32.93,0 0,32.93 0,73.56 C0,114.19 32.93,147.12 73.56,147.12 C114.19,147.12 147.12,114.19 147.12,73.56 C147.12,32.93 114.18,0 73.56,0 L73.56,0 Z" id="Shape" fill="#231F20"></path>
            </g>
            <path d="M233.424887,126.69 C266.814887,126.69 293.984887,153.86 293.984887,187.25 C293.984887,220.64 266.814887,247.81 233.424887,247.81 C200.034887,247.81 172.864887,220.64 172.864887,187.25 C172.864887,153.86 200.034887,126.69 233.424887,126.69 M233.424887,113.69 C192.794887,113.69 159.864887,146.62 159.864887,187.25 C159.864887,227.88 192.794887,260.81 233.424887,260.81 C274.054887,260.81 306.984887,227.88 306.984887,187.25 C306.984887,146.62 274.054887,113.69 233.424887,113.69 L233.424887,113.69 Z" id="Shape" fill="#231F20"></path>
        </g>
    </g>
</svg>