<?xml version="1.0" encoding="utf-8"?>
<!-- Generator: Adobe Illustrator 25.0.1, SVG Export Plug-In . SVG Version: 6.00 Build 0)  -->
<svg version="1.1" id="Layer_1" xmlns="http://www.w3.org/2000/svg" xmlns:xlink="http://www.w3.org/1999/xlink" x="0px" y="0px"
	 viewBox="0 0 720 720" style="enable-background:new 0 0 720 720;" xml:space="preserve">
<style type="text/css">
	.st0{fill:#231F20;}
	.st1{fill:#FFFFFF;}
</style>
<g>
	<path class="st0" d="M360.13,546.88c-102.63,0-186.48-83.11-187.22-185.9c-0.74-103.25,82.65-187.85,185.89-188.59
		c0.45,0,0.92,0,1.37,0c102.63,0,186.48,83.11,187.22,185.9c0.74,103.25-82.65,187.85-185.89,188.59
		C361.05,546.88,360.59,546.88,360.13,546.88z M360.17,200.54c-0.39,0-0.77,0-1.16,0c-87.72,0.63-158.57,72.51-157.94,160.23
		c0.63,87.33,71.88,157.94,159.07,157.94c0.39,0,0.77,0,1.16,0c87.72-0.63,158.57-72.51,157.94-160.23
		C518.61,271.16,447.36,200.54,360.17,200.54z"/>
</g>
<circle class="st0" cx="406.33" cy="359.63" r="73.56"/>
<g>
	<circle class="st1" cx="313.98" cy="359.63" r="67.06"/>
	<path class="st0" d="M313.98,299.08c33.39,0,60.56,27.17,60.56,60.56s-27.17,60.56-60.56,60.56s-60.56-27.17-60.56-60.56
		S280.58,299.08,313.98,299.08 M313.98,286.08c-40.63,0-73.56,32.93-73.56,73.56s32.93,73.56,73.56,73.56s73.56-32.93,73.56-73.56
		S354.6,286.08,313.98,286.08L313.98,286.08z"/>
</g>
<g>
	<path class="st0" d="M406.33,299.08c33.39,0,60.56,27.17,60.56,60.56s-27.17,60.56-60.56,60.56s-60.56-27.17-60.56-60.56
		S372.94,299.08,406.33,299.08 M406.33,286.08c-40.63,0-73.56,32.93-73.56,73.56s32.93,73.56,73.56,73.56s73.56-32.93,73.56-73.56
		S446.96,286.08,406.33,286.08L406.33,286.08z"/>
</g>
</svg>
