<?xml version="1.0" encoding="UTF-8"?>
<svg width="147px" height="147px" viewBox="0 0 147 147" version="1.1" xmlns="http://www.w3.org/2000/svg" xmlns:xlink="http://www.w3.org/1999/xlink">
    <title>Group 24</title>
    <defs>
        <polygon id="path-1" points="0 0.1984696 145.957513 0.1984696 145.957513 147 0 147"></polygon>
        <polygon id="path-3" points="-0.153276956 147 146.001057 147 146.001057 1 -0.153276956 1"></polygon>
    </defs>
    <g id="Page-1" stroke="none" stroke-width="1" fill="none" fill-rule="evenodd">
        <g id="Locations-Specfic" transform="translate(-116.000000, -1640.000000)">
            <g id="Group-24" transform="translate(117.000000, 1640.000000)">
                <g id="Group-3" transform="translate(-0.153277, 0.000000)">
                    <mask id="mask-2" fill="white">
                        <use xlink:href="#path-1"></use>
                    </mask>
                    <g id="Clip-2"></g>
                    <path d="M72.9856939,11.2360136 C72.8336934,11.2360136 72.6848108,11.2360136 72.5324206,11.2379736 C38.3439988,11.4853256 10.7301835,39.6622856 10.9761125,74.0485256 C11.2212621,108.281102 38.9909753,135.962574 72.9720528,135.962574 C73.1240533,135.962574 73.2729359,135.962574 73.4257159,135.960614 C107.614138,135.713262 135.227953,107.536302 134.981244,73.1496696 C134.736095,38.9170936 106.966382,11.2360136 72.9856939,11.2360136 M72.9712733,147.000118 C32.9725347,147.000118 0.290476867,114.422174 0.00167590303,74.1277096 C-0.287514806,33.6556696 32.2140911,0.4916856 72.4533024,0.2000376 C72.6302466,0.1984696 72.8103087,0.1984696 72.9868631,0.1984696 C112.985212,0.1984696 145.66688,32.7760216 145.955681,73.0700936 C146.245651,113.542526 113.744045,146.70651 73.5044443,146.998158 C73.3278899,147.000118 73.147438,147.000118 72.9712733,147.000118" id="Fill-1" fill="#000000" mask="url(#mask-2)"></path>
                </g>
                <path d="M39.1624468,101 L74.8491912,101 C74.5596278,99.7674761 74.3700883,98.4971706 74.3019786,97.1937101 L39.1624468,97.1937101 C37.2600463,97.1937101 35.7231029,95.6712712 35.7231029,93.7868242 L35.7231029,55.4841281 L97.1109352,55.4841281 L97.1109352,74.3282126 C98.4248681,74.379873 99.7084435,74.5464198 100.953488,74.8170585 L100.953488,49.2135613 C100.953488,45.2357127 97.6869484,42 93.6715913,42 L89.1175839,42 L89.1175839,45.968596 C89.1175839,48.8993583 86.7162315,51.2780486 83.7571581,51.2780486 C80.7984738,51.2780486 78.3870022,48.8993583 78.3870022,45.968596 L78.3870022,42 L54.4373059,42 L54.4373059,45.968596 C54.4373059,48.8993583 52.0355642,51.2780486 49.07688,51.2780486 C46.1178066,51.2780486 43.7160649,48.8993583 43.7160649,45.968596 L43.7160649,42 L39.1624468,42 C35.1369705,42 31.8805497,45.2357127 31.8805497,49.2135613 L31.8805497,93.7868242 C31.8805497,97.7646728 35.1369705,101 39.1624468,101" id="Fill-4" fill="#000000"></path>
                <path d="M45.8953488,36.977034 L45.8953488,45.0225749 C45.8953488,46.6665735 47.2400877,48 48.8985201,48 C50.5569525,48 51.9016913,46.6665735 51.9016913,45.0225749 L51.9016913,36.977034 C51.9016913,35.3326442 50.5569525,34 48.8985201,34 C47.2400877,34 45.8953488,35.3326442 45.8953488,36.977034" id="Fill-6" fill="#000000"></path>
                <path d="M80.9323467,36.977034 L80.9323467,45.0225749 C80.9323467,46.6665735 82.276691,48 83.9351234,48 C85.5939503,48 86.9386892,46.6665735 86.9386892,45.0225749 L86.9386892,36.977034 C86.9386892,35.3326442 85.5939503,34 83.9351234,34 C82.276691,34 80.9323467,35.3326442 80.9323467,36.977034" id="Fill-8" fill="#000000"></path>
                <mask id="mask-4" fill="white">
                    <use xlink:href="#path-3"></use>
                </mask>
                <g id="Clip-11"></g>
                <polygon id="Fill-10" fill="#000000" mask="url(#mask-4)" points="40.8900634 68 48.8985201 68 48.8985201 60 40.8900634 60"></polygon>
                <polygon id="Fill-12" fill="#000000" mask="url(#mask-4)" points="40.8900634 80 48.8985201 80 48.8985201 72 40.8900634 72"></polygon>
                <polygon id="Fill-13" fill="#000000" mask="url(#mask-4)" points="40.8900634 92 48.8985201 92 48.8985201 84 40.8900634 84"></polygon>
                <polygon id="Fill-14" fill="#000000" mask="url(#mask-4)" points="55.9059197 68 63.9143763 68 63.9143763 60 55.9059197 60"></polygon>
                <polygon id="Fill-15" fill="#000000" mask="url(#mask-4)" points="55.9059197 80 63.9143763 80 63.9143763 72 55.9059197 72"></polygon>
                <polygon id="Fill-16" fill="#000000" mask="url(#mask-4)" points="55.9059197 92 63.9143763 92 63.9143763 84 55.9059197 84"></polygon>
                <polygon id="Fill-17" fill="#000000" mask="url(#mask-4)" points="69.9207188 68 77.9291755 68 77.9291755 60 69.9207188 60"></polygon>
                <polygon id="Fill-18" fill="#000000" mask="url(#mask-4)" points="69.9207188 80 77.9291755 80 77.9291755 72 69.9207188 72"></polygon>
                <path d="M69.9207188,92 L74.9179394,92 C75.3732772,89.1183851 76.4211473,86.4349275 77.9291755,84.0722256 L77.9291755,84 L69.9207188,84 L69.9207188,92 Z" id="Fill-19" fill="#000000" mask="url(#mask-4)"></path>
                <polygon id="Fill-20" fill="#000000" mask="url(#mask-4)" points="82.9344609 68 90.9429175 68 90.9429175 60 82.9344609 60"></polygon>
                <path d="M82.9344609,78 C85.2882753,76.3011034 88.0025036,75.0791098 90.9429175,74.4828876 L90.9429175,72 L82.9344609,72 L82.9344609,78 Z" id="Fill-21" fill="#000000" mask="url(#mask-4)"></path>
                <path d="M95.9487995,110.077336 C89.9791105,110.077336 84.877176,106.344567 82.8266986,101.097001 C82.3447012,99.8626763 82.0301303,98.548103 81.9155962,97.1743362 C81.8833835,96.7862014 81.8559431,96.3964775 81.8559431,95.9992055 C81.8559431,94.1125604 82.2357348,92.3145071 82.9125991,90.6690062 C84.0829938,87.8229491 86.1636955,85.4524267 88.786843,83.8971065 C90.8886221,82.6512613 93.3324126,81.9222671 95.9487995,81.9222671 C96.2538259,81.9222671 96.5516939,81.9488843 96.8519481,81.9679534 C98.2239704,82.0557505 99.5395211,82.3386082 100.778318,82.7918956 C106.173348,84.7671324 110.040861,89.9336556 110.040861,95.9992055 C110.040861,103.762299 103.719218,110.077336 95.9487995,110.077336 M100.778318,78.6757598 C99.5188413,78.3249685 98.2052791,78.1132225 96.8519481,78.0456863 C96.5508986,78.0305899 96.2538259,78 95.9487995,78 C94.4117368,78 92.9267712,78.2141296 91.5014588,78.5772363 C90.2002249,78.9093558 88.9550649,79.3765477 87.7834772,79.9748394 C81.9442297,82.9555717 77.9291755,89.0119844 77.9291755,95.9992055 C77.9291755,96.3964775 77.9633766,96.7842151 77.9892263,97.1743362 C78.077513,98.5274449 78.3045926,99.8412236 78.6764305,101.097001 C80.8835968,108.545852 87.7858633,114 95.9487995,114 C105.883832,114 113.96723,105.925445 113.96723,95.9992055 C113.96723,87.7478647 108.372163,80.7924253 100.778318,78.6757598" id="Fill-22" fill="#000000" mask="url(#mask-4)"></path>
                <polygon id="Fill-23" fill="#000000" mask="url(#mask-4)" points="97.8847944 94.0652997 97.8847944 87 96.8391331 87 94.0123959 87 94.0123959 94.0652997 86.9386892 94.0652997 86.9386892 97.1585477 86.9386892 97.9335249 94.0123959 97.9335249 94.0123959 100.994645 94.0123959 105 97.8847944 105 97.8847944 99.4654564 97.8847944 97.9335249 99.3505245 97.9335249 104.957717 97.9335249 104.957717 94.0652997 100.692705 94.0652997"></polygon>
            </g>
        </g>
    </g>
</svg>