<?xml version="1.0" encoding="UTF-8"?>
<svg width="146px" height="145px" viewBox="0 0 146 145" version="1.1" xmlns="http://www.w3.org/2000/svg" xmlns:xlink="http://www.w3.org/1999/xlink">
    <title>Group 8</title>
    <defs>
        <polygon id="path-1" points="0.000154666667 0.195808 144.804115 0.195808 144.804115 145 0.000154666667 145"></polygon>
        <polygon id="path-3" points="0.807180851 145 144.807181 145 144.807181 1 0.807180851 1"></polygon>
    </defs>
    <g id="Page-1" stroke="none" stroke-width="1" fill="none" fill-rule="evenodd">
        <g id="Subcommittees" transform="translate(-119.000000, -1135.000000)">
            <g id="Group-8" transform="translate(119.000000, 1135.000000)">
                <g id="Group-3" transform="translate(0.807181, 0.000000)">
                    <mask id="mask-2" fill="white">
                        <use xlink:href="#path-1"></use>
                    </mask>
                    <g id="Clip-2"></g>
                    <path d="M72.402328,11.0831813 C38.482768,11.0831813 10.887528,38.6784213 10.887528,72.5979813 C10.887528,106.517155 38.482768,134.112781 72.402328,134.112781 C106.321501,134.112781 133.916741,106.517155 133.916741,72.5979813 C133.916741,38.6784213 106.321501,11.0831813 72.402328,11.0831813 M72.402328,145.000155 C32.4793813,145.000155 0.000154666667,112.520541 0.000154666667,72.5979813 C0.000154666667,32.6750347 32.4793813,0.195808 72.402328,0.195808 C112.324888,0.195808 144.804115,32.6750347 144.804115,72.5979813 C144.804115,112.520541 112.324888,145.000155 72.402328,145.000155" id="Fill-1" fill="#000000" mask="url(#mask-2)"></path>
                </g>
                <mask id="mask-4" fill="white">
                    <use xlink:href="#path-3"></use>
                </mask>
                <g id="Clip-5"></g>
                <path d="M70.8795159,39.9737014 L72.7348458,39.9737014 L72.7348458,34.6673846 L70.8795159,34.6673846 L70.8795159,39.9737014 Z M94.8071809,61.7608869 C94.8071809,61.3040362 94.6136183,60.6965882 93.6904143,60.3957828 C92.8746587,60.1296109 91.8544795,59.5295566 91.6263937,58.1831312 C90.8804604,53.7722262 88.4006101,49.6492851 84.6437903,46.5731312 C82.3311253,44.6795747 79.69883,43.3148597 76.9478371,42.5505882 L76.9478371,41.5325973 C76.9478371,40.8282534 76.4819681,40.2336471 75.8427075,40.0406335 L75.8427075,34.6008416 C76.4819681,34.4074389 76.9478371,33.8128326 76.9478371,33.1084887 C76.9478371,32.2477104 76.2523308,31.5495928 75.3942941,31.5495928 L74.9753612,31.5495928 C74.8779981,30.2557014 73.246487,29.680552 73.0172376,27.918914 C72.8647926,26.7440995 73.4497471,25.130724 73.4497471,23.7734027 C73.4497471,22.2713213 72.6235182,21 71.8073748,21 C70.9908435,21 70.1642267,22.2713213 70.1642267,23.7734027 C70.1642267,24.9968597 70.749957,26.7440995 70.5971241,27.918914 C70.3682626,29.680552 68.7367515,30.2557014 68.6390005,31.5495928 L68.2200676,31.5495928 C67.3624188,31.5495928 66.6665246,32.2477104 66.6665246,33.1084887 C66.6665246,33.8128326 67.1323936,34.4074389 67.7712663,34.6008416 L67.7712663,40.0406335 C67.1323936,40.2336471 66.6665246,40.8282534 66.6665246,41.5325973 L66.6665246,42.5505882 C63.9155317,43.3148597 61.2832364,44.6795747 58.9709593,46.5731312 C55.2137516,49.6492851 52.7339013,53.7722262 51.9875801,58.1831312 C51.7598822,59.5299457 50.739703,60.1296109 49.9239474,60.3957828 C49.0011313,60.6965882 48.8071809,61.3040362 48.8071809,61.7608869 L48.8071809,64 L94.8071809,64 L94.8071809,61.7608869 Z" id="Fill-4" fill="#231F20" mask="url(#mask-4)"></path>
                <path d="M47.2262791,72.2400749 L47.2262791,83 L54.0059863,83 L54.0059863,75.6 C54.0059863,74.2797753 55.1093005,73.2093633 56.470106,73.2093633 C57.8316837,73.2093633 58.9346118,74.2797753 58.9346118,75.6 L58.9346118,83 L64.5639075,83 L64.5639075,75.6 C64.5639075,74.2797753 65.6672216,73.2093633 67.0280272,73.2093633 C68.3892189,73.2093633 69.492533,74.2797753 69.492533,75.6 L69.492533,83 L75.1218287,83 L75.1218287,75.6 C75.1218287,74.2797753 76.2251428,73.2093633 77.5863345,73.2093633 C78.9471401,73.2093633 80.0504542,74.2797753 80.0504542,75.6 L80.0504542,83 L85.6793638,83 L85.6793638,75.6 C85.6793638,74.2797753 86.782678,73.2093633 88.1438696,73.2093633 C89.5054473,73.2093633 90.6083754,74.2797753 90.6083754,75.6 L90.6083754,83 L97.3880826,83 L97.3880826,72.2400749 C98.2200077,71.9134831 98.8071809,71.1243446 98.8071809,70.2003745 C98.8071809,68.9850187 97.7914987,68 96.5387855,68 L48.0755762,68 C46.822863,68 45.8071809,68.9850187 45.8071809,70.2003745 C45.8071809,71.1243446 46.39474,71.9138577 47.2262791,72.2400749" id="Fill-6" fill="#231F20" mask="url(#mask-4)"></path>
                <path d="M95.0438705,110.506369 L90.693383,110.506369 L90.693383,96.7922095 C90.693383,95.5926077 91.6670526,94.620154 92.8682437,94.620154 C94.0698178,94.620154 95.0438705,95.5926077 95.0438705,96.7922095 L95.0438705,110.506369 Z M84.5131475,110.506369 L80.162277,110.506369 L80.162277,96.7922095 C80.162277,95.5926077 81.1359466,94.620154 82.3379038,94.620154 C83.5390949,94.620154 84.5131475,95.5926077 84.5131475,96.7922095 L84.5131475,110.506369 Z M73.9828076,110.506369 L69.6315541,110.506369 L69.6315541,96.7922095 C69.6315541,95.5926077 70.6056067,94.620154 71.8071809,94.620154 C73.008755,94.620154 73.9828076,95.5926077 73.9828076,96.7922095 L73.9828076,110.506369 Z M63.4520847,110.506369 L59.1012142,110.506369 L59.1012142,96.7922095 C59.1012142,95.5926077 60.0752668,94.620154 61.2768409,94.620154 C62.478032,94.620154 63.4520847,95.5926077 63.4520847,96.7922095 L63.4520847,110.506369 Z M52.9213617,110.506369 L48.5704912,110.506369 L48.5704912,96.7922095 C48.5704912,95.5926077 49.5445439,94.620154 50.746118,94.620154 C51.9473091,94.620154 52.9213617,95.5926077 52.9213617,96.7922095 L52.9213617,110.506369 Z M101.287306,110.629886 L101.287306,90.3704969 C102.17058,90.0672504 102.807181,89.2320798 102.807181,88.2470067 C102.807181,87.0061053 101.799421,86 100.556863,86 L43.057882,86 C41.8149404,86 40.8071809,87.0061053 40.8071809,88.2470067 C40.8071809,89.2320798 41.4433985,90.0672504 42.3270553,90.3704969 L42.3270553,110.629886 C41.4433985,110.933132 40.8071809,111.768303 40.8071809,112.753376 C40.8071809,113.994277 41.8149404,115 43.057882,115 L100.556863,115 C101.799421,115 102.807181,113.994277 102.807181,112.753376 C102.807181,111.768303 102.17058,110.933132 101.287306,110.629886 L101.287306,110.629886 Z" id="Fill-7" fill="#231F20" mask="url(#mask-4)"></path>
            </g>
        </g>
    </g>
</svg>