<?xml version="1.0" encoding="UTF-8"?>
<svg width="148px" height="148px" viewBox="0 0 148 148" version="1.1" xmlns="http://www.w3.org/2000/svg" xmlns:xlink="http://www.w3.org/1999/xlink">
    <title>Group 6</title>
    <defs>
        <polygon id="path-1" points="7.84e-05 0.1985088 146.801648 0.1985088 146.801648 147 7.84e-05 147"></polygon>
    </defs>
    <g id="Page-1" stroke="none" stroke-width="1" fill="none" fill-rule="evenodd">
        <g id="Subcommittees" transform="translate(-116.000000, -2005.000000)">
            <g id="Group-6" transform="translate(116.000000, 2005.000000)">
                <g id="Group-3" transform="translate(0.938745, 0.000000)">
                    <mask id="mask-2" fill="white">
                        <use xlink:href="#path-1"></use>
                    </mask>
                    <g id="Clip-2"></g>
                    <path d="M73.4009024,11.2360528 C39.0134864,11.2360528 11.0376224,39.2119168 11.0376224,73.5993328 C11.0376224,107.986357 39.0134864,135.962613 73.4009024,135.962613 C107.787926,135.962613 135.76379,107.986357 135.76379,73.5993328 C135.76379,39.2119168 107.787926,11.2360528 73.4009024,11.2360528 M73.4009024,147.000157 C32.9272944,147.000157 7.84e-05,114.072549 7.84e-05,73.5993328 C7.84e-05,33.1257248 32.9272944,0.1985088 73.4009024,0.1985088 C113.874118,0.1985088 146.801726,33.1257248 146.801726,73.5993328 C146.801726,114.072549 113.874118,147.000157 73.4009024,147.000157" id="Fill-1" fill="#000000" mask="url(#mask-2)"></path>
                </g>
                <path d="M51.251523,73.5657914 C50.3385598,67.3894795 51.1782508,61.2123918 53.5025846,55.6415323 C56.5851088,48.25354 64.2477303,40.1514941 71.1568633,39.4541185 C65.1054455,42.8696299 57.866,51.7633018 56.5608153,56.9726741 C79.8574416,65.7294308 88.7202375,37.0505387 99.7882509,35.2427147 C77.9249376,14.8058866 43.3126615,31.9094301 50.3828365,51.282741 C46.921413,58.1110486 46.1357945,64.5472279 46.221997,69.3625326 C46.2690166,71.9755578 48.6388026,73.9431809 51.251523,73.5657914 M107.464586,63.6272196 C103.221071,57.2457288 97.9834833,53.354311 93.7270373,51.0205464 C91.4175931,49.7537896 88.5113923,50.8021801 87.5353445,53.2305831 C93.3951576,55.5360339 98.3796231,59.3440614 102.091426,64.1221313 C107.01359,70.459018 110.270871,81.0786751 107.426187,87.350401 C107.463803,80.4549933 103.30218,69.8019801 99.3975967,66.0785065 C80.0878375,81.671328 100.747058,103.608406 96.794672,114 C125.606301,105.47596 127.949051,67.2529521 107.464586,63.6272196 M87.7034394,96.5896579 C82.7561977,100.460519 76.932433,102.829579 70.8962965,103.621981 C62.8912159,104.673474 51.9717059,102.155863 47.9068647,96.5815128 C53.9206668,100.061409 65.3217355,101.82075 70.5315031,100.334852 C66.5442441,75.9852735 37.0226194,82.7270879 29.9069922,74.1429298 C22.9586762,103.103797 55.2282025,124.223262 68.6424921,108.476072 C76.3474312,108.029255 82.3706373,105.484493 86.5404889,103.002953 C88.8036972,101.656297 89.3401121,98.6406713 87.7034394,96.5896579" id="Fill-4" fill="#231F20"></path>
            </g>
        </g>
    </g>
</svg>