<?xml version="1.0" encoding="UTF-8"?>
<svg width="147px" height="147px" viewBox="0 0 147 147" version="1.1" xmlns="http://www.w3.org/2000/svg" xmlns:xlink="http://www.w3.org/1999/xlink">
    <title>Group 6</title>
    <defs>
        <polygon id="path-1" points="0 0.198019947 145.957513 0.198019947 145.957513 146.609043 0 146.609043"></polygon>
    </defs>
    <g id="Page-1" stroke="none" stroke-width="1" fill="none" fill-rule="evenodd">
        <g id="Locations-Specfic" transform="translate(-116.000000, -1415.000000)">
            <g id="Group-6" transform="translate(117.000000, 1415.000000)">
                <g id="Group-3" transform="translate(-0.217759, 0.000000)">
                    <mask id="mask-2" fill="white">
                        <use xlink:href="#path-1"></use>
                    </mask>
                    <g id="Clip-2"></g>
                    <path d="M72.9856939,11.2062088 C72.8336934,11.2062088 72.6848108,11.2062088 72.5324206,11.2077726 C38.3439988,11.4548577 10.7301835,39.556879 10.9761125,73.8512753 C11.0953745,90.464621 17.6567297,106.036847 29.4523588,117.699499 C41.1376901,129.253464 56.575875,135.600658 72.9658169,135.600658 C73.1197661,135.600658 73.2717666,135.600658 73.4257159,135.599094 C89.9867558,135.479461 105.510685,128.897302 117.137164,117.065757 C128.763644,105.23382 135.100896,89.5685465 134.981244,72.9555918 C134.736095,38.8136689 106.966382,11.2062088 72.9856939,11.2062088 M72.9638682,146.609238 C53.6714961,146.609238 35.5031483,139.139214 21.7482716,125.539368 C7.86555856,111.812461 0.142763553,93.4843763 0.00167590303,73.9306396 C-0.287514806,33.566238 32.2140911,0.490847074 72.4533024,0.199974734 C72.6302466,0.198019947 72.8106984,0.198019947 72.9872529,0.198019947 C112.985602,0.198019947 145.66688,32.6889295 145.955681,72.8762274 C146.245651,113.240629 113.744045,146.316411 73.5044443,146.607283 C73.3251617,146.609238 73.1435406,146.609238 72.9638682,146.609238" id="Fill-1" fill="#000000" mask="url(#mask-2)"></path>
                </g>
                <path d="M83.1108751,78.9035462 L76.2974952,78.9035462 L76.2974952,85.773202 L70.1676595,85.773202 L70.1676595,78.9035462 L63.3542796,78.9035462 L63.3542796,72.7226901 L70.1676595,72.7226901 L70.1676595,65.8534245 L76.2974952,65.8534245 L76.2974952,72.7226901 L83.1108751,72.7226901 L83.1108751,78.9035462 Z M90.7436565,37.1759382 C80.7780773,38.3962651 76.0749369,43.9730067 73.8598047,48.7688483 C71.6442854,43.9730067 66.9415321,38.3962651 56.9763399,37.1759382 C56.1770653,37.0783745 55.3801132,37.0182753 54.5823869,37.0038358 C29.8459047,36.5550428 6.9549145,75.560233 73.6461487,116 C73.7189156,115.867313 74.0003067,115.867313 74.0734606,116 C142.915963,74.2556111 116.306507,34.0460944 90.7436565,37.1759382 L90.7436565,37.1759382 Z" id="Fill-4" fill="#000000"></path>
            </g>
        </g>
    </g>
</svg>