<?xml version="1.0" encoding="UTF-8"?>
<svg width="147px" height="147px" viewBox="0 0 147 147" version="1.1" xmlns="http://www.w3.org/2000/svg" xmlns:xlink="http://www.w3.org/1999/xlink">
    <title>Group 10</title>
    <defs>
        <polygon id="path-1" points="7.79489782e-05 0.198744 145.957123 0.198744 145.957123 147 7.79489782e-05 147"></polygon>
    </defs>
    <g id="Page-1" stroke="none" stroke-width="1" fill="none" fill-rule="evenodd">
        <g id="Locations-Specfic" transform="translate(-116.000000, -1199.000000)">
            <g id="Group-10" transform="translate(116.000000, 1199.000000)">
                <g id="Group-3" transform="translate(0.790698, 0.000000)">
                    <mask id="mask-2" fill="white">
                        <use xlink:href="#path-1"></use>
                    </mask>
                    <g id="Clip-2"></g>
                    <path d="M72.9786395,11.236092 C38.7890485,11.236092 10.9741248,39.211956 10.9741248,73.599372 C10.9741248,107.986396 38.7890485,135.96226 72.9786395,135.96226 C107.167841,135.96226 134.982764,107.986396 134.982764,73.599372 C134.982764,39.211956 107.167841,11.236092 72.9786395,11.236092 M72.9786395,147.000196 C32.7378693,147.000196 7.79489782e-05,114.072588 7.79489782e-05,73.599372 C7.79489782e-05,33.126156 32.7378693,0.198548 72.9786395,0.198548 C113.21902,0.198548 145.957201,33.126156 145.957201,73.599372 C145.957201,114.072588 113.21902,147.000196 72.9786395,147.000196" id="Fill-1" fill="#000000" mask="url(#mask-2)"></path>
                </g>
                <path d="M75.595052,60.6150046 C75.4911335,60.5222657 75.3876,60.4357613 75.2836815,60.3492569 C75.2563548,60.3278256 75.225949,60.3028874 75.1951584,60.2779492 C75.0700713,60.1758585 74.9419052,60.0706504 74.8129694,59.9720666 C74.5754965,59.7865887 74.3341747,59.6038385 74.0836158,59.4312193 C74.0101031,59.375498 73.9342811,59.3225044 73.8607684,59.2734073 C73.7849464,59.2204136 73.7083547,59.1744338 73.631378,59.1222194 C73.0975451,58.7660707 72.547547,58.4387568 71.9860025,58.1480709 C71.8455201,58.0736459 71.7050377,57.9996107 71.5649403,57.9318099 C71.2805116,57.7927015 70.9903097,57.659438 70.7035717,57.5355263 C70.5569312,57.4739601 70.4099059,57.4120043 70.2667293,57.3531657 C64.6297303,55.0841789 58.1286686,55.6686681 52.9308214,59.106633 C52.8392192,59.1681992 52.747617,59.2301551 52.6560148,59.2917213 C51.917424,59.7982785 51.208854,60.3613363 50.5306899,60.9859604 C50.3105367,61.1901419 50.0946173,61.3970511 49.8802373,61.6137017 L38.3714606,73.2660767 C30.9759304,80.7533823 30.9751607,92.8967282 38.3714606,100.384813 C45.7669908,107.871729 57.7622599,107.871729 65.1581749,100.384813 L76.6669516,88.732438 C76.8809467,88.5161771 77.0853196,88.2964092 77.2869984,88.073524 C77.9035813,87.3877234 78.4593526,86.6703604 78.9604705,85.9222144 C79.0216669,85.8294754 79.0820936,85.7371262 79.14329,85.6439976 C75.5215393,86.4544891 71.7381377,86.3403189 68.1687311,85.2855109 L59.2055718,94.3595096 C55.1046415,98.510941 48.4265336,98.507434 44.3252185,94.3560027 C40.2215941,90.2006747 40.2215941,83.4432012 44.3229092,79.2913802 L53.2849139,70.2173815 L55.8316859,67.6390052 C58.8368537,64.5969341 63.2249068,63.7833253 66.9655863,65.2028545 C67.118385,65.2589655 67.2707987,65.3205317 67.4174392,65.3883324 C67.4540031,65.4008015 67.4886426,65.4159982 67.5213576,65.4315846 C67.6772353,65.4962681 67.82657,65.5675757 67.9735954,65.6478456 C68.119851,65.7164256 68.2637973,65.7927989 68.4012006,65.8765756 C68.4346854,65.8925517 68.4677854,65.9139829 68.505119,65.9322969 C68.6236631,65.9973701 68.7395129,66.071795 68.8557476,66.1520648 C68.9015487,66.1734961 68.9411917,66.2015516 68.9804498,66.2292174 C69.088217,66.2942905 69.1886716,66.3652085 69.2856621,66.4392438 C69.3383911,66.4735339 69.3872713,66.504317 69.4361514,66.5413346 C69.5677815,66.6371908 69.6955627,66.736554 69.8206497,66.8382551 C69.8360451,66.8476069 69.8483613,66.8596863 69.8602927,66.8725451 C70.0069332,66.9894429 70.1504946,67.1102373 70.290977,67.2403836 C70.4345384,67.3666332 70.5746359,67.5026244 70.7120392,67.6417328 C70.8494425,67.7812308 70.9845364,67.9234565 71.1096235,68.0684098 C71.2377896,68.2110252 71.3571034,68.3559785 71.4725683,68.5044387 C71.4848846,68.5165182 71.4972008,68.5293769 71.5060531,68.5449633 C71.6072774,68.6716026 71.7050377,68.8013592 71.7993341,68.9346227 C71.835898,68.9837198 71.8666887,69.0332065 71.9001735,69.0858106 C71.9736862,69.1843944 72.0441198,69.2868748 72.1080104,69.3948105 C72.135722,69.435335 72.1630487,69.4750803 72.1842173,69.5218394 C72.2638881,69.6391269 72.3374008,69.7564144 72.4012914,69.8772088 C72.4193809,69.9142265 72.4405495,69.9481268 72.4559448,69.9820272 C72.5386947,70.1211356 72.6149016,70.2672579 72.6822561,70.4149388 C72.7619269,70.563399 72.8319757,70.7149765 72.8958663,70.8727886 C72.9112616,70.9062993 72.9262721,70.940979 72.9389732,70.9779967 C73.005558,71.1264569 73.0671393,71.280762 73.1221776,71.4358465 C75.4276278,71.8219989 77.8824127,71.12295 79.6598032,69.3242821 L80.8752643,68.0929584 C80.816762,67.9480051 80.7563354,67.7995448 80.6955238,67.6514743 C80.5727461,67.3607883 80.4415009,67.0669851 80.3040976,66.7794165 C80.2367431,66.6371908 80.1636153,66.4949651 80.0901026,66.3531291 C79.8029797,65.7842264 79.4796779,65.2277927 79.1282795,64.6865558 C79.0763203,64.6094032 79.0305192,64.531861 78.97856,64.4547085 C78.9300647,64.3798938 78.8777206,64.3031309 78.8230672,64.228706 C78.6517942,63.9754274 78.4716688,63.7315006 78.2888493,63.4903014 C78.191089,63.3601552 78.0871706,63.2307882 77.9863312,63.1037593 C77.9616986,63.0729762 77.937451,63.0418034 77.9158975,63.0141376 C77.8300686,62.9093192 77.7450094,62.8037215 77.6530223,62.6989032 C77.3420367,62.3279474 77.0094977,61.9655641 76.6642575,61.6164293 C76.3190172,61.2672945 75.9614608,60.9306287 75.595052,60.6150046" id="Fill-4" fill="#000000"></path>
                <path d="M71.5659265,38.6160158 L60.059844,50.2647845 C59.8493129,50.4775368 59.6468644,50.6945752 59.4490344,50.9135619 C58.8840259,51.5416875 58.3678976,52.1998167 57.9010343,52.8770389 C57.8429169,52.9600357 57.7878786,53.0410842 57.7355345,53.1236912 C57.6808811,53.1985052 57.632001,53.2787744 57.5800417,53.3559263 C61.2014075,52.5462209 64.985194,52.6603902 68.5549855,53.7144099 L77.5173751,44.6408782 C81.6217692,40.4859753 88.2967981,40.4855857 92.4019621,44.6408782 C96.5021225,48.7922742 96.5055865,55.5539763 92.4011923,59.7092688 L83.4388027,68.7824108 L80.8947249,71.3580375 C77.8868629,74.4031999 73.4991947,75.2160225 69.7585151,73.7972846 C69.6057165,73.7415638 69.4521481,73.6796085 69.3062774,73.6118083 C69.2693286,73.5993393 69.2358438,73.5837531 69.2027438,73.5681669 C69.0464813,73.503484 68.8971466,73.4329562 68.7505061,73.3519077 C68.6038656,73.2841076 68.4603042,73.2069557 68.3229009,73.1231796 C68.2890312,73.107983 68.2551615,73.0857726 68.2189824,73.0678484 C68.1004384,73.0027759 67.9842037,72.9287412 67.8683539,72.8484721 C67.8221679,72.8262617 67.7825249,72.7985961 67.7424971,72.7705409 C67.6354996,72.7058579 67.535045,72.6349405 67.4372847,72.5605162 C67.3857104,72.5266161 67.3368302,72.4954437 67.28795,72.458816 C67.15632,72.3625709 67.0281539,72.2635983 66.9030669,72.1615084 C66.8876715,72.1521566 66.8753553,72.1396876 66.8634239,72.127998 C66.7167834,72.0099322 66.5728371,71.8903077 66.4327396,71.759773 C66.2891782,71.6327451 66.1486958,71.4971448 66.0112926,71.3580375 C65.8738893,71.2189303 65.7391802,71.0763162 65.614478,70.9317538 C65.4855421,70.7891396 65.3669981,70.6434083 65.2507634,70.495339 C65.238832,70.4832596 65.2265158,70.4707906 65.2172786,70.455594 C65.1164392,70.3285661 65.0190637,70.1988107 64.9239976,70.0663276 C64.8874337,70.0164516 64.8570279,69.9669653 64.8231582,69.9147514 C64.7504153,69.8153891 64.6799817,69.7132992 64.6157062,69.6049748 C64.5887643,69.5652299 64.5610528,69.5247056 64.5391144,69.4783366 C64.4605982,69.3606604 64.3874704,69.2437636 64.3228101,69.1229702 C64.3047206,69.0855632 64.2831671,69.0516631 64.2681567,69.0173734 C64.1857917,68.8782662 64.108815,68.7333141 64.0418454,68.5844655 C63.9621745,68.4360065 63.8921258,68.28482 63.8282352,68.1270093 C63.8128399,68.0927195 63.7974445,68.0592091 63.7851283,68.0221918 C63.7177737,67.8741225 63.6569622,67.7186497 63.6019239,67.5643459 C61.2964737,67.1785863 58.840919,67.8772397 57.0669925,69.6731646 L55.8488372,70.9064261 C55.9069546,71.0517678 55.9673812,71.2006165 56.0289625,71.3482961 C56.1509705,71.6389796 56.2822157,71.9331699 56.4200038,72.2207361 C56.4873584,72.3625709 56.5608711,72.5055747 56.6332291,72.6474095 C56.920352,73.2163074 57.2440387,73.7727363 57.5958219,74.3131893 C57.6470114,74.3907309 57.6931974,74.4678828 57.7451566,74.545814 C57.7940368,74.619459 57.8456111,74.6973902 57.9010343,74.7710352 C58.0719224,75.0243117 58.2520478,75.268626 58.4348673,75.5098231 C58.5330125,75.6395786 58.636546,75.7693341 58.7373854,75.896362 C58.762018,75.9275345 58.7862656,75.958707 58.8078191,75.9859829 C58.8932631,76.0908004 58.9783223,76.1956179 59.0699245,76.3016043 C59.3816799,76.6725569 59.7146038,77.0341578 60.059844,77.3832896 C60.4050842,77.7324215 60.7622558,78.0698636 61.1282797,78.3850954 C61.2321982,78.4782232 61.3365015,78.5639476 61.4392653,78.6508409 C61.4673618,78.6726616 61.4981524,78.6972099 61.5285582,78.7221479 C61.6536453,78.8242378 61.7818113,78.929445 61.9099774,79.0284176 C62.1478352,79.2135043 62.3899268,79.3958633 62.6401008,79.5688706 C62.7132286,79.6249811 62.7898204,79.6768054 62.8633331,79.727071 C62.9395399,79.7792849 63.0157468,79.825654 63.0919537,79.8782575 C63.6265564,80.2336239 64.1765545,80.560935 64.738099,80.8523978 C64.8789663,80.9260428 65.0190637,81.0004671 65.1591612,81.0682672 C65.443205,81.2077641 65.7334069,81.3402472 66.0205298,81.4641578 C66.1671702,81.5261131 66.3138107,81.5880685 66.4573722,81.6465169 C72.0943711,83.9158739 78.5954328,83.3313898 83.7928952,79.8938438 C83.869487,79.8408506 83.9480031,79.7917539 84.0249798,79.7387607 C84.1042657,79.6834295 84.1835517,79.6277087 84.2659167,79.5688706 C84.9348436,79.0958281 85.5852962,78.5732993 86.205343,78.0016738 C86.4220322,77.8006113 86.6360272,77.5968212 86.8469432,77.3832896 L98.3526408,65.7349105 C105.748941,58.2468895 105.748171,46.1036472 98.3526408,38.6160158 C90.9563409,31.1279947 78.9622265,31.1279947 71.5659265,38.6160158" id="Fill-6" fill="#000000"></path>
                <path d="M105.823719,94.0752785 L100.972652,94.075668 L100.972652,98.9222038 L96.8163214,98.9222038 L96.8163214,94.0752785 L91.9648648,94.0752785 L91.9648648,89.9239425 L96.8163214,89.9239425 L96.8163214,85.0774067 L100.971872,85.0774067 L100.972652,89.9239425 L105.823719,89.9239425 L105.823719,94.0752785 Z M98.8939019,78 C91.1551191,78 84.8802723,84.2673139 84.8794926,91.9994158 C84.8794926,99.7322966 91.1543394,106 98.8946816,106 C106.633854,105.999611 112.909091,99.7322966 112.909091,92.0001947 C112.909091,84.2677034 106.634634,78 98.8939019,78 L98.8939019,78 Z" id="Fill-8" fill="#000000"></path>
            </g>
        </g>
    </g>
</svg>