<?xml version="1.0" encoding="UTF-8"?>
<svg width="147px" height="147px" viewBox="0 0 147 147" version="1.1" xmlns="http://www.w3.org/2000/svg" xmlns:xlink="http://www.w3.org/1999/xlink">
    <title>Group 11</title>
    <defs>
        <polygon id="path-1" points="7.79489782e-05 0.1984696 145.957123 0.1984696 145.957123 147 7.79489782e-05 147"></polygon>
        <polygon id="path-3" points="-0.217758985 147 145.936575 147 145.936575 1 -0.217758985 1"></polygon>
    </defs>
    <g id="Page-1" stroke="none" stroke-width="1" fill="none" fill-rule="evenodd">
        <g id="Take-Action" transform="translate(-116.000000, -2274.000000)">
            <g id="Group-11" transform="translate(117.000000, 2274.000000)">
                <g id="Group-3" transform="translate(-0.217759, 0.000000)">
                    <mask id="mask-2" fill="white">
                        <use xlink:href="#path-1"></use>
                    </mask>
                    <g id="Clip-2"></g>
                    <path d="M72.9786395,11.2360136 C38.7890485,11.2360136 10.9741248,39.2118776 10.9741248,73.5992936 C10.9741248,107.986318 38.7890485,135.962574 72.9786395,135.962574 C107.167841,135.962574 134.982764,107.986318 134.982764,73.5992936 C134.982764,39.2118776 107.167841,11.2360136 72.9786395,11.2360136 M72.9786395,147.000118 C32.7378693,147.000118 7.79489782e-05,114.07251 7.79489782e-05,73.5992936 C7.79489782e-05,33.1260776 32.7378693,0.1984696 72.9786395,0.1984696 C113.21902,0.1984696 145.957201,33.1260776 145.957201,73.5992936 C145.957201,114.07251 113.21902,147.000118 72.9786395,147.000118" id="Fill-1" fill="#000000" mask="url(#mask-2)"></path>
                </g>
                <path d="M72.8592158,91 L72.8592158,91 C62.9077813,91 54.8403805,82.8249358 54.8403805,72.7406944 L54.8403805,42.2596951 C54.8403805,32.1750642 62.9077813,24 72.8592158,24 C82.8110347,24 90.8784355,32.1750642 90.8784355,42.2596951 L90.8784355,72.7406944 C90.8784355,82.8249358 82.8110347,91 72.8592158,91" id="Fill-4" fill="#000000"></path>
                <path d="M86.4958808,123 L59.2233197,123 C56.8025349,123 54.8403805,121.209201 54.8403805,119.000175 C54.8403805,116.79115 56.8025349,115 59.2233197,115 L86.4958808,115 C88.9162812,115 90.8784355,116.79115 90.8784355,119.000175 C90.8784355,121.209201 88.9162812,123 86.4958808,123" id="Fill-6" fill="#000000"></path>
                <mask id="mask-4" fill="white">
                    <use xlink:href="#path-3"></use>
                </mask>
                <g id="Clip-9"></g>
                <polygon id="Fill-8" fill="#000000" mask="url(#mask-4)" points="68.8551797 121 76.8636364 121 76.8636364 99 68.8551797 99"></polygon>
                <path d="M72.8594105,106 C57.1181348,106 41.198034,95.7455994 38.8558136,76.0774139 C38.5358721,73.3877611 40.6312361,71 43.2864004,71 C45.5100519,71 47.3853832,72.7002732 47.6540096,74.9527582 C49.4527571,90.0366328 61.5533866,96.9547531 72.8594105,96.9547531 C84.1654345,96.9547531 96.266064,90.0366328 98.0648115,74.9527582 C98.3334379,72.7002732 100.20838,71 102.432421,71 C105.087196,71 107.182949,73.3877611 106.863007,76.0774139 C104.520787,95.7455994 88.6006863,106 72.8594105,106" id="Fill-10" fill="#000000" mask="url(#mask-4)"></path>
            </g>
        </g>
    </g>
</svg>