<?xml version="1.0" encoding="UTF-8"?>
<svg width="147px" height="147px" viewBox="0 0 147 147" version="1.1" xmlns="http://www.w3.org/2000/svg" xmlns:xlink="http://www.w3.org/1999/xlink">
    <title>Group 6</title>
    <defs>
        <polygon id="path-1" points="7.79489782e-05 0.198744 145.957123 0.198744 145.957123 147 7.79489782e-05 147"></polygon>
    </defs>
    <g id="Page-1" stroke="none" stroke-width="1" fill="none" fill-rule="evenodd">
        <g id="Policy-/-Take-Action" transform="translate(-116.000000, -1466.000000)">
            <g id="Group-6" transform="translate(117.000000, 1466.000000)">
                <g id="Group-3" transform="translate(-0.209302, 0.000000)">
                    <mask id="mask-2" fill="white">
                        <use xlink:href="#path-1"></use>
                    </mask>
                    <g id="Clip-2"></g>
                    <path d="M72.9786395,11.236092 C38.7890485,11.236092 10.9741248,39.211956 10.9741248,73.599372 C10.9741248,107.986396 38.7890485,135.96226 72.9786395,135.96226 C107.167841,135.96226 134.982764,107.986396 134.982764,73.599372 C134.982764,39.211956 107.167841,11.236092 72.9786395,11.236092 M72.9786395,147.000196 C32.7378693,147.000196 7.79489782e-05,114.072588 7.79489782e-05,73.599372 C7.79489782e-05,33.126156 32.7378693,0.198548 72.9786395,0.198548 C113.21902,0.198548 145.957201,33.126156 145.957201,73.599372 C145.957201,114.072588 113.21902,147.000196 72.9786395,147.000196" id="Fill-1" fill="#000000" mask="url(#mask-2)"></path>
                </g>
                <path d="M44.5182563,52.5980622 L37.5807969,52.5980622 L37.5807969,102.785085 C37.5807969,104.752595 39.0795588,106.25017 41.0495266,106.25017 C43.0191057,106.25017 44.5182563,104.752595 44.5182563,102.785085 L44.5182563,52.5980622 Z M96.0052932,47.264504 C97.3178276,47.264504 98.3827066,48.3274873 98.3827066,49.6394191 C98.3827066,50.9505741 97.3178276,52.0143341 96.0052932,52.0143341 L86.0668111,52.0143341 C84.7531104,52.0143341 83.689009,50.9505741 83.689009,49.6394191 C83.689009,48.3274873 84.7531104,47.264504 86.0668111,47.264504 L96.0052932,47.264504 Z M96.0052932,56.6084257 C97.3178276,56.6084257 98.3827066,57.6717973 98.3827066,58.9833407 C98.3827066,60.2952726 97.3178276,61.3586442 96.0052932,61.3586442 L86.0668111,61.3586442 C84.7531104,61.3586442 83.689009,60.2952726 83.689009,58.9833407 C83.689009,57.6717973 84.7531104,56.6084257 86.0668111,56.6084257 L96.0052932,56.6084257 Z M96.0052932,65.9531241 C97.3178276,65.9531241 98.3827066,67.0161074 98.3827066,68.3280392 C98.3827066,69.6391942 97.3178276,70.7029542 96.0052932,70.7029542 L86.0668111,70.7029542 C84.7531104,70.7029542 83.689009,69.6391942 83.689009,68.3280392 C83.689009,67.0161074 84.7531104,65.9531241 86.0668111,65.9531241 L96.0052932,65.9531241 Z M60.3810271,67.7046968 L74.3344802,67.7046968 L74.3344802,50.2615963 L60.3810271,50.2615963 L60.3810271,67.7046968 Z M76.7122824,45.5117662 C78.0255943,45.5117662 79.0896958,46.5755262 79.0896958,47.8866813 L79.0896958,70.0800002 C79.0896958,71.391932 78.0255943,72.4549152 76.7122824,72.4549152 L58.0040025,72.4549152 C56.6914681,72.4549152 55.6262003,71.391932 55.6262003,70.0800002 L55.6262003,47.8866813 C55.6262003,46.5755262 56.6914681,45.5117662 58.0040025,45.5117662 L76.7122824,45.5117662 Z M96.0052932,77.6331233 C97.3178276,77.6331233 98.3827066,78.6961065 98.3827066,80.0080383 C98.3827066,81.3199702 97.3178276,82.3829534 96.0052932,82.3829534 L58.0040025,82.3829534 C56.6906906,82.3829534 55.6262003,81.3199702 55.6262003,80.0080383 C55.6262003,78.6961065 56.6906906,77.6331233 58.0040025,77.6331233 L96.0052932,77.6331233 Z M72.0352124,87.5611614 C73.3485243,87.5611614 74.4126258,88.6245331 74.4126258,89.9364649 C74.4126258,91.248785 73.3485243,92.3113799 72.0352124,92.3113799 L58.0040025,92.3113799 C56.6906906,92.3113799 55.6262003,91.248785 55.6262003,89.9364649 C55.6262003,88.6245331 56.6906906,87.5611614 58.0040025,87.5611614 L72.0352124,87.5611614 Z M72.0352124,96.9054715 C73.3485243,96.9054715 74.4126258,97.9688431 74.4126258,99.2803865 C74.4126258,100.592318 73.3485243,101.655302 72.0352124,101.655302 L58.0040025,101.655302 C56.6906906,101.655302 55.6262003,100.592318 55.6262003,99.2803865 C55.6262003,97.9688431 56.6906906,96.9054715 58.0040025,96.9054715 L72.0352124,96.9054715 Z M83.1820348,96.9054715 L93.6278799,96.9054715 L93.6278799,92.3113799 L83.1820348,92.3113799 L83.1820348,96.9054715 Z M96.0052932,87.5611614 C97.3178276,87.5611614 98.3827066,88.6245331 98.3827066,89.9364649 L98.3827066,99.2803865 C98.3827066,100.592318 97.3178276,101.655302 96.0052932,101.655302 L80.8046214,101.655302 C79.4913095,101.655302 78.427208,100.592318 78.427208,99.2803865 L78.427208,89.9364649 C78.427208,88.6245331 79.4913095,87.5611614 80.8046214,87.5611614 L96.0052932,87.5611614 Z M104.150704,39.7498301 L49.2730831,39.7498301 L49.2730831,102.785085 C49.2746382,104.087308 49.0180409,105.062518 48.5215639,106.25017 L100.681974,106.25017 C102.651942,106.25017 104.150704,104.752595 104.150704,102.785085 L104.150704,39.7498301 Z M106.528506,35 C107.841818,35 108.90592,36.0629832 108.90592,37.374915 L108.90592,102.785085 C108.90592,107.375682 105.277789,111 100.681974,111 L40.6214756,110.989125 C36.1189696,110.643471 32.9367736,107.296065 32.8255814,102.785085 L32.8255814,50.2231472 C32.8255814,48.9112154 33.8896829,47.8482321 35.2033836,47.8482321 L44.5182563,47.8482321 L44.5182563,37.374915 C44.5182563,36.0629832 45.5831354,35 46.8956697,35 L106.528506,35 Z" id="Fill-4" fill="#000000"></path>
            </g>
        </g>
    </g>
</svg>