<?xml version="1.0" encoding="UTF-8"?>
<svg width="149px" height="148px" viewBox="0 0 149 148" version="1.1" xmlns="http://www.w3.org/2000/svg" xmlns:xlink="http://www.w3.org/1999/xlink">
    <title>Group 24</title>
    <defs>
        <polygon id="path-1" points="0 0.1998592 147.800693 0.1998592 147.800693 148 0 148"></polygon>
    </defs>
    <g id="Page-1" stroke="none" stroke-width="1" fill="none" fill-rule="evenodd">
        <g id="Subcommittees" transform="translate(-117.000000, -1745.000000)">
            <g id="Group-24" transform="translate(117.000000, 1745.000000)">
                <g id="Group-3" transform="translate(0.303191, 0.000000)">
                    <mask id="mask-2" fill="white">
                        <use xlink:href="#path-1"></use>
                    </mask>
                    <g id="Clip-2"></g>
                    <path d="M73.9073717,11.3124885 C73.7534517,11.3124885 73.6026891,11.3124885 73.4483744,11.3140672 C38.8282144,11.5634965 10.8656864,39.9321365 11.1147211,74.5522965 C11.3629664,109.017747 39.4833611,136.887529 73.8935584,136.887529 C74.0474784,136.887529 74.1982411,136.887529 74.3529504,136.885555 C108.97311,136.636126 136.935638,108.267881 136.685814,73.6473259 C136.437569,39.1818752 108.317174,11.3124885 73.9073717,11.3124885 M73.8927691,148.000158 C33.3889184,148.000158 0.294145067,115.200595 0.00169706667,74.6320192 C-0.2911456,33.8846592 32.6208971,0.495069867 73.3682571,0.201437867 C73.5474357,0.1998592 73.7297717,0.1998592 73.9085557,0.1998592 C114.412012,0.1998592 147.50639,32.9990272 147.798838,73.5676032 C148.09247,114.314963 115.180428,147.704553 74.4326731,147.998185 C74.2538891,148.000158 74.0711584,148.000158 73.8927691,148.000158" id="Fill-1" fill="#000000" mask="url(#mask-2)"></path>
                </g>
                <path d="M79.3031915,25.4992458 C79.3031915,28.5364073 76.8395988,31 73.7997976,31 C70.7664071,31 68.3031915,28.5364073 68.3031915,25.4992458 C68.3031915,22.4613301 70.7664071,20 73.7997976,20 C76.8395988,20 79.3031915,22.4613301 79.3031915,25.4992458" id="Fill-4" fill="#231F20"></path>
                <path d="M102.303191,43.5017104 C102.303191,47.0896997 99.3983377,50 95.8031915,50 C92.2141272,50 89.3031915,47.0896997 89.3031915,43.5017104 C89.3031915,39.9106803 92.2141272,37 95.8031915,37 C99.3983377,37 102.303191,39.9106803 102.303191,43.5017104" id="Fill-6" fill="#231F20"></path>
                <path d="M57.3031915,43.5017104 C57.3031915,47.0896997 54.3933166,50 50.8047116,50 C47.2134464,50 44.3031915,47.0896997 44.3031915,43.5017104 C44.3031915,39.9106803 47.2134464,37 50.8047116,37 C54.3933166,37 57.3031915,39.9106803 57.3031915,43.5017104" id="Fill-8" fill="#231F20"></path>
                <path d="M56.1816635,95.8389694 L55.5266236,95.7012882 C54.2882844,95.4476651 53.1877195,94.8474235 52.3031915,94 L52.3031915,105.818438 C52.3031915,107.566023 53.7514533,109 55.5233627,109 L56.0870965,109 C57.8553373,109 59.3031915,107.566023 59.3031915,105.818438 L59.3031915,95.7194042 C58.2976013,95.9855072 57.2296458,96.0571659 56.1816635,95.8389694" id="Fill-10" fill="#231F20"></path>
                <path d="M52.5416416,82.197611 L56.9265163,63.8221159 C57.6864825,60.6183158 60.8839347,58.1080856 64.2019415,58.1080856 L64.3031915,58.1080856 L63.7961534,56.0046872 C63.4006086,54.3511509 61.6817219,53 59.9691388,53 L43.215214,53 C41.5053887,53 39.786502,54.3511509 39.3874114,56.0046872 L34.3855813,76.9674758 C33.9931882,78.6198386 35.0407517,80.2581188 36.7123621,80.6094024 L37.2477659,80.7201076 C38.922528,81.0698264 40.5811374,79.9956341 40.9357095,78.3327093 L42.9016147,69.0107855 C43.253429,67.3502078 43.5410264,67.3799378 43.5410264,69.0772869 L43.5410264,105.908079 C43.5410264,107.606601 44.9404042,109 46.656533,109 L47.1982404,109 C48.9104296,109 50.3098074,107.606601 50.3098074,105.908079 L50.3098074,82.7941672 C50.3098074,82.2934512 50.8893357,81.8842723 51.5921764,81.8842723 C51.9719625,81.8842723 52.3072301,82.0090601 52.5416416,82.197611" id="Fill-12" fill="#231F20"></path>
                <path d="M113.221662,76.9676432 L108.21647,56.004317 C107.820515,54.3511603 106.098404,53 104.388507,53 L87.634274,53 C85.924771,53 84.2022664,54.3511603 83.806311,56.004317 L83.3031915,58.1081213 L83.4012939,58.1081213 C86.7190457,58.1081213 89.917026,60.618369 90.6797819,63.8245386 L95.0616886,82.1970326 C95.2992618,82.0088716 95.6345435,81.8840829 96.0147395,81.8840829 C96.7144577,81.8840829 97.2936164,82.2936558 97.2936164,82.7943753 L97.2936164,105.908448 C97.2936164,107.606592 98.6930529,109 100.406102,109 L100.95059,109 C102.660093,109 104.059529,107.606592 104.059529,105.908448 L104.059529,69.0773992 C104.059529,67.3800383 104.350685,67.352264 104.70212,69.0128533 L106.674805,78.3324951 C107.028998,79.9958227 108.681767,81.0700225 110.359751,80.7203012 L110.894784,80.6095953 C112.566464,80.2583092 113.611314,78.6196264 113.221662,76.9676432" id="Fill-14" fill="#231F20"></path>
                <path d="M92.0701355,95.7033926 L91.4319948,95.8370551 C90.3682913,96.0560685 89.3013298,95.9831982 88.3031915,95.7186913 L88.3031915,105.818267 C88.3031915,107.565946 89.7533631,109 91.5203653,109 L92.086425,109 C93.8570922,109 95.3031915,107.565946 95.3031915,105.818267 L95.3031915,94 C94.4133782,94.8470664 93.3138378,95.4469376 92.0701355,95.7033926" id="Fill-16" fill="#231F20"></path>
                <path d="M87.4208059,63.5431591 C86.9674588,61.5928469 84.9692293,60 82.9927916,60 L63.6113277,60 C61.6348901,60 59.6397737,61.5928469 59.1837026,63.5431591 L53.3983711,88.2484268 C52.945024,90.1971643 54.1552467,92.1293671 56.0908248,92.5380114 L56.7099451,92.6718641 C58.6459124,93.0828706 60.5624226,91.815207 60.9721861,89.8585957 L63.2486501,78.8716529 C63.6584136,76.9130733 63.9930732,76.9473238 63.9930732,78.9503898 L63.9930732,122.357239 C63.9930732,124.359911 65.6126703,126 67.589108,126 L68.2237939,126 C70.2033447,126 71.8264441,124.359911 71.8264441,122.357239 C71.8264441,122.357239 71.8198287,95.7075641 71.8264441,95.1174313 C71.8264441,94.5257237 72.4860349,94.0414919 73.3055619,94.0414919 C74.1180845,94.0414919 74.7815667,94.5257237 74.7815667,95.1174313 L74.7815667,122.357239 C74.7815667,124.359911 76.4038877,126 78.3834385,126 L79.0154005,126 C80.9945622,126 82.6145484,124.359911 82.6145484,122.357239 L82.6145484,78.9523582 C82.6145484,76.9488986 82.9523212,76.9181912 83.3523562,78.874015 L85.6350464,89.8585957 C86.0416968,91.815207 87.9589853,93.0828706 89.8972873,92.6718641 L90.5132946,92.5380114 C92.4523749,92.1293671 93.6657107,90.1971643 93.2057483,88.2484268 L87.4208059,63.5431591 Z" id="Fill-18" fill="#231F20"></path>
                <path d="M81.3031915,50.9996006 C81.3031915,55.4186139 77.7212748,59 73.3049888,59 C68.8851082,59 65.3031915,55.4186139 65.3031915,50.9996006 C65.3031915,46.5821849 68.8851082,43 73.3049888,43 C77.7212748,43 81.3031915,46.5821849 81.3031915,50.9996006" id="Fill-20" fill="#231F20"></path>
                <path d="M84.0334561,35.6488767 C83.7031915,34.19052 82.2566869,33 80.8221848,33 L66.783811,33 C65.3496961,33 63.9062889,34.19052 63.5733141,35.6488767 L60.3031915,50.0623695 C61.3268955,50.1152905 62.3227226,50.4097897 63.2027828,50.9248603 C63.3119676,44.9403461 68.0038153,40.1035303 73.7689261,40.1035303 C79.5561061,40.1035303 84.263441,44.9787239 84.3350693,51 C85.2433937,50.4453397 86.2643874,50.1193303 87.3031915,50.0639855 L84.0334561,35.6488767 Z" id="Fill-22" fill="#231F20"></path>
            </g>
        </g>
    </g>
</svg>