<?xml version="1.0" encoding="UTF-8"?>
<svg width="147px" height="147px" viewBox="0 0 147 147" version="1.1" xmlns="http://www.w3.org/2000/svg" xmlns:xlink="http://www.w3.org/1999/xlink">
    <title>Group 10</title>
    <defs>
        <polygon id="path-1" points="0.000155897956 0.198744 145.956889 0.198744 145.956889 147 0.000155897956 147"></polygon>
        <polygon id="path-3" points="-0.209302326 147 145.945032 147 145.945032 1 -0.209302326 1"></polygon>
    </defs>
    <g id="Page-1" stroke="none" stroke-width="1" fill="none" fill-rule="evenodd">
        <g id="Take-Action" transform="translate(-116.000000, -1062.000000)">
            <g id="Group-10" transform="translate(117.000000, 1062.000000)">
                <g id="Group-3" transform="translate(-0.209302, 0.000000)">
                    <mask id="mask-2" fill="white">
                        <use xlink:href="#path-1"></use>
                    </mask>
                    <g id="Clip-2"></g>
                    <path d="M72.9787175,11.236092 C38.7891264,11.236092 10.9742028,39.211956 10.9742028,73.599372 C10.9742028,107.986396 38.7891264,135.96226 72.9787175,135.96226 C107.167919,135.96226 134.982842,107.986396 134.982842,73.599372 C134.982842,39.211956 107.167919,11.236092 72.9787175,11.236092 M72.9787175,147.000196 C32.7379472,147.000196 0.000155897956,114.072588 0.000155897956,73.599372 C0.000155897956,33.126156 32.7379472,0.198548 72.9787175,0.198548 C113.219098,0.198548 145.956889,33.126156 145.956889,73.599372 C145.956889,114.072588 113.219098,147.000196 72.9787175,147.000196" id="Fill-1" fill="#000000" mask="url(#mask-2)"></path>
                </g>
                <path d="M107.529374,100.570175 C103.947117,100.570175 101.030689,97.6296951 101.030689,94.0096527 C101.030689,90.3942889 103.947117,87.4553681 107.529374,87.4553681 C111.112403,87.4553681 114.027672,90.3942889 114.027672,94.0096527 C114.027672,97.6296951 111.112403,100.570175 107.529374,100.570175 L107.529374,100.570175 Z M92.413951,71.388774 C92.0572711,71.388774 91.7686038,71.0979229 91.7686038,70.738063 L91.7686038,60.0923703 C91.7686038,59.7325104 92.0572711,59.4412695 92.413951,59.4412695 L106.334515,59.4412695 C106.642891,59.4412695 106.907985,59.6611622 106.967883,59.9660489 L109.043041,70.6121316 C109.080139,70.8027832 109.030675,71.0012325 108.908175,71.1513366 C108.785289,71.3014407 108.602505,71.388774 108.409673,71.388774 L92.413951,71.388774 Z M96.5650406,78.3181238 L93.7919798,78.3181238 C93.0793928,78.3181238 92.5016718,77.7360319 92.5016718,77.016702 C92.5016718,76.2969822 93.0793928,75.7148903 93.7919798,75.7148903 L96.5650406,75.7148903 C97.2776275,75.7148903 97.8553485,76.2969822 97.8553485,77.016702 C97.8553485,77.7360319 97.2776275,78.3181238 96.5650406,78.3181238 L96.5650406,78.3181238 Z M85.2857627,82.2243386 C85.2857627,82.7635436 84.8525686,83.2005999 84.3185148,83.2005999 L31.8007782,83.2005999 C31.266338,83.2005999 30.8331439,82.7635436 30.8331439,82.2243386 L30.8331439,47.9011904 C30.8331439,47.3623753 31.266338,46.9249291 31.8007782,46.9249291 L84.3185148,46.9249291 C84.8525686,46.9249291 85.2857627,47.3623753 85.2857627,47.9011904 L85.2857627,82.2243386 Z M50.2356813,100.570175 C46.6530382,100.570175 43.7369963,97.6296951 43.7369963,94.0096527 C43.7369963,90.3942889 46.6530382,87.4553681 50.2356813,87.4553681 C53.8190972,87.4553681 56.7347526,90.3942889 56.7347526,94.0096527 C56.7347526,97.6296951 53.8190972,100.570175 50.2356813,100.570175 L50.2356813,100.570175 Z M120.946412,83.9772423 C120.946412,83.0789571 121.668274,82.35066 122.559394,82.35066 L124.922833,82.35066 L124.922833,76.1445388 C124.922833,75.1745156 124.154213,74.2087811 123.215561,74.0001949 L114.044289,72.0196009 C113.225432,68.6568798 111.008065,59.5250939 110.424548,57.0895091 C109.919477,54.9845431 108.409673,55.0379568 107.529374,55.0379568 L89.178327,55.0379568 L89.178327,48.0247826 C89.178327,45.2523409 86.9466623,43 84.1964012,43 L31.8007782,43 C29.0536087,43 26.8192389,45.2523409 26.8192389,48.0247826 L26.8192389,82.2243386 C26.8192389,84.40962 28.2127251,86.2502468 30.1425837,86.9430648 L30.1425837,94.511819 C30.1425837,95.1906014 30.6855255,95.7372141 31.3586961,95.7372141 L39.4916165,95.7372141 C40.3174291,100.97955 44.8136055,105 50.2356813,105 C55.6589163,105 60.1527741,100.97955 60.9801324,95.7372141 L96.7856952,95.7372141 C97.6122806,100.97955 102.10923,105 107.529374,105 C112.953381,105 117.447626,100.97955 118.271506,95.7372141 L123.171508,95.7372141 C124.134118,95.7372141 124.922833,94.9449765 124.922833,93.9714444 L124.922833,85.6046044 L122.559394,85.6046044 C121.668274,85.6046044 120.946412,84.8763072 120.946412,83.9772423 L120.946412,83.9772423 Z" id="Fill-4" fill="#000000"></path>
                <mask id="mask-4" fill="white">
                    <use xlink:href="#path-3"></use>
                </mask>
                <g id="Clip-7"></g>
                <polygon id="Fill-6" fill="#000000" mask="url(#mask-4)" points="39.832981 77 42.8361522 77 42.8361522 54 39.832981 54"></polygon>
                <polygon id="Fill-8" fill="#000000" mask="url(#mask-4)" points="55.8498943 77 58.8530655 77 58.8530655 54 55.8498943 54"></polygon>
                <polygon id="Fill-9" fill="#000000" mask="url(#mask-4)" points="71.8668076 77 74.8699789 77 74.8699789 54 71.8668076 54"></polygon>
            </g>
        </g>
    </g>
</svg>