<?xml version="1.0" encoding="UTF-8"?>
<svg width="135px" height="44px" viewBox="0 0 135 44" version="1.1" xmlns="http://www.w3.org/2000/svg" xmlns:xlink="http://www.w3.org/1999/xlink">
    <title>app-store-google</title>
    <defs>
        <linearGradient x1="61.0136%" y1="4.82%" x2="26.10496%" y2="71.948%" id="linearGradient-1">
            <stop stop-color="#00A0FF" offset="0%"></stop>
            <stop stop-color="#00A1FF" offset="0.7%"></stop>
            <stop stop-color="#00BEFF" offset="26%"></stop>
            <stop stop-color="#00D2FF" offset="51.2%"></stop>
            <stop stop-color="#00DFFF" offset="76%"></stop>
            <stop stop-color="#00E3FF" offset="100%"></stop>
        </linearGradient>
        <linearGradient x1="107.724138%" y1="50%" x2="-130.669951%" y2="50%" id="linearGradient-2">
            <stop stop-color="#FFE000" offset="0%"></stop>
            <stop stop-color="#FFBD00" offset="40.9%"></stop>
            <stop stop-color="#FFA500" offset="77.5%"></stop>
            <stop stop-color="#FF9C00" offset="100%"></stop>
        </linearGradient>
        <linearGradient x1="86.3233533%" y1="30.7784581%" x2="-49.9520958%" y2="135.951638%" id="linearGradient-3">
            <stop stop-color="#FF3A44" offset="0%"></stop>
            <stop stop-color="#C31162" offset="100%"></stop>
        </linearGradient>
        <linearGradient x1="-18.7964072%" y1="-11.5177024%" x2="42.0598802%" y2="35.2313154%" id="linearGradient-4">
            <stop stop-color="#32A071" offset="0%"></stop>
            <stop stop-color="#2DA771" offset="6.9%"></stop>
            <stop stop-color="#15CF74" offset="47.6%"></stop>
            <stop stop-color="#06E775" offset="80.1%"></stop>
            <stop stop-color="#00F076" offset="100%"></stop>
        </linearGradient>
    </defs>
    <g id="Page-1" stroke="none" stroke-width="1" fill="none" fill-rule="evenodd">
        <g id="app-store-google" fill-rule="nonzero">
            <path d="M130,44 L5,44 C2.2,44 0,41.635 0,38.625 L0,6.375 C0,3.365 2.2,1 5,1 L130,1 C132.8,1 135,3.365 135,6.375 L135,38.625 C135,41.635 132.8,44 130,44 Z" id="Path" fill="#000000"></path>
            <path d="M129.812594,1 C132.105697,1 134,3.078125 134,5.59375 L134,38.40625 C134,40.921875 132.105697,43 129.812594,43 L5.1874063,43 C2.89430285,43 1,40.921875 1,38.40625 L1,5.59375 C1,3.078125 2.89430285,1 5.1874063,1 L129.812594,1 M130,0 L5,0 C2.2,0 0,2.53 0,5.5 L0,38.5 C0,41.58 2.2,44 5,44 L130,44 C132.8,44 135,41.58 135,38.5 L135,5.5 C135,2.53 132.8,0 130,0 Z" id="Shape" fill="#A6A6A6"></path>
            <path d="M47.4,12.2 C47.4,13 47.2,13.7 46.7,14.2 C46.1,14.8 45.4,15.1 44.5,15.1 C43.6,15.1 42.9,14.8 42.3,14.2 C41.7,13.6 41.4,12.9 41.4,12 C41.4,11.1 41.7,10.4 42.3,9.8 C42.9,9.2 43.6,8.9 44.5,8.9 C44.9,8.9 45.3,9 45.7,9.2 C46.1,9.4 46.4,9.6 46.6,9.9 L46.1,10.4 C45.7,9.9 45.2,9.7 44.5,9.7 C43.9,9.7 43.3,9.9 42.9,10.4 C42.4,10.8 42.2,11.4 42.2,12.1 C42.2,12.8 42.4,13.4 42.9,13.8 C43.4,14.2 43.9,14.5 44.5,14.5 C45.2,14.5 45.7,14.3 46.2,13.8 C46.5,13.5 46.7,13.1 46.7,12.6 L44.5,12.6 L44.5,11.8 L47.4,11.8 L47.4,12.2 L47.4,12.2 Z M52,9.7 L49.3,9.7 L49.3,11.6 L51.8,11.6 L51.8,12.3 L49.3,12.3 L49.3,14.2 L52,14.2 L52,15 L48.5,15 L48.5,9 L52,9 L52,9.7 Z M55.3,15 L54.5,15 L54.5,9.7 L52.8,9.7 L52.8,9 L57,9 L57,9.7 L55.3,9.7 L55.3,15 Z M59.9,15 L59.9,9 L60.7,9 L60.7,15 L59.9,15 Z M64.1,15 L63.3,15 L63.3,9.7 L61.6,9.7 L61.6,9 L65.7,9 L65.7,9.7 L64,9.7 L64.1,15 Z M73.6,14.2 C73,14.8 72.3,15.1 71.4,15.1 C70.5,15.1 69.8,14.8 69.2,14.2 C68.6,13.6 68.3,12.9 68.3,12 C68.3,11.1 68.6,10.4 69.2,9.8 C69.8,9.2 70.5,8.9 71.4,8.9 C72.3,8.9 73,9.2 73.6,9.8 C74.2,10.4 74.5,11.1 74.5,12 C74.5,12.9 74.2,13.6 73.6,14.2 Z M69.8,13.7 C70.2,14.1 70.8,14.4 71.4,14.4 C72,14.4 72.6,14.2 73,13.7 C73.4,13.3 73.7,12.7 73.7,12 C73.7,11.3 73.5,10.7 73,10.3 C72.6,9.9 72,9.6 71.4,9.6 C70.8,9.6 70.2,9.8 69.8,10.3 C69.4,10.7 69.1,11.3 69.1,12 C69.1,12.7 69.3,13.3 69.8,13.7 Z M75.6,15 L75.6,9 L76.5,9 L79.4,13.7 L79.4,9 L80.2,9 L80.2,15 L79.4,15 L76.3,10.1 L76.3,15 L75.6,15 L75.6,15 Z" id="Shape" stroke="#FFFFFF" stroke-width="0.2" fill="#FFFFFF"></path>
            <path d="M68.1,23.8 C65.7,23.8 63.8,25.6 63.8,28.1 C63.8,30.5 65.7,32.4 68.1,32.4 C70.5,32.4 72.4,30.6 72.4,28.1 C72.4,25.5 70.5,23.8 68.1,23.8 Z M68.1,30.6 C66.8,30.6 65.7,29.5 65.7,28 C65.7,26.5 66.8,25.4 68.1,25.4 C69.4,25.4 70.5,26.4 70.5,28 C70.5,29.5 69.4,30.6 68.1,30.6 Z M58.8,23.8 C56.4,23.8 54.5,25.6 54.5,28.1 C54.5,30.5 56.4,32.4 58.8,32.4 C61.2,32.4 63.1,30.6 63.1,28.1 C63.1,25.5 61.2,23.8 58.8,23.8 Z M58.8,30.6 C57.5,30.6 56.4,29.5 56.4,28 C56.4,26.5 57.5,25.4 58.8,25.4 C60.1,25.4 61.2,26.4 61.2,28 C61.2,29.5 60.1,30.6 58.8,30.6 Z M47.7,25.1 L47.7,26.9 L52,26.9 C51.9,27.9 51.5,28.7 51,29.2 C50.4,29.8 49.4,30.5 47.7,30.5 C45,30.5 43,28.4 43,25.7 C43,23 45.1,20.9 47.7,20.9 C49.1,20.9 50.2,21.5 51,22.2 L52.3,20.9 C51.2,19.9 49.8,19.1 47.8,19.1 C44.2,19.1 41.1,22.1 41.1,25.7 C41.1,29.3 44.2,32.3 47.8,32.3 C49.8,32.3 51.2,31.7 52.4,30.4 C53.6,29.2 54,27.5 54,26.2 C54,25.8 54,25.4 53.9,25.1 L47.7,25.1 L47.7,25.1 Z M93.1,26.5 C92.7,25.5 91.7,23.8 89.5,23.8 C87.3,23.8 85.5,25.5 85.5,28.1 C85.5,30.5 87.3,32.4 89.7,32.4 C91.6,32.4 92.8,31.2 93.2,30.5 L91.8,29.5 C91.3,30.2 90.7,30.7 89.7,30.7 C88.7,30.7 88.1,30.3 87.6,29.4 L93.3,27 L93.1,26.5 L93.1,26.5 Z M87.3,27.9 C87.3,26.3 88.6,25.4 89.5,25.4 C90.2,25.4 90.9,25.8 91.1,26.3 L87.3,27.9 Z M82.6,32 L84.5,32 L84.5,19.5 L82.6,19.5 L82.6,32 Z M79.6,24.7 C79.1,24.2 78.3,23.7 77.3,23.7 C75.2,23.7 73.2,25.6 73.2,28 C73.2,30.4 75.1,32.2 77.3,32.2 C78.3,32.2 79.1,31.7 79.5,31.2 L79.6,31.2 L79.6,31.8 C79.6,33.4 78.7,34.3 77.3,34.3 C76.2,34.3 75.4,33.5 75.2,32.8 L73.6,33.5 C74.1,34.6 75.3,36 77.4,36 C79.6,36 81.4,34.7 81.4,31.6 L81.4,24 L79.6,24 L79.6,24.7 L79.6,24.7 Z M77.4,30.6 C76.1,30.6 75,29.5 75,28 C75,26.5 76.1,25.4 77.4,25.4 C78.7,25.4 79.7,26.5 79.7,28 C79.7,29.5 78.7,30.6 77.4,30.6 Z M101.8,19.5 L97.3,19.5 L97.3,32 L99.2,32 L99.2,27.3 L101.8,27.3 C103.9,27.3 105.9,25.8 105.9,23.4 C105.9,21 103.9,19.5 101.8,19.5 L101.8,19.5 Z M101.9,25.5 L99.2,25.5 L99.2,21.2 L101.9,21.2 C103.3,21.2 104.1,22.4 104.1,23.3 C104,24.4 103.2,25.5 101.9,25.5 Z M113.4,23.7 C112,23.7 110.6,24.3 110.1,25.6 L111.8,26.3 C112.2,25.6 112.8,25.4 113.5,25.4 C114.5,25.4 115.4,26 115.5,27 L115.5,27.1 C115.2,26.9 114.4,26.6 113.6,26.6 C111.8,26.6 110,27.6 110,29.4 C110,31.1 111.5,32.2 113.1,32.2 C114.4,32.2 115,31.6 115.5,31 L115.6,31 L115.6,32 L117.4,32 L117.4,27.2 C117.2,25 115.5,23.7 113.4,23.7 L113.4,23.7 Z M113.2,30.6 C112.6,30.6 111.7,30.3 111.7,29.5 C111.7,28.5 112.8,28.2 113.7,28.2 C114.5,28.2 114.9,28.4 115.4,28.6 C115.2,29.8 114.2,30.6 113.2,30.6 L113.2,30.6 Z M123.7,24 L121.6,29.4 L121.5,29.4 L119.3,24 L117.3,24 L120.6,31.6 L118.7,35.8 L120.6,35.8 L125.7,24 L123.7,24 L123.7,24 Z M106.9,32 L108.8,32 L108.8,19.5 L106.9,19.5 L106.9,32 Z" id="Shape" fill="#FFFFFF"></path>
            <path d="M10.4,9.5 C10.1,9.8 10,10.3 10,10.9 L10,33 C10,33.6 10.2,34.1 10.5,34.4 L10.6,34.5 L23,22.1 L23,21.9 L10.4,9.5 Z" id="Path" fill="url(#linearGradient-1)"></path>
            <path d="M27,26.3 L22.9,22.2 L22.9,21.9 L27,17.8 L27.1,17.9 L32,20.7 C33.4,21.5 33.4,22.8 32,23.6 L27,26.3 Z" id="Path" fill="url(#linearGradient-2)"></path>
            <path d="M27.1,26.2 L22.9,22 L10.4,34.5 C10.9,35 11.6,35 12.5,34.6 L27.1,26.2" id="Path" fill="url(#linearGradient-3)"></path>
            <path d="M27.1,17.8 L12.5,9.5 C11.6,9 10.9,9.1 10.4,9.6 L22.9,22 L27.1,17.8 L27.1,17.8 Z" id="Path" fill="url(#linearGradient-4)"></path>
            <path d="M27,26.1 L12.5,34.3 C11.7,34.8 11,34.7 10.5,34.3 L10.4,34.4 L10.5,34.5 C11,34.9 11.7,35 12.5,34.5 L27,26.1 Z" id="Path" fill="#000000" opacity="0.2"></path>
            <path d="M10.4,34.3 C10.1,34 10,33.5 10,32.9 L10,33 C10,33.6 10.2,34.1 10.5,34.4 L10.5,34.3 L10.4,34.3 Z M32,23.3 L27,26.1 L27.1,26.2 L32,23.4 C32.7,23 33,22.5 33,22 C33,22.5 32.6,22.9 32,23.3 L32,23.3 Z" id="Shape" fill="#000000" opacity="0.12"></path>
            <path d="M12.5,9.6 L32,20.7 C32.6,21.1 33,21.5 33,22 C33,21.5 32.7,21 32,20.6 L12.5,9.6 C11.1,8.7 10,9.3 10,10.9 L10,11 C10,9.5 11.1,8.8 12.5,9.6 Z" id="Path" fill="#FFFFFF" opacity="0.25"></path>
        </g>
    </g>
</svg>