<?xml version="1.0" encoding="utf-8"?>
<!-- Generator: Adobe Illustrator 25.0.1, SVG Export Plug-In . SVG Version: 6.00 Build 0)  -->
<svg version="1.1" id="Layer_1" xmlns="http://www.w3.org/2000/svg" xmlns:xlink="http://www.w3.org/1999/xlink" x="0px" y="0px"
	 viewBox="0 0 232.12 232.12" style="enable-background:new 0 0 232.12 232.12;" xml:space="preserve">
<style type="text/css">
	.st0{clip-path:url(#SVGID_2_);fill:#4B93C2;}
	.st1{clip-path:url(#SVGID_4_);}
	.st2{clip-path:url(#SVGID_6_);fill:#FFFFFF;}
	.st3{clip-path:url(#SVGID_8_);fill:#4B93C2;}
	.st4{clip-path:url(#SVGID_10_);}
	.st5{clip-path:url(#SVGID_12_);fill:#FFFFFF;}
	.st6{clip-path:url(#SVGID_14_);fill:#4B93C2;}
	.st7{clip-path:url(#SVGID_16_);}
	.st8{clip-path:url(#SVGID_18_);fill:#FFFFFF;}
	.st9{clip-path:url(#SVGID_20_);fill:#4B93C2;}
	.st10{clip-path:url(#SVGID_22_);}
	.st11{clip-path:url(#SVGID_24_);fill:#FFFFFF;}
	.st12{clip-path:url(#SVGID_26_);fill:#4B93C2;}
	.st13{clip-path:url(#SVGID_28_);}
	.st14{clip-path:url(#SVGID_30_);fill:#FFFFFF;}
	.st15{clip-path:url(#SVGID_32_);fill:#4B93C2;}
	.st16{clip-path:url(#SVGID_34_);}
	.st17{clip-path:url(#SVGID_36_);fill:#FFFFFF;}
	.st18{clip-path:url(#SVGID_38_);fill:#4B93C2;}
	.st19{clip-path:url(#SVGID_40_);}
	.st20{clip-path:url(#SVGID_42_);fill:#FFFFFF;}
	.st21{clip-path:url(#SVGID_44_);fill:#4B93C2;}
	.st22{clip-path:url(#SVGID_46_);}
	.st23{clip-path:url(#SVGID_48_);fill:#FFFFFF;}
	.st24{clip-path:url(#SVGID_50_);fill:#4B93C2;}
	.st25{clip-path:url(#SVGID_52_);}
	.st26{clip-path:url(#SVGID_54_);fill:#FFFFFF;}
	.st27{clip-path:url(#SVGID_56_);fill:#4B93C2;}
	.st28{clip-path:url(#SVGID_58_);}
	.st29{clip-path:url(#SVGID_60_);fill:#FFFFFF;}
	.st30{clip-path:url(#SVGID_62_);fill:#4B93C2;}
	.st31{clip-path:url(#SVGID_64_);}
	.st32{clip-path:url(#SVGID_66_);fill:#FFFFFF;}
	.st33{clip-path:url(#SVGID_68_);fill:#4B93C2;}
	.st34{clip-path:url(#SVGID_70_);}
	.st35{clip-path:url(#SVGID_72_);fill:#FFFFFF;}
	.st36{clip-path:url(#SVGID_74_);fill:#4B93C2;}
	.st37{clip-path:url(#SVGID_76_);}
	.st38{clip-path:url(#SVGID_78_);fill:#FFFFFF;}
	.st39{clip-path:url(#SVGID_80_);}
	.st40{clip-path:url(#SVGID_82_);fill:#FFFFFF;}
	.st41{fill:#2695C6;}
	.st42{fill:#FFFFFF;}
</style>
<g>
	<g>
		<defs>
			<rect id="SVGID_1_" x="528.21" y="-1072.31" width="58" height="58"/>
		</defs>
		<clipPath id="SVGID_2_">
			<use xlink:href="#SVGID_1_"  style="overflow:visible;"/>
		</clipPath>
		<rect x="523.21" y="-1077.31" class="st0" width="68" height="68"/>
	</g>
</g>
<g>
	<g>
		<defs>
			<polygon id="SVGID_3_" points="552.07,-1063.31 547.21,-1058.37 561.51,-1043.81 547.21,-1029.25 552.07,-1024.31 
				571.21,-1043.81 			"/>
		</defs>
		<clipPath id="SVGID_4_">
			<use xlink:href="#SVGID_3_"  style="overflow:visible;"/>
		</clipPath>
		<g class="st1">
			<g>
				<defs>
					<rect id="SVGID_5_" x="-395.79" y="-2039.31" width="1024" height="4310"/>
				</defs>
				<clipPath id="SVGID_6_">
					<use xlink:href="#SVGID_5_"  style="overflow:visible;"/>
				</clipPath>
				<rect x="542.21" y="-1068.31" class="st2" width="34" height="49"/>
			</g>
		</g>
	</g>
</g>
<g>
	<g>
		<defs>
			<rect id="SVGID_7_" x="528.21" y="-1072.31" width="58" height="58"/>
		</defs>
		<clipPath id="SVGID_8_">
			<use xlink:href="#SVGID_7_"  style="overflow:visible;"/>
		</clipPath>
		<rect x="523.21" y="-1077.31" class="st3" width="68" height="68"/>
	</g>
</g>
<g>
	<g>
		<defs>
			<polygon id="SVGID_9_" points="552.07,-1063.31 547.21,-1058.37 561.51,-1043.81 547.21,-1029.25 552.07,-1024.31 
				571.21,-1043.81 			"/>
		</defs>
		<clipPath id="SVGID_10_">
			<use xlink:href="#SVGID_9_"  style="overflow:visible;"/>
		</clipPath>
		<g class="st4">
			<g>
				<defs>
					<rect id="SVGID_11_" x="-395.79" y="-2039.31" width="1024" height="4310"/>
				</defs>
				<clipPath id="SVGID_12_">
					<use xlink:href="#SVGID_11_"  style="overflow:visible;"/>
				</clipPath>
				<rect x="542.21" y="-1068.31" class="st5" width="34" height="49"/>
			</g>
		</g>
	</g>
</g>
<g>
	<g>
		<defs>
			<rect id="SVGID_13_" x="528.21" y="-1072.31" width="58" height="58"/>
		</defs>
		<clipPath id="SVGID_14_">
			<use xlink:href="#SVGID_13_"  style="overflow:visible;"/>
		</clipPath>
		<rect x="523.21" y="-1077.31" class="st6" width="68" height="68"/>
	</g>
</g>
<g>
	<g>
		<defs>
			<polygon id="SVGID_15_" points="552.07,-1063.31 547.21,-1058.37 561.51,-1043.81 547.21,-1029.25 552.07,-1024.31 
				571.21,-1043.81 			"/>
		</defs>
		<clipPath id="SVGID_16_">
			<use xlink:href="#SVGID_15_"  style="overflow:visible;"/>
		</clipPath>
		<g class="st7">
			<g>
				<defs>
					<rect id="SVGID_17_" x="-395.79" y="-2039.31" width="1024" height="4310"/>
				</defs>
				<clipPath id="SVGID_18_">
					<use xlink:href="#SVGID_17_"  style="overflow:visible;"/>
				</clipPath>
				<rect x="542.21" y="-1068.31" class="st8" width="34" height="49"/>
			</g>
		</g>
	</g>
</g>
<g>
	<g>
		<defs>
			<rect id="SVGID_19_" x="528.21" y="-1072.31" width="58" height="58"/>
		</defs>
		<clipPath id="SVGID_20_">
			<use xlink:href="#SVGID_19_"  style="overflow:visible;"/>
		</clipPath>
		<rect x="523.21" y="-1077.31" class="st9" width="68" height="68"/>
	</g>
</g>
<g>
	<g>
		<defs>
			<polygon id="SVGID_21_" points="552.07,-1063.31 547.21,-1058.37 561.51,-1043.81 547.21,-1029.25 552.07,-1024.31 
				571.21,-1043.81 			"/>
		</defs>
		<clipPath id="SVGID_22_">
			<use xlink:href="#SVGID_21_"  style="overflow:visible;"/>
		</clipPath>
		<g class="st10">
			<g>
				<defs>
					<rect id="SVGID_23_" x="-395.79" y="-2039.31" width="1024" height="4310"/>
				</defs>
				<clipPath id="SVGID_24_">
					<use xlink:href="#SVGID_23_"  style="overflow:visible;"/>
				</clipPath>
				<rect x="542.21" y="-1068.31" class="st11" width="34" height="49"/>
			</g>
		</g>
	</g>
</g>
<g>
	<g>
		<defs>
			<rect id="SVGID_25_" x="528.21" y="-1072.31" width="58" height="58"/>
		</defs>
		<clipPath id="SVGID_26_">
			<use xlink:href="#SVGID_25_"  style="overflow:visible;"/>
		</clipPath>
		<rect x="523.21" y="-1077.31" class="st12" width="68" height="68"/>
	</g>
</g>
<g>
	<g>
		<defs>
			<polygon id="SVGID_27_" points="552.07,-1063.31 547.21,-1058.37 561.51,-1043.81 547.21,-1029.25 552.07,-1024.31 
				571.21,-1043.81 			"/>
		</defs>
		<clipPath id="SVGID_28_">
			<use xlink:href="#SVGID_27_"  style="overflow:visible;"/>
		</clipPath>
		<g class="st13">
			<g>
				<defs>
					<rect id="SVGID_29_" x="-395.79" y="-2039.31" width="1024" height="4310"/>
				</defs>
				<clipPath id="SVGID_30_">
					<use xlink:href="#SVGID_29_"  style="overflow:visible;"/>
				</clipPath>
				<rect x="542.21" y="-1068.31" class="st14" width="34" height="49"/>
			</g>
		</g>
	</g>
</g>
<g>
	<g>
		<defs>
			<rect id="SVGID_31_" x="528.21" y="-1072.31" width="58" height="58"/>
		</defs>
		<clipPath id="SVGID_32_">
			<use xlink:href="#SVGID_31_"  style="overflow:visible;"/>
		</clipPath>
		<rect x="523.21" y="-1077.31" class="st15" width="68" height="68"/>
	</g>
</g>
<g>
	<g>
		<defs>
			<polygon id="SVGID_33_" points="552.07,-1063.31 547.21,-1058.37 561.51,-1043.81 547.21,-1029.25 552.07,-1024.31 
				571.21,-1043.81 			"/>
		</defs>
		<clipPath id="SVGID_34_">
			<use xlink:href="#SVGID_33_"  style="overflow:visible;"/>
		</clipPath>
		<g class="st16">
			<g>
				<defs>
					<rect id="SVGID_35_" x="-395.79" y="-2039.31" width="1024" height="4310"/>
				</defs>
				<clipPath id="SVGID_36_">
					<use xlink:href="#SVGID_35_"  style="overflow:visible;"/>
				</clipPath>
				<rect x="542.21" y="-1068.31" class="st17" width="34" height="49"/>
			</g>
		</g>
	</g>
</g>
<g>
	<g>
		<defs>
			<rect id="SVGID_37_" x="528.21" y="-1072.31" width="58" height="58"/>
		</defs>
		<clipPath id="SVGID_38_">
			<use xlink:href="#SVGID_37_"  style="overflow:visible;"/>
		</clipPath>
		<rect x="523.21" y="-1077.31" class="st18" width="68" height="68"/>
	</g>
</g>
<g>
	<g>
		<defs>
			<polygon id="SVGID_39_" points="552.07,-1063.31 547.21,-1058.37 561.51,-1043.81 547.21,-1029.25 552.07,-1024.31 
				571.21,-1043.81 			"/>
		</defs>
		<clipPath id="SVGID_40_">
			<use xlink:href="#SVGID_39_"  style="overflow:visible;"/>
		</clipPath>
		<g class="st19">
			<g>
				<defs>
					<rect id="SVGID_41_" x="-395.79" y="-2039.31" width="1024" height="4310"/>
				</defs>
				<clipPath id="SVGID_42_">
					<use xlink:href="#SVGID_41_"  style="overflow:visible;"/>
				</clipPath>
				<rect x="542.21" y="-1068.31" class="st20" width="34" height="49"/>
			</g>
		</g>
	</g>
</g>
<g>
	<g>
		<defs>
			<rect id="SVGID_43_" x="528.21" y="-1072.31" width="58" height="58"/>
		</defs>
		<clipPath id="SVGID_44_">
			<use xlink:href="#SVGID_43_"  style="overflow:visible;"/>
		</clipPath>
		<rect x="523.21" y="-1077.31" class="st21" width="68" height="68"/>
	</g>
</g>
<g>
	<g>
		<defs>
			<polygon id="SVGID_45_" points="552.07,-1063.31 547.21,-1058.37 561.51,-1043.81 547.21,-1029.25 552.07,-1024.31 
				571.21,-1043.81 			"/>
		</defs>
		<clipPath id="SVGID_46_">
			<use xlink:href="#SVGID_45_"  style="overflow:visible;"/>
		</clipPath>
		<g class="st22">
			<g>
				<defs>
					<rect id="SVGID_47_" x="-395.79" y="-2039.31" width="1024" height="4310"/>
				</defs>
				<clipPath id="SVGID_48_">
					<use xlink:href="#SVGID_47_"  style="overflow:visible;"/>
				</clipPath>
				<rect x="542.21" y="-1068.31" class="st23" width="34" height="49"/>
			</g>
		</g>
	</g>
</g>
<g>
	<g>
		<defs>
			<rect id="SVGID_49_" x="528.21" y="-1072.31" width="58" height="58"/>
		</defs>
		<clipPath id="SVGID_50_">
			<use xlink:href="#SVGID_49_"  style="overflow:visible;"/>
		</clipPath>
		<rect x="523.21" y="-1077.31" class="st24" width="68" height="68"/>
	</g>
</g>
<g>
	<g>
		<defs>
			<polygon id="SVGID_51_" points="552.07,-1063.31 547.21,-1058.37 561.51,-1043.81 547.21,-1029.25 552.07,-1024.31 
				571.21,-1043.81 			"/>
		</defs>
		<clipPath id="SVGID_52_">
			<use xlink:href="#SVGID_51_"  style="overflow:visible;"/>
		</clipPath>
		<g class="st25">
			<g>
				<defs>
					<rect id="SVGID_53_" x="-395.79" y="-2039.31" width="1024" height="4310"/>
				</defs>
				<clipPath id="SVGID_54_">
					<use xlink:href="#SVGID_53_"  style="overflow:visible;"/>
				</clipPath>
				<rect x="542.21" y="-1068.31" class="st26" width="34" height="49"/>
			</g>
		</g>
	</g>
</g>
<g>
	<g>
		<defs>
			<rect id="SVGID_55_" x="528.21" y="-1072.31" width="58" height="58"/>
		</defs>
		<clipPath id="SVGID_56_">
			<use xlink:href="#SVGID_55_"  style="overflow:visible;"/>
		</clipPath>
		<rect x="523.21" y="-1077.31" class="st27" width="68" height="68"/>
	</g>
</g>
<g>
	<g>
		<defs>
			<polygon id="SVGID_57_" points="552.07,-1063.31 547.21,-1058.37 561.51,-1043.81 547.21,-1029.25 552.07,-1024.31 
				571.21,-1043.81 			"/>
		</defs>
		<clipPath id="SVGID_58_">
			<use xlink:href="#SVGID_57_"  style="overflow:visible;"/>
		</clipPath>
		<g class="st28">
			<g>
				<defs>
					<rect id="SVGID_59_" x="-395.79" y="-2039.31" width="1024" height="4310"/>
				</defs>
				<clipPath id="SVGID_60_">
					<use xlink:href="#SVGID_59_"  style="overflow:visible;"/>
				</clipPath>
				<rect x="542.21" y="-1068.31" class="st29" width="34" height="49"/>
			</g>
		</g>
	</g>
</g>
<g>
	<g>
		<defs>
			<rect id="SVGID_61_" x="528.21" y="-1072.31" width="58" height="58"/>
		</defs>
		<clipPath id="SVGID_62_">
			<use xlink:href="#SVGID_61_"  style="overflow:visible;"/>
		</clipPath>
		<rect x="523.21" y="-1077.31" class="st30" width="68" height="68"/>
	</g>
</g>
<g>
	<g>
		<defs>
			<polygon id="SVGID_63_" points="552.07,-1063.31 547.21,-1058.37 561.51,-1043.81 547.21,-1029.25 552.07,-1024.31 
				571.21,-1043.81 			"/>
		</defs>
		<clipPath id="SVGID_64_">
			<use xlink:href="#SVGID_63_"  style="overflow:visible;"/>
		</clipPath>
		<g class="st31">
			<g>
				<defs>
					<rect id="SVGID_65_" x="-395.79" y="-2039.31" width="1024" height="4310"/>
				</defs>
				<clipPath id="SVGID_66_">
					<use xlink:href="#SVGID_65_"  style="overflow:visible;"/>
				</clipPath>
				<rect x="542.21" y="-1068.31" class="st32" width="34" height="49"/>
			</g>
		</g>
	</g>
</g>
<g>
	<g>
		<defs>
			<rect id="SVGID_67_" x="528.21" y="-1072.31" width="58" height="58"/>
		</defs>
		<clipPath id="SVGID_68_">
			<use xlink:href="#SVGID_67_"  style="overflow:visible;"/>
		</clipPath>
		<rect x="523.21" y="-1077.31" class="st33" width="68" height="68"/>
	</g>
</g>
<g>
	<g>
		<defs>
			<polygon id="SVGID_69_" points="552.07,-1063.31 547.21,-1058.37 561.51,-1043.81 547.21,-1029.25 552.07,-1024.31 
				571.21,-1043.81 			"/>
		</defs>
		<clipPath id="SVGID_70_">
			<use xlink:href="#SVGID_69_"  style="overflow:visible;"/>
		</clipPath>
		<g class="st34">
			<g>
				<defs>
					<rect id="SVGID_71_" x="-395.79" y="-2039.31" width="1024" height="4310"/>
				</defs>
				<clipPath id="SVGID_72_">
					<use xlink:href="#SVGID_71_"  style="overflow:visible;"/>
				</clipPath>
				<rect x="542.21" y="-1068.31" class="st35" width="34" height="49"/>
			</g>
		</g>
	</g>
</g>
<g>
	<g>
		<defs>
			<rect id="SVGID_73_" x="528.21" y="-1072.31" width="58" height="58"/>
		</defs>
		<clipPath id="SVGID_74_">
			<use xlink:href="#SVGID_73_"  style="overflow:visible;"/>
		</clipPath>
		<rect x="523.21" y="-1077.31" class="st36" width="68" height="68"/>
	</g>
</g>
<g>
	<g>
		<defs>
			<polygon id="SVGID_75_" points="552.07,-1063.31 547.21,-1058.37 561.51,-1043.81 547.21,-1029.25 552.07,-1024.31 
				571.21,-1043.81 			"/>
		</defs>
		<clipPath id="SVGID_76_">
			<use xlink:href="#SVGID_75_"  style="overflow:visible;"/>
		</clipPath>
		<g class="st37">
			<g>
				<defs>
					<rect id="SVGID_77_" x="-395.79" y="-2039.31" width="1024" height="4310"/>
				</defs>
				<clipPath id="SVGID_78_">
					<use xlink:href="#SVGID_77_"  style="overflow:visible;"/>
				</clipPath>
				<rect x="542.21" y="-1068.31" class="st38" width="34" height="49"/>
			</g>
		</g>
	</g>
</g>
<g>
	<g>
		<defs>
			<polygon id="SVGID_79_" points="552.07,-1063.31 547.21,-1058.37 561.51,-1043.81 547.21,-1029.25 552.07,-1024.31 
				571.21,-1043.81 			"/>
		</defs>
		<clipPath id="SVGID_80_">
			<use xlink:href="#SVGID_79_"  style="overflow:visible;"/>
		</clipPath>
		<g class="st39">
			<g>
				<defs>
					<rect id="SVGID_81_" x="-395.79" y="-2039.31" width="1024" height="4310"/>
				</defs>
				<clipPath id="SVGID_82_">
					<use xlink:href="#SVGID_81_"  style="overflow:visible;"/>
				</clipPath>
				<rect x="542.21" y="-1068.31" class="st40" width="34" height="49"/>
			</g>
		</g>
	</g>
</g>
<rect class="st41" width="232.12" height="232.12"/>
<polygon class="st42" points="95.72,36.05 172.36,113.97 95.81,191.89 75.92,172.27 133.5,113.97 76.27,55.86 "/>
</svg>
