<?xml version="1.0" encoding="UTF-8"?>
<svg width="48px" height="48px" viewBox="0 0 48 48" version="1.1" xmlns="http://www.w3.org/2000/svg" xmlns:xlink="http://www.w3.org/1999/xlink">
    <title>Group 7 Copy 10</title>
    <g id="Page-1" stroke="none" stroke-width="1" fill="none" fill-rule="evenodd" stroke-linecap="round" stroke-linejoin="round">
        <g id="Homepage" transform="translate(-695.000000, -1240.000000)" stroke="#FFFFFF" stroke-width="3">
            <g id="Group-7-Copy-10" transform="translate(697.000000, 1242.000000)">
                <path d="M32.952381,21.55 L11.047619,21.55 C11.0209524,21.55 11,21.528 11,21.5 C11,21.473 11.0209524,21.45 11.047619,21.45 L32.952381,21.45 C32.9790476,21.45 33,21.473 33,21.5 C33,21.528 32.9790476,21.55 32.952381,21.55 Z" id="Stroke-1"></path>
                <path d="M22.0474138,33 C22.0350862,33 22.0237069,32.9952379 22.0142241,32.9857138 C21.9952586,32.967618 21.9952586,32.9380932 22.0142241,32.919045 L32.8852586,21.9996428 L22.0142241,11.0802407 C21.9952586,11.0621449 21.9952586,11.0326201 22.0142241,11.0135719 C22.0322414,10.995476 22.0625862,10.995476 22.0806034,11.0135719 L32.9857759,21.9663084 C33.0047414,21.9853567 33.0047414,22.0148814 32.9857759,22.0329773 L22.0806034,32.9857138 C22.0711207,32.9952379 22.0597414,33 22.0474138,33 Z" id="Stroke-3"></path>
                <path d="M22,44 C9.86898048,44 0,34.1310195 0,22 C0,9.86898048 9.86898048,0 22,0 C34.1310195,0 44,9.86898048 44,22 C44,34.1310195 34.1310195,44 22,44 Z" id="Stroke-5"></path>
            </g>
        </g>
    </g>
</svg>